<?xml version="1.0" encoding="utf-8"?>
<!-- Generator: Adobe Illustrator 23.1.1, SVG Export Plug-In . SVG Version: 6.00 Build 0)  -->
<svg version="1.1" id="Layer_1" xmlns="http://www.w3.org/2000/svg" xmlns:xlink="http://www.w3.org/1999/xlink" x="0px" y="0px"
	 viewBox="0 0 450 450" style="enable-background:new 0 0 450 450;" xml:space="preserve">
<g>
	<g>
		<path d="M164.61,233.85c-0.76,4.97-1.35,9.97-1.83,14.98c-0.86,9.06-1.33,18.17-1.37,27.27c-0.04,11.15,0.58,22.31,2.15,33.35
			c1.62,11.39,4.27,22.72,8.71,33.36c4.21,10.08,10.08,19.59,18.19,27c4.05,3.7,8.57,7.08,13.21,10.01
			c6.09,3.85,12.87,6.94,20.1,7.7c7.8,0.82,15.27-1.72,21.49-6.39c6.34-4.76,11.26-11.09,15.84-17.48
			c5.07-7.09,9.72-14.59,12.7-22.82c2.81-7.79,4.1-16.2,4.27-24.46c0.1-4.9-0.29-9.79-0.44-14.68c-0.18-5.52-0.25-11.03-0.27-16.55
			c-0.04-15.11,0.39-30.23,0.99-45.33c0.19-4.61,0.39-9.21,0.61-13.82c0.05-0.96-1.45-0.96-1.5,0c-0.78,16.3-1.38,32.62-1.56,48.94
			c-0.12,10.96-0.05,21.93,0.46,32.88c0.28,5.94,0.3,11.84-0.49,17.76c-1.19,8.93-3.94,17.38-8.31,25.26
			c-4.04,7.28-8.94,14.3-14.35,20.62c-5.08,5.94-11.22,11.4-18.85,13.67c-13.89,4.13-27.64-4.2-38.17-12.48
			c-4.1-3.22-7.86-6.73-11.15-10.8c-3.38-4.19-6.23-8.8-8.65-13.61c-5.04-10.05-8.17-20.98-10.21-32.01
			c-2.03-10.98-2.96-22.15-3.2-33.31c-0.21-9.54,0.1-19.08,0.84-28.59c0.46-6,1.09-12,1.94-17.96c0.1-0.7,0.2-1.4,0.31-2.1
			C166.2,233.3,164.75,232.89,164.61,233.85L164.61,233.85z"/>
	</g>
</g>
<g>
	<g>
		<path d="M279.15,229.48c-1.47-5.02,3.51-8.94,7.22-11.3c5.17-3.29,10.97-5.56,16.75-7.51c6.24-2.12,12.6-3.91,19.09-5.05
			c10.5-1.85,21.28-2.11,31.86-0.83c9.41,1.14,18.89,3.54,27.77,6.88c4.01,1.51,8.08,3.37,11.37,6.17c1.74,1.48,3.28,3.24,3.78,5.53
			c0.46,2.08-0.02,4.25-0.96,6.13c-2.03,4.08-5.92,6.92-9.76,9.18c-3.99,2.34-8.33,4-12.83,5.06c-9,2.12-18.41,1.91-27.55,0.87
			c-20.47-2.32-40.67-8.23-59.18-17.27c-2.3-1.12-4.57-2.3-6.82-3.52c-0.85-0.46-1.61,0.83-0.76,1.3
			c19.24,10.42,40.31,17.28,61.96,20.38c9.49,1.36,19.18,2.02,28.69,0.49c4.6-0.74,9.12-2.03,13.36-3.98
			c4.28-1.97,8.7-4.64,11.8-8.24c2.6-3.02,4.5-7.09,3.41-11.13c-1.11-4.14-5.06-6.95-8.6-8.97c-3.93-2.23-8.23-3.8-12.53-5.14
			c-4.62-1.44-9.31-2.76-14.05-3.74c-10.95-2.26-22.25-2.84-33.38-1.71c-8.22,0.84-16.24,2.69-24.1,5.18
			c-5.95,1.88-11.88,4.06-17.37,7.05c-4.32,2.35-10.08,5.91-10.88,11.26c-0.17,1.12-0.07,2.24,0.25,3.33
			C277.97,230.8,279.42,230.41,279.15,229.48L279.15,229.48z"/>
	</g>
</g>
<g>
	<g>
		<path d="M319.66,264.33c14.73,5.24,31.22,6.93,46.39,2.49c11.44-3.35,21.96-10.47,27.54-21.23c3.56-6.87,5-14.6,4.95-22.3
			c-0.01-0.96-1.51-0.97-1.5,0c0.07,11.99-3.77,23.7-12.74,31.92c-10.11,9.25-24.29,12.82-37.71,12.64
			c-9.06-0.12-18.01-1.93-26.53-4.97C319.15,262.56,318.75,264.01,319.66,264.33L319.66,264.33z"/>
	</g>
</g>
<g>
	<g>
		<path d="M278.82,224.84c2.55,8.95,7.22,17.23,13.73,23.9c5.46,5.6,12.11,9.95,19.32,12.95c2.53,1.05,5.13,1.94,7.79,2.64
			c0.93,0.25,1.33-1.2,0.4-1.45c-14.11-3.76-26.69-12.64-34.17-25.29c-2.44-4.12-4.31-8.55-5.62-13.15
			C280,223.51,278.56,223.91,278.82,224.84L278.82,224.84z"/>
	</g>
</g>
<g>
	<g>
		<path d="M261.52,101.2c-0.76,16.97-7.06,33.54-17.83,46.69c0.42,0.11,0.84,0.22,1.25,0.33c-1.14-6.87,1.47-13.7,0.79-20.59
			c-0.32-3.2-1.37-6.23-3.42-8.74c-1.87-2.28-4.26-4.18-6.87-5.54c-2.61-1.34-5.52-2.19-8.46-2.15c-3.24,0.04-6.06,1.2-8.67,3.05
			c-6.29,4.44-11.76,10.03-18.51,13.81c-6.19,3.46-13.25,5.83-18.08,11.27c-4.92,5.54-8.43,12.11-12.26,18.4
			c-0.96,1.57-1.86,3.52-3.12,4.87c-0.86,0.92-2.15,1.66-3.27,2.23c-0.58,0.3-0.79,0.42-1.38,0.17c-0.82-0.35-1.62-0.82-2.4-1.25
			c-1.4-0.77-2.78-1.61-4.11-2.49c-5.61-3.69-10.59-8.24-15.24-13.06c-4.67-4.84-9.03-9.96-13.46-15c-2.22-2.53-4.46-5.04-6.77-7.49
			c-1.8-1.9-3.89-4.96-6.81-4.97c-1.55,0-2.99,0.79-4.25,1.6c-0.37,0.24-0.44,0.64-0.27,1.03c3.06,7.03,8.58,12.35,14.53,17
			c3.04,2.38,6.18,4.63,9.24,6.98c1.62,1.25,3.22,2.53,4.77,3.86c1.55,1.34,3.17,2.68,4.34,4.38c2.76,4.03,5,8.52,6.64,13.13
			c0.24-0.32,0.48-0.63,0.72-0.95c-7.43-0.24-14.6-2.69-20.65-7c0,0.43,0,0.86,0,1.3c7.01-3.9,13.54-9.18,18-15.92
			c2.12-3.2,3.75-6.79,4.46-10.58c0.36-1.9,0.51-3.84,0.4-5.77c-0.05-0.87-0.15-1.74-0.28-2.61c-0.2-1.21-0.7-2.44-0.76-3.66
			c-0.12-2.31,0.02-4.62-0.17-6.93c-0.15-1.88-0.39-3.77-0.79-5.62c-0.56-2.6-1.44-5.6-3.45-7.47c-4.28-3.97-10.03,1.54-12.46,5.06
			c-0.52,0.76-2.28,3.62-0.22,3.77c1.17,0.09,2.55-1.19,3.42-1.81c4.72-3.34,9.36-6.81,14.68-9.16c6.17-2.72,13.33-3.6,18.83,1.06
			c3.02,2.56,5.12,6.05,6.75,9.62c0.92,2.03,1.69,4.12,2.36,6.24c0.29,0.93,0.55,1.64,0.42,2.61c-0.1,0.73-0.2,1.45-0.29,2.18
			c-1.56,12.04-2.49,27.75,8.37,35.98c1.37,1.04,2.86,1.88,4.42,2.58c-0.05-0.39-0.1-0.79-0.15-1.18c-1.17,1.16-2.38,2.12-3.85,2.88
			c0.38,0.22,0.75,0.43,1.13,0.65c0-1.18-0.11-2.28-0.53-3.39c-0.24,0.32-0.48,0.63-0.72,0.95c1.43-0.01,2.83,0.09,4.22,0.44
			c-0.17-0.31-0.35-0.62-0.52-0.92c-0.55,1.41-0.96,2.97-1.97,4.14c0.43,0.18,0.85,0.35,1.28,0.53c0.04-1.11,0.44-3.27,1.61-3.75
			c-0.31-0.31-0.62-0.62-0.92-0.92c-1.64,5.47-7.62,7.71-12.4,9.68c-4.78,1.98-9.17,4.91-10.83,10.06c-1.61,5-0.55,10.22,2.48,14.44
			c3,4.18,7.22,7.29,11.34,10.29c5.44,3.97,11.33,7.94,15.4,13.4c1.82,2.45,3.13,5.21,4.18,8.07c0.86,2.36,1.3,5.19,2.83,7.24
			c2.36,3.16,6.69,3.84,10.38,3.97c4.26,0.15,8.48-0.51,12.72-0.78c8.98-0.58,22.92,1.24,24.15,12.38c0.08,0.7,0.99,1.07,1.4,0.38
			c0.77-1.31,4.67-7.77,1.75-8.49c-2.77-0.68-3.05,6.51-3.14,8.11c-0.05,0.76,1.03,0.99,1.4,0.38c5.4-9.15,10.8-18.29,16.2-27.44
			c0.49-0.83-0.8-1.59-1.3-0.76c-5.4,9.15-10.8,18.29-16.2,27.44c0.47,0.13,0.93,0.25,1.4,0.38c0.06-1.06,0.2-2.12,0.37-3.16
			c0.13-0.75,0.27-1.51,0.49-2.25c0.09-0.3,0.53-1.21,0.52-1.26c-0.01-0.03-0.23-0.07-0.23-0.07c-0.03,0.04,0.03,0.23,0.01,0.3
			c-0.08,0.27-0.1,0.56-0.17,0.84c-0.21,0.76-0.52,1.49-0.84,2.21c-0.47,1.03-0.98,2.04-1.55,3.01c0.47,0.13,0.93,0.25,1.4,0.38
			c-0.5-4.48-2.86-8.14-6.77-10.41c-3.87-2.25-8.46-3.06-12.87-3.38c-4.01-0.3-7.89,0.1-11.88,0.44c-4.18,0.36-8.88,0.79-12.87-0.79
			c-1.72-0.69-3.2-1.89-3.93-3.63c-1.15-2.77-1.83-5.7-3.05-8.45c-2.74-6.16-7.6-10.69-12.85-14.74c-4.46-3.44-9.28-6.49-13.4-10.35
			c-3.77-3.54-6.87-8-6.63-13.39c0.14-3.21,1.31-6.33,3.58-8.64c2.12-2.15,4.88-3.45,7.64-4.58c5.11-2.09,10.98-4.68,12.71-10.43
			c0.15-0.5-0.38-1.14-0.92-0.92c-1.93,0.79-2.64,3.28-2.71,5.2c-0.02,0.62,0.85,1.02,1.28,0.53c1.2-1.38,1.7-3.13,2.35-4.8
			c0.14-0.37-0.16-0.83-0.52-0.92c-1.52-0.38-3.06-0.5-4.62-0.49c-0.45,0-0.9,0.48-0.72,0.95c0.38,1,0.47,1.93,0.47,2.99
			c0,0.59,0.63,0.91,1.13,0.65c1.58-0.82,2.89-1.86,4.15-3.12c0.31-0.31,0.3-0.98-0.15-1.18c-5.94-2.65-9.86-7.58-11.61-13.79
			c-1.69-6.01-1.55-12.43-0.99-18.59c0.14-1.53,0.31-3.06,0.51-4.59c0.18-1.44,0.63-2.93,0.21-4.34c-1.13-3.78-2.53-7.51-4.49-10.94
			c-3.25-5.7-8.33-10.36-15.18-10.53c-5.97-0.15-11.74,2.62-16.72,5.66c-2.29,1.4-4.5,2.94-6.67,4.51c-1.4,1.01-2.79,2.19-4.34,2.96
			c-0.03,0.01-0.42,0.15-0.42,0.16c0.02-0.1,0.47,0.32,0.53,0.28c0.14-0.09,0.37-0.85,0.48-1.02c0.3-0.52,0.64-1.01,1.01-1.48
			c1.58-2.04,3.86-4.35,6.48-4.91c2.37-0.51,3.88,1.35,4.8,3.29c1.46,3.06,1.91,6.64,2.15,9.99c0.16,2.26,0.01,4.51,0.13,6.76
			c0.05,0.91,0.43,1.81,0.61,2.7c0.22,1.04,0.36,2.09,0.43,3.15c0.24,3.77-0.52,7.54-2.03,11c-3.12,7.14-8.98,12.9-15.34,17.23
			c-1.54,1.05-3.12,2.02-4.75,2.92c-0.53,0.29-0.44,0.98,0,1.3c6.26,4.47,13.73,6.96,21.41,7.21c0.46,0.01,0.89-0.5,0.72-0.95
			c-1.44-4.06-3.34-7.99-5.6-11.65c-1.07-1.73-2.18-3.26-3.67-4.65c-1.5-1.4-3.07-2.73-4.67-4.02c-6.09-4.89-12.77-9.11-18.29-14.68
			c-3.1-3.12-5.68-6.67-7.44-10.71c-0.09,0.34-0.18,0.68-0.27,1.03c1.29-0.83,2.9-1.79,4.48-1.23c1.52,0.55,2.72,2.22,3.81,3.36
			c2.28,2.38,4.49,4.83,6.68,7.3c4.37,4.94,8.63,9.98,13.16,14.78c4.39,4.65,9.04,9.08,14.21,12.85c2.49,1.81,5.09,3.47,7.82,4.9
			c0.98,0.52,2.03,1.35,3.17,1.01c1.16-0.35,2.26-1.11,3.24-1.81c2.59-1.85,4.01-4.99,5.62-7.67c1.89-3.14,3.72-6.32,5.71-9.39
			c1.98-3.05,4.13-5.99,6.66-8.61c2.5-2.61,6.01-4.37,9.2-5.99c3.09-1.57,6.25-3,9.2-4.83c2.99-1.85,5.75-4.07,8.47-6.29
			c3-2.45,5.96-4.98,9.2-7.13c2.75-1.82,5.99-2.52,9.26-2.04c6.88,1.03,13.52,6.44,14.79,13.42c1.35,7.43-1.78,14.88-0.55,22.34
			c0.09,0.54,0.91,0.75,1.25,0.33c11.04-13.47,17.49-30.35,18.27-47.75C263.07,100.24,261.57,100.24,261.52,101.2L261.52,101.2z"/>
	</g>
</g>
<g>
	<g>
		<path d="M165.93,234.34c0.26-5.86,1.36-12.94,6.28-16.81c6.33-4.98,14.79-0.94,20.75,2.6c0-0.43,0-0.86,0-1.3
			c-5.58,3.8-14.28,12.07-9.5,19.41c4.37,6.7,13.9,4.39,19.35,0.44c4.27-3.1,7.51-7.95,8.1-13.24c0.06-0.51-0.52-0.82-0.95-0.72
			c-6.68,1.51-9.81,8.98-7.64,15.19c1.08,3.09,3.47,5.44,5.51,7.91c1.87,2.27,4.15,5.3,2.29,8.24c-3.41,5.39-12.92,6.61-17.46,2.11
			c-2.49-2.47-3.2-6.38-1.38-9.43c1.69-2.83,5.22-4.48,8.42-3.36c3.85,1.35,5.38,5.46,3.65,9.06c-1.57,3.26-5.11,5.35-8.67,4.12
			c0.11,0.42,0.22,0.84,0.33,1.25c5.51-6.04,14.81-2.32,21.53-5.8c6.34-3.28,8.66-11.4,4.8-17.46c-1.33-2.08-3.81-5.41-6.6-5.19
			c-1.3,0.1-2.35,1.16-2.55,2.43c-0.23,1.43,0.55,2.89,1.35,4.01c3.99,5.61,11.55,6.53,17.41,3.29c2.77-1.53,5.07-4.07,5.65-7.24
			c0.54-2.96-0.21-6.17-2.17-8.47c-1.96-2.3-5.58-3.58-8.45-2.27c-3.51,1.6-1.17,5.39,1.03,6.98c5.81,4.19,14.54,1.22,16.11-5.86
			c1.58-7.16-3.69-13.03-10.05-15.35c-3.63-1.32-7.61-1.69-11.45-1.42c-3.12,0.22-7.37,0.59-9.61,3.07
			c-2.35,2.6-0.27,6.15,2.41,7.49c2.87,1.42,6.39,0.9,8.19-1.91c1.58-2.47,0.96-5.69-0.2-8.2c-1.31-2.84-3.5-5.15-6.49-6.16
			c-4.18-1.41-8.72-0.51-12.87,0.54c-4.34,1.1-8.57,2.28-13.08,2.36c-7.98,0.15-15.93-2.85-20.1-9.97
			c-3.09-5.26-4.14-12.15-1.81-17.9c2.65-6.53,9.84-9.82,16.62-8.41c3.86,0.8,7.47,3.01,9.44,6.5c1.96,3.45,1.51,7.57-1.52,10.23
			c-5.52,4.86-13.78,2.12-17.77-3.21c-3.77-5.02-5.15-12.19-3.17-18.19c2.22-6.75,8.43-11.32,15.08-13.1
			c6.74-1.81,14.15-1.25,20.66,1.22c4.52,1.71,8.65,4.37,12.36,7.43c0.05-0.39,0.1-0.79,0.15-1.18
			c-15.58,10.93-35.67,3.05-52.5,9.93c-6.69,2.73-13.71,8.22-13.85,16.09c-0.06,3.5,1.16,7.03,3.91,9.29
			c2.59,2.12,5.97,2.94,9.25,3.14c2.33,0.14,4.62-0.1,6.92-0.48c2.69-0.44,5.44-1.04,8.18-0.73c4.95,0.56,9.45,5.6,6.62,10.51
			c-0.27,0.47,0.07,1.16,0.65,1.13c1.23-0.08,4.91-0.08,4.87-1.95c-0.03-1.14-1.35-1.51-2.27-1.32c-1.15,0.25-2.4,1.07-3.13,1.99
			c-0.36,0.45-0.19,1.34,0.53,1.28c10.44-0.82,22.57-4.5,28.82-13.56c2.51-3.64,4.22-8.46,3.44-12.91c-0.76-4.33-4.58-7.7-9.06-7.42
			c-3.78,0.23-7.62,3-7.77,7.03c-0.16,4.19,3.6,7.42,7.18,8.8c4.26,1.64,9.12,1.52,13.57,0.96c4.23-0.53,8.36-1.55,12.41-2.84
			c4.21-1.35,10.27-3.63,10.73-8.81c0.34-3.86-3.17-9.83-7.49-6.69c-0.63,0.46-0.29,1.68,0.58,1.37c4.46-1.58,9.03-2.84,13.63-3.94
			c3.93-0.94,7.75-2.33,11.73-3.07c3.52-0.65,7.36-0.76,10.56,1.08c1.81,1.04,3.28,2.44,3.82,4.5c0.47,1.82,0.15,3.69-0.67,5.35
			c-1.8,3.68-5.27,6.4-8.42,8.87c0.35,0.35,0.71,0.71,1.06,1.06c11.05-10.22,19.89-22.78,25.76-36.64c1.65-3.9,3.07-7.9,4.25-11.97
			c-0.46,0.06-0.91,0.12-1.37,0.18c6.35,10.41,0.99,23.41-6.85,31.42c-4.24,4.33-9.82,7.04-14.06,11.33
			c-3.35,3.39-5.17,8.2-2.17,12.44c1.19,1.68,2.95,3.25,5.02,3.69c2.29,0.48,4.08-0.82,5.08-2.81c0.32-0.64-0.35-1.44-1.03-1.03
			c-4.38,2.67-10.07,4.18-13.05,8.67c-1.36,2.04-1.84,4.79-0.86,7.09c0.93,2.19,3.03,3.52,5.18,4.34c2.59,0.98,5.42,1.32,8.18,1.43
			c-0.13-0.47-0.25-0.93-0.38-1.4c-3.46,1.57-7.11,3.06-10.92,3.46c-1.81,0.19-3.65,0.13-5.42-0.32c-1.74-0.45-3.09-1.33-4.36-2.56
			c-4.17-4.05-5.3-10.04-5.74-15.6c-0.45-5.73,0.14-11.78-1.53-17.33c-1.65-5.5-5.15-10.29-9.78-13.67
			c-5.13-3.76-11.55-5.64-17.89-5.21c0.22,0.38,0.43,0.75,0.65,1.13c0.17-0.33,2.22-3.78,2.76-3.09c0.19,0.25-0.41,0.82-0.57,0.96
			c-0.83,0.68-2,0.89-3.04,1.04c0.28,0.37,0.56,0.73,0.85,1.1c3.73-7.71,7.87-16.27,5.82-25.05c-1.52-6.52-6.56-12.69-13.62-13.05
			c-0.5-0.03-0.83,0.5-0.72,0.95c4.59,18.75,3.12,38.8-3.99,56.74c-2.07,5.23-4.65,10.26-7.66,15.02c0.46,0.19,0.91,0.39,1.37,0.58
			c1.97-13.44-2.63-27.81-10.86-38.45c-4.26-5.51-9.83-10.1-16.2-12.99c-3.45-1.57-7.25-2.44-11.02-1.58
			c-1.41,0.32-4.25,1.05-4.79,2.53c-0.71,1.96-0.83,4.34-0.85,6.4c-0.02,2.38,0.23,4.75,0.47,7.11c0.12,1.21,0.24,2.42,0.32,3.63
			c0.07,1.15,0.27,2.47,0.01,3.61c-0.2,0.9-0.76,1.71-1.53,2.22c-0.37,0.25-0.8,0.43-1.24,0.47c-0.12,0.01-0.29,0.04-0.42,0.02
			c-0.35-0.08-0.37-0.24-0.63-0.15c-0.42,0.15,0.44,0.22,0.52,0.23c0.28,0.05,0.56,0.13,0.84,0.14c0.28,0.01-0.16-0.11-0.21-0.16
			c0.11,0.1,0.23,0.22,0.32,0.34c0.26,0.35,0.56,0.65,0.75,1.06c0.22-0.38,0.43-0.75,0.65-1.13c-0.81-0.09-1.62-0.19-2.43-0.32
			c-0.32-0.05-0.73-0.22-1.06-0.21c-0.01,0-0.25-0.07-0.26-0.07c-0.09,0.05-0.21,1.08-0.11,1.14c0.06,0.04,0.4-0.04,0.49-0.04
			c0.55-0.02,1.11,0.02,1.65,0.11c0.26,0.05,0.52,0.16,0.78,0.19c0.31,0.04,0.18,0.27,0.18-0.06c0.25-0.25,0.5-0.5,0.75-0.75
			c-7.61-0.84-15.87-1.62-23.1,1.5c-3.55,1.53-6.89,4.13-8.7,7.61c-1.8,3.46-1.89,7.42-1.61,11.22c0.34,4.55,1.23,9.2,0.26,13.73
			c0.37-0.15,0.73-0.3,1.1-0.45c-7.73-4.97-20.17-11.07-27.15-1.71c-0.35,0.46,0.12,1.14,0.65,1.13
			c12.18-0.28,24.37-0.55,36.55-0.83c-0.18-0.43-0.35-0.85-0.53-1.28c-1.57,1.93-3.53,2.83-5.98,2.11
			c-2.11-0.62-3.97-1.96-5.73-3.24c-1.8-1.31-3.75-2.54-5.43-3.99c-1.68-1.45-3.29-2.98-4.89-4.53
			c-6.37-6.16-12.85-13.38-21.43-16.43c-4.67-1.66-9.61-1.52-14.22,0.27c-0.62,0.24-0.8,1.29,0,1.45c2.03,0.41,4.38,1,6.47,0.67
			c0.87-0.14,1.79-0.81,1.11-1.74c-0.57-0.78-1.9-0.96-2.77-1.06c-1.63-0.18-3.3,0.06-4.81,0.69c-0.61,0.25-0.81,1.28,0,1.45
			c7.02,1.45,13.89,3.52,20.66,5.88c5.68,1.98,11.22,4.34,16.92,6.23c3.64,1.21,7.39,2.3,10.75,4.2c2.94,1.66,5.73,4.26,4.93,7.95
			c-0.62,2.89-2.67,5.26-4.69,7.29c-2.31,2.32-4.79,4.47-6.55,7.26c-0.41,0.65,0.39,1.38,1.03,1.03c2.12-1.18,4.3-2.23,6.03-3.96
			c0.52-0.52,0-1.47-0.73-1.25c-2.43,0.73-4.51,2.16-6.21,4.04c-0.54,0.6,0.17,1.69,0.91,1.18c10.22-7.04,21.61-12.07,33.22-16.34
			c2.96-1.09,5.93-2.13,8.91-3.15c1.42-0.49,2.85-0.97,4.28-1.45c1.54-0.52,3.19-1.3,4.79-1.55c0.94-0.15,1.99-0.23,2.94-0.24
			c0.51,0,1.07-0.01,1.53,0.25c0.63,0.35,0.6,0.92,0.65,1.57c0.18,2.32,0.03,4.65,0.03,6.98c0.01,4.03,0.77,8.17,4.72,10.12
			c1.04,0.52,2.22,0.72,3.3,1.19c1.19,0.53,2.32,1.2,3.38,1.97c2.05,1.5,3.8,3.41,5.41,5.36c2.93,3.53,5.35,7.97,9.88,9.63
			c3.84,1.4,7.96,0.19,11.25-1.99c4.03-2.66,7.26-6.63,9.49-10.88c1.09-2.08,2.14-4.38,2.17-6.77c0.04-3.29-1.68-6.31-2.77-9.33
			c-0.19-0.53-0.83-0.75-1.25-0.33c-1.91,1.86-1.14,4.86,1.42,5.65c0.87,0.27,1.89,0.04,2.08-0.97c0.32-1.67-1.49-3.54-2.44-4.67
			c-0.27-0.32-0.78-0.25-1.06,0c-2.38,2.18-2.81,5.26-2.75,8.34c0.03,1.35,0.69,2.74,1.25,3.94c0.64,1.36,1.43,2.64,2.39,3.79
			c1.83,2.2,4.15,3.5,7.02,3.66c2.8,0.15,5.61-0.72,7.92-2.29c4.61-3.14,7.75-9.18,6.9-14.82c-0.55-3.68-2.49-7.32-4.44-10.44
			c-1.73-2.77-3.75-5.18-5.97-7.56c-3.78-4.06-9.51-9.56-7.91-15.73c1.47-5.66,4.52-10.67,8.71-14.72
			c8.39-8.13,19.77-12.42,30.31-16.97c0.58-0.25,1.26-0.45,1.8-0.78c0.65-0.4,0.69-1.21,0.85-1.92c0.36-1.63,0.56-3.31,0.58-4.98
			c0.05-3.35-0.6-6.69-1.67-9.85c-2.23-6.58-6.12-12.46-10.08-18.12c-0.98-1.41-1.98-2.81-2.96-4.22c-0.55-0.78-1.85-0.04-1.3,0.76
			c7.25,10.35,17.04,22.69,13.93,36.21c-0.21,0.9-0.33,0.92-1.16,1.28c-0.5,0.22-1.01,0.43-1.51,0.65
			c-1.33,0.57-2.66,1.14-3.99,1.71c-2.5,1.08-5,2.17-7.47,3.34c-4.98,2.35-9.89,4.97-14.28,8.32c-4.14,3.15-7.82,6.96-10.32,11.55
			c-1.25,2.3-2.23,4.81-2.89,7.34c-0.62,2.42-0.24,4.9,0.75,7.16c2.3,5.28,6.97,8.98,10.55,13.34c2.34,2.84,4.34,6.24,5.71,9.65
			c1.3,3.23,1.77,6.34,0.73,9.71c-1.82,5.94-7.98,11.27-14.51,9.63c-3.16-0.79-5.31-3.98-6.55-6.79c-1.43-3.23-1.35-7.62,1.41-10.15
			c-0.35,0-0.71,0-1.06,0c0.55,0.66,1.09,1.33,1.52,2.07c0.21,0.36,0.3,0.8,0.51,1.15c0.13,0.23,0.03-0.03,0.1,0
			c0.04,0.02-0.3-0.07-0.43-0.12c-1.41-0.58-1.71-2.05-0.64-3.09c-0.42-0.11-0.84-0.22-1.25-0.33c0.97,2.7,2.53,5.42,2.7,8.34
			c0.13,2.34-0.89,4.57-1.95,6.6c-2.01,3.85-4.87,7.47-8.44,9.99c-3.27,2.31-7.42,3.69-11.25,1.92c-2.29-1.06-3.77-2.89-5.29-4.82
			c-1.53-1.95-3.03-3.94-4.7-5.78c-1.54-1.71-3.24-3.3-5.18-4.56c-0.93-0.61-1.91-1.12-2.93-1.55c-1.19-0.5-2.5-0.73-3.6-1.41
			c-3.87-2.41-3.27-7.63-3.21-11.56c0.02-1.06,0.02-2.13-0.03-3.19c-0.05-0.97,0.02-2.11-0.64-2.88c-1.33-1.57-3.64-1.05-5.43-0.9
			c-2.67,0.22-5.38,1.51-7.92,2.37c-2.85,0.96-5.69,1.94-8.51,2.95c-12.6,4.52-25.04,9.79-36.11,17.41c0.3,0.39,0.61,0.79,0.91,1.18
			c1.53-1.69,3.35-2.99,5.55-3.65c-0.24-0.42-0.49-0.84-0.73-1.25c-1.64,1.64-3.73,2.62-5.73,3.73c0.34,0.34,0.68,0.68,1.03,1.03
			c3.16-4.98,8.92-7.97,11.03-13.67c1.33-3.6,0.02-6.98-2.9-9.3c-3.09-2.46-6.99-3.79-10.69-5.02c-5.27-1.75-10.43-3.79-15.65-5.69
			c-8.08-2.94-16.28-5.58-24.71-7.32c0,0.48,0,0.96,0,1.45c1.08-0.45,2.22-0.7,3.4-0.7c0.86,0,1.57,0.29,2.39,0.42
			c0.1,0.02,0.2,0.12,0.21,0.12c-0.09,0.06,0.01-0.82,0.13-0.71c0.01,0.01-0.7,0.1-0.82,0.1c-1.78,0.05-3.58-0.33-5.31-0.68
			c0,0.48,0,0.96,0,1.45c4.39-1.71,8.98-1.85,13.42-0.27c4.39,1.56,8.23,4.44,11.71,7.47c3.57,3.1,6.86,6.49,10.28,9.75
			c1.59,1.52,3.19,3.21,5.02,4.44c1.86,1.26,3.63,2.64,5.48,3.92c1.89,1.31,3.99,2.59,6.31,2.88c2.49,0.31,4.58-0.87,6.11-2.77
			c0.38-0.47,0.17-1.3-0.53-1.28c-12.18,0.28-24.37,0.55-36.55,0.83c0.22,0.38,0.43,0.75,0.65,1.13c6.35-8.53,18.24-2.16,25.1,2.25
			c0.39,0.25,1,0.01,1.1-0.45c1.59-7.43-1.85-15.15,0.34-22.46c2.38-7.95,11.32-10.84,18.77-11.17c4.2-0.19,8.41,0.22,12.58,0.67
			c0.41,0.04,0.75-0.38,0.75-0.75c0.01-1.82-3.42-1.88-4.63-1.71c-0.81,0.12-1.64,0.9-0.72,1.59c0.34,0.26,0.87,0.33,1.27,0.41
			c1.1,0.22,2.22,0.34,3.33,0.46c0.62,0.07,0.86-0.68,0.65-1.13c-0.48-1.01-1.18-1.83-2.27-2c-0.85-0.13-2.14-0.54-2.54,0.54
			c-0.47,1.25,0.69,2.16,1.8,2.25c1.35,0.11,2.68-0.57,3.57-1.56c1.13-1.26,1.35-2.75,1.31-4.38c-0.05-2.29-0.31-4.56-0.54-6.83
			c-0.22-2.22-0.41-4.44-0.32-6.67c0.05-1.24,0.19-2.48,0.44-3.69c0.1-0.48,0.13-1.09,0.48-1.46c0.43-0.45,1.6-0.81,2.13-1.01
			c4.27-1.54,8.74-0.37,12.64,1.63c3.43,1.76,6.72,3.97,9.55,6.58c5.42,5,9.5,11.44,12.2,18.28c3.01,7.63,4.51,16.08,3.31,24.25
			c-0.12,0.81,0.89,1.34,1.37,0.58c10.57-16.75,15.57-36.83,14.31-56.58c-0.35-5.5-1.2-10.97-2.51-16.33
			c-0.24,0.32-0.48,0.63-0.72,0.95c6.66,0.34,11.16,6.57,12.33,12.67c1.56,8.13-2.38,16.07-5.82,23.18c-0.31,0.63,0.2,1.19,0.85,1.1
			c1.58-0.22,6.05-1.73,4.48-4.23c-0.49-0.78-1.45-0.85-2.24-0.51c-1.48,0.63-2.41,2.28-3.09,3.64c-0.23,0.47,0.04,1.17,0.65,1.13
			c12.23-0.84,23.97,7.43,26.68,19.51c0.65,2.89,0.6,5.94,0.7,8.89c0.1,3.01,0.21,6.02,0.59,9c0.67,5.36,2.3,10.85,6.51,14.52
			c6.24,5.45,15.35,2.1,21.93-0.89c0.72-0.33,0.3-1.37-0.38-1.4c-4.66-0.19-13.46-1.41-12.27-8.01c0.55-3.04,3.18-5.06,5.68-6.54
			c2.57-1.52,5.35-2.63,7.9-4.18c-0.34-0.34-0.68-0.68-1.03-1.03c-0.99,1.96-2.64,2.71-4.65,1.66c-1.68-0.87-3.14-2.51-3.82-4.28
			c-2.07-5.36,3.45-9.69,7.21-12.42c4.56-3.32,9.06-6.53,12.54-11.04c3.13-4.05,5.62-8.73,6.73-13.75
			c1.23-5.58,0.55-11.31-2.45-16.23c-0.34-0.55-1.19-0.45-1.37,0.18c-4.12,14.28-11.3,27.63-20.95,38.94
			c-2.71,3.17-5.61,6.18-8.67,9.01c-0.73,0.67,0.32,1.64,1.06,1.06c3.11-2.44,6.38-5.08,8.34-8.58c1.74-3.11,2.14-7.5-0.52-10.26
			c-6.12-6.35-15.3-3.58-22.62-1.34c-2.78,0.85-5.67,1.39-8.49,2.15c-2.97,0.8-5.91,1.7-8.81,2.72c0.19,0.46,0.39,0.91,0.58,1.37
			c3.51-2.55,5.93,3.37,5.05,6.16c-1.22,3.88-5.98,5.48-9.45,6.59c-6.95,2.22-14.82,4.12-22.12,2.74c-3.54-0.67-7.36-2.46-8.76-6.03
			c-1.43-3.63,1.49-6.91,4.98-7.59c4.01-0.78,7.67,2.01,8.46,5.92c0.8,3.94-0.78,8.27-2.9,11.55c-2.75,4.25-7.28,7.31-11.82,9.38
			c-5.03,2.29-10.54,3.49-16.03,3.93c0.18,0.43,0.35,0.85,0.53,1.28c0.39-0.48,0.9-0.86,1.43-1.17c0.34-0.19,0.7-0.27,1.04-0.43
			c0.33-0.16,0.65-0.27,0.09-0.16c-1.04,0.21-2.03,0.41-3.09,0.48c0.22,0.38,0.43,0.75,0.65,1.13c1.89-3.28,1.16-7.15-1.48-9.8
			c-3.14-3.15-7.49-3.32-11.65-2.73c-4.23,0.6-8.35,1.49-12.63,0.63c-3.33-0.67-6.49-2.36-7.96-5.56
			c-3.78-8.2,3.27-15.58,10.13-18.92c8.01-3.9,17.23-3.87,25.94-4.06c9.94-0.22,20.16-0.86,28.58-6.76
			c0.36-0.25,0.55-0.85,0.15-1.18c-6.04-4.97-13-8.7-20.82-9.77c-6.31-0.87-12.98-0.2-18.74,2.64c-5.46,2.69-10.06,7.67-11.46,13.7
			c-1.32,5.65-0.13,11.99,3.01,16.86c3.18,4.93,8.63,8.18,14.61,7.35c6.69-0.93,11.41-7.33,8.5-13.84
			c-2.89-6.46-10.64-9.43-17.33-8.33c-5.8,0.96-10.51,5.02-12.34,10.59c-1.76,5.37-0.95,11.45,1.48,16.48
			c3.03,6.28,8.88,10.43,15.68,11.75c3.72,0.72,7.54,0.69,11.28,0.15c4.15-0.6,8.11-2.04,12.23-2.8c3.77-0.69,8.47-0.88,11.49,1.91
			c2.1,1.93,3.7,4.95,3.65,7.84c-0.07,3.6-3.51,5.53-6.74,4.08c-1.51-0.68-3.15-2.27-2.81-4.09c0.3-1.64,2.31-2.44,3.71-2.85
			c6.77-2.01,15.8-1.38,21.4,3.24c2.54,2.09,4.2,5.07,4.28,8.4c0.08,3.22-1.41,6.28-4.25,7.91c-3.25,1.86-7.73,1.44-10.5-1.12
			c-1.24-1.15-2.4-3.21-0.17-3.93c1.57-0.5,3.44-0.14,4.82,0.71c2.57,1.58,3.73,4.86,3.46,7.77c-0.32,3.37-2.79,5.93-5.75,7.34
			c-3.01,1.43-6.68,1.79-9.84,0.66c-1.43-0.51-2.66-1.35-3.71-2.44c-0.98-1.03-2.37-2.61-2.3-4.14c0.1-2.15,2.41-1.19,3.39-0.39
			c1.09,0.89,2.04,2.02,2.82,3.18c1.93,2.86,2.46,6.47,1.27,9.73c-1.25,3.42-4.21,5.9-7.67,6.87c-3.49,0.97-7.17,0.7-10.73,1.13
			c-3.34,0.4-6.45,1.46-8.77,4.01c-0.39,0.43-0.21,1.07,0.33,1.25c6.7,2.31,13.73-5.62,10.58-12.02c-1.62-3.29-5.56-5.05-9.1-4.26
			c-3.41,0.77-6.22,3.7-6.87,7.13c-0.68,3.58,0.99,7.27,3.9,9.38c2.83,2.05,6.57,2.5,9.94,1.91c3.48-0.61,7.44-2.64,9.04-5.95
			c1.54-3.21-0.41-6.34-2.39-8.83c-2.75-3.46-6.1-6.49-6.24-11.22c-0.14-4.63,2.58-8.91,7.22-9.96c-0.32-0.24-0.63-0.48-0.95-0.72
			c-0.85,7.71-7.85,14.06-15.31,15.36c-3.1,0.54-6.48,0.05-8.66-2.41c-2.63-2.96-2.07-6.61-0.15-9.78c2.05-3.4,5.15-6.27,8.42-8.49
			c0.46-0.31,0.51-0.99,0-1.3c-6.46-3.84-15.33-7.81-22.21-2.64c-5.49,4.12-6.78,11.73-7.07,18.15
			C164.38,235.3,165.88,235.3,165.93,234.34L165.93,234.34z"/>
	</g>
</g>
<g>
	<g>
		<path d="M183.01,287.36c2.08-4.13,5.89-6.99,10.28-8.3c4.73-1.41,9.76-1.12,14.55-0.18c2.9,0.57,5.75,1.37,8.6,2.16
			c0.62,0.17,0.89-0.79,0.27-0.96c-9.48-2.65-21-5.54-29.66,0.97c-2.05,1.54-3.74,3.51-4.9,5.8
			C181.86,287.42,182.72,287.93,183.01,287.36L183.01,287.36z"/>
	</g>
</g>
<g>
	<g>
		<path d="M256.18,278.93c-4.73,1.47-9.62-0.48-14.44-0.13c-2.04,0.15-4.1,0.66-5.76,1.91c-1.6,1.2-2.62,2.94-3.26,4.81
			c-0.71,2.1-0.97,4.32-1.29,6.5c-0.38,2.65-0.76,5.29-1.14,7.94c-0.67,4.66-0.97,9.8-3.33,13.99c-1.19,2.11-3.34,3.72-4.1,6.06
			c-0.56,1.71-0.15,4,1.61,4.83c0.58,0.27,1.09-0.59,0.5-0.86c-1.66-0.78-1.58-3.01-0.84-4.42c0.98-1.87,2.65-3.26,3.69-5.1
			c2.2-3.91,2.61-8.54,3.23-12.89c0.36-2.52,0.73-5.05,1.09-7.57c0.32-2.19,0.56-4.4,1.06-6.56c0.46-1.94,1.19-3.9,2.65-5.32
			c1.46-1.43,3.48-2.08,5.48-2.28c5.04-0.49,10.12,1.6,15.09,0.06C257.05,279.7,256.79,278.74,256.18,278.93L256.18,278.93z"/>
	</g>
</g>
<g>
	<g>
		<path d="M221.89,347.92c0.32-0.56,1.11-0.56,1.62-0.27c0.76,0.43,0.89,1.47,0.8,2.26c-0.09,0.71-0.47,1.53-1.19,1.8
			c-0.27,0.1-0.51,0.05-0.65-0.26c-0.2-0.43-0.21-1-0.22-1.46c-0.02-1.22,0.3-2.42,0.9-3.47c0.32-0.56-0.54-1.06-0.86-0.5
			c-0.71,1.23-1.08,2.65-1.04,4.07c0.02,0.65,0.06,1.42,0.42,1.98c0.33,0.52,0.9,0.77,1.5,0.66c1.12-0.21,1.91-1.38,2.09-2.43
			c0.21-1.22,0-2.67-1.1-3.43c-0.97-0.67-2.51-0.54-3.13,0.54C220.71,347.97,221.57,348.47,221.89,347.92L221.89,347.92z"/>
	</g>
</g>
<g>
	<g>
		<path d="M204.9,295.05c-0.02-0.4,0.26-0.64,0.65-0.61c-0.17-0.17-0.33-0.33-0.5-0.5c0.2,3.09-1.72,6.02-1.07,9.11
			c0.45,2.17,2.12,4.35,4.56,3.96c0.23-0.04,0.35-0.28,0.37-0.48c0.36-3.74-0.13-7.55-1.45-11.07c-0.37-0.99-1.12-3.75-2.68-3.12
			c-0.61,0.25-0.78,0.92-0.84,1.51c-0.1,0.99-0.12,1.99-0.13,2.98c-0.03,2.31,0.14,4.6,0.45,6.89c0.06,0.47,0.7,0.42,0.91,0.12
			c1.63-2.29,2.07-5.28,1.21-7.96c-0.15-0.47-0.82-0.48-0.96,0c-0.85,2.8-0.61,5.79,0.61,8.45c0.18,0.39,0.83,0.29,0.91-0.12
			c0.48-2.26,0.38-4.57-0.32-6.78c-0.13-0.42-0.89-0.52-0.96,0c-0.36,2.62,0.1,5.24,1.37,7.57c0.22,0.41,0.77,0.25,0.91-0.12
			c0.84-2.11,0.56-4.55-0.7-6.43c-0.19-0.29-0.69-0.36-0.86,0c-0.87,1.75-1.04,3.73-0.45,5.6c0.13,0.4,0.69,0.5,0.91,0.12
			c2.15-3.68,0.92-8.75-2.64-11.08c-0.3-0.19-0.62,0.02-0.73,0.3c-1.95,4.84-0.64,10.7,3.14,14.29c0.23,0.22,0.62,0.18,0.79-0.1
			c2.53-4.33,1.77-10.18-1.8-13.72c-0.46-0.45-1.16,0.25-0.71,0.71c3.25,3.22,3.95,8.56,1.64,12.51c0.26-0.03,0.52-0.07,0.79-0.1
			c-3.55-3.36-4.71-8.78-2.89-13.31c-0.24,0.1-0.49,0.2-0.73,0.3c3.11,2.03,4.15,6.51,2.29,9.71c0.3,0.04,0.61,0.08,0.91,0.12
			c-0.51-1.61-0.4-3.32,0.35-4.83c-0.29,0-0.58,0-0.86,0c1.13,1.69,1.35,3.77,0.6,5.66c0.3-0.04,0.61-0.08,0.91-0.12
			c-1.13-2.07-1.59-4.46-1.27-6.8c-0.32,0-0.64,0-0.96,0c0.64,2.03,0.76,4.16,0.32,6.25c0.3-0.04,0.61-0.08,0.91-0.12
			c-1.11-2.41-1.28-5.14-0.51-7.68c-0.32,0-0.64,0-0.96,0c0.79,2.44,0.38,5.09-1.11,7.18c0.3,0.04,0.61,0.08,0.91,0.12
			c-0.29-2.11-0.42-4.25-0.41-6.38c0.01-1.04,0-2.11,0.13-3.14c0.02-0.12,0.02-0.43,0.12-0.53c0.26-0.26,0.41,0.04,0.54,0.26
			c0.25,0.41,0.44,0.89,0.62,1.34c1.51,3.64,2.07,7.62,1.7,11.54c0.12-0.16,0.24-0.32,0.37-0.48c-2.16,0.34-3.36-2.34-3.43-4.1
			c-0.05-1.33,0.36-2.65,0.68-3.93c0.33-1.34,0.62-2.69,0.53-4.07c-0.02-0.29-0.22-0.47-0.5-0.5c-0.92-0.08-1.7,0.69-1.65,1.61
			C203.93,295.69,204.93,295.69,204.9,295.05L204.9,295.05z"/>
	</g>
</g>
<g>
	<g>
		<path d="M247.4,295.03c-1.09,3.2-1.61,6.6-1.47,9.99c0.04,1.08-0.06,2.83,1.12,3.38c1.21,0.57,2.22-0.69,2.71-1.63
			c1.37-2.63,2.73-5.62,2.36-8.66c-0.15-1.26-0.57-2.5-1.35-3.51c-0.68-0.88-2.09-2.1-3.19-1.13c-0.56,0.5-0.67,1.34-0.81,2.04
			c-0.19,0.92-0.34,1.84-0.46,2.76c-0.27,2.01-0.37,4.03-0.32,6.05c0.01,0.42,0.55,0.67,0.85,0.35c2.41-2.51,3.45-6.08,2.77-9.49
			c-0.11-0.54-0.8-0.41-0.96,0c-1.23,3.07-1.75,6.38-1.51,9.68c0.03,0.46,0.69,0.72,0.93,0.25c1.08-2.08,1.67-4.35,1.75-6.7
			c0.02-0.49-0.7-0.69-0.93-0.25c-1.2,2.24-1.8,4.74-1.74,7.28c0.01,0.49,0.68,0.69,0.93,0.25c1.76-3.1,2.56-6.67,2.27-10.22
			c-0.04-0.52-0.88-0.73-0.98-0.13c-0.58,3.33-1.17,6.66-1.75,9.99c-0.11,0.63,0.76,0.89,0.96,0.27c0.62-1.87,1.24-3.73,1.86-5.6
			c-0.32-0.09-0.64-0.18-0.96-0.27c-0.47,2.13-1.2,4.18-2.19,6.13c-0.24,0.47,0.42,1.08,0.79,0.61c2.52-3.21,3.4-7.49,2.27-11.43
			c-0.12-0.43-0.68-0.47-0.91-0.12c-1.65,2.49-2.23,5.52-1.69,8.45c0.12,0.63,1.08,0.36,0.96-0.27c-0.5-2.67,0.09-5.42,1.58-7.67
			c-0.3-0.04-0.61-0.08-0.91-0.12c1.02,3.56,0.29,7.53-2.01,10.46c0.26,0.2,0.52,0.4,0.79,0.61c1.03-2.02,1.8-4.15,2.29-6.37
			c0.14-0.63-0.76-0.88-0.96-0.27c-0.62,1.87-1.24,3.73-1.86,5.6c0.32,0.09,0.64,0.18,0.96,0.27c0.58-3.33,1.17-6.66,1.75-9.99
			c-0.33-0.04-0.65-0.09-0.98-0.13c0.27,3.39-0.46,6.76-2.13,9.72c0.31,0.08,0.62,0.17,0.93,0.25c-0.06-2.37,0.48-4.68,1.6-6.78
			c-0.31-0.08-0.62-0.17-0.93-0.25c-0.07,2.17-0.61,4.27-1.61,6.2c0.31,0.08,0.62,0.17,0.93,0.25c-0.23-3.22,0.27-6.42,1.48-9.41
			c-0.32,0-0.64,0-0.96,0c0.6,3.05-0.36,6.28-2.51,8.52c0.28,0.12,0.57,0.24,0.85,0.35c-0.06-2.79,0.16-5.58,0.7-8.31
			c0.1-0.49,0.13-1.26,0.45-1.67c0.47-0.6,1.3,0.25,1.63,0.62c0.73,0.81,1.13,1.86,1.31,2.92c0.41,2.42-0.49,4.82-1.5,6.98
			c-0.29,0.61-1.09,2.93-2.05,2.67c-0.48-0.13-0.5-0.96-0.53-1.34c-0.06-0.7-0.09-1.4-0.09-2.09c-0.02-2.99,0.49-5.96,1.46-8.79
			C248.57,294.68,247.61,294.42,247.4,295.03L247.4,295.03z"/>
	</g>
</g>
<g>
	<g>
		<path d="M319.36,265.2c2.18,3.6,3.21,7.66,4.08,11.74c0.12,0.58,0.86,0.69,1.25,0.33c0.9-0.82,1.79-1.64,2.69-2.46
			c-0.42-0.11-0.84-0.22-1.25-0.33c0.6,4.07,1.2,8.13,1.8,12.2c0.12,0.8,1.23,0.62,1.45,0c1.18-3.31,2.35-6.62,3.53-9.93
			c-0.48-0.13-0.96-0.27-1.45-0.4c-0.66,4.75-0.18,9.51,1.52,14c0.23,0.61,1,0.74,1.37,0.18c1.9-2.89,3.8-5.79,5.7-8.68
			c-0.43,0-0.86,0-1.3,0c1.33,2.69,1.78,5.61,1.42,8.58c-0.09,0.73,1.09,1.03,1.4,0.38c2.81-5.96,4-12.52,3.4-19.09
			c-0.09-0.95-1.59-0.96-1.5,0c0.58,6.29-0.49,12.61-3.19,18.33c0.47,0.13,0.93,0.25,1.4,0.38c0.4-3.24-0.18-6.42-1.62-9.34
			c-0.26-0.53-1.01-0.44-1.3,0c-1.9,2.89-3.8,5.79-5.7,8.68c0.46,0.06,0.91,0.12,1.37,0.18c-1.59-4.22-2.13-8.73-1.52-13.2
			c0.13-0.94-1.11-1.33-1.45-0.4c-1.18,3.31-2.35,6.62-3.53,9.93c0.48,0,0.96,0,1.45,0c-0.6-4.07-1.2-8.13-1.8-12.2
			c-0.09-0.6-0.88-0.67-1.25-0.33c-0.9,0.82-1.79,1.64-2.69,2.46c0.42,0.11,0.84,0.22,1.25,0.33c-0.9-4.2-1.99-8.39-4.23-12.1
			C320.16,263.62,318.86,264.38,319.36,265.2L319.36,265.2z"/>
	</g>
</g>
<g>
	<g>
		<path d="M318.53,171.14c13.98-6.26,27.95-12.52,41.93-18.78c0.88-0.39,0.12-1.69-0.76-1.3c-13.98,6.26-27.95,12.52-41.93,18.78
			C316.9,170.24,317.66,171.53,318.53,171.14L318.53,171.14z"/>
	</g>
</g>
<g>
	<g>
		<path d="M322.56,120.87c4.81-11.88,13.47-22.04,24.4-28.72c0.82-0.5,0.07-1.8-0.76-1.3c-11.29,6.9-20.12,17.36-25.09,29.62
			C320.75,121.37,322.2,121.76,322.56,120.87L322.56,120.87z"/>
	</g>
</g>
<g>
	<g>
		<path d="M294.24,50.37c-0.24-2.24-2.88-1.24-3.81-0.04c-0.98,1.28-1.69,2.9-2.44,4.32c-0.8,1.52-1.55,3.06-2.26,4.62
			c-2.81,6.18-4.94,12.65-6.36,19.28c-0.2,0.94,1.24,1.34,1.45,0.4c1.11-5.19,2.64-10.27,4.61-15.19c1-2.5,2.12-4.96,3.35-7.36
			c0.58-1.13,1.18-2.25,1.8-3.35c0.32-0.56,0.61-1.23,1.01-1.75c0.12-0.15,1.18-0.82,1.17-0.94
			C292.84,51.32,294.35,51.33,294.24,50.37L294.24,50.37z"/>
	</g>
</g>
<g>
	<g>
		<path d="M222.18,50.4c0.35,8.48,0.71,16.97,1.06,25.45c0.04,0.96,1.54,0.97,1.5,0c-0.35-8.48-0.71-16.97-1.06-25.45
			C223.64,49.44,222.14,49.43,222.18,50.4L222.18,50.4z"/>
	</g>
</g>
<g>
	<g>
		<path d="M184.6,47.68c1.5,9.16,4.14,18.07,7.84,26.59c0.38,0.88,1.68,0.12,1.3-0.76c-3.64-8.39-6.21-17.21-7.69-26.23
			C185.89,46.33,184.44,46.74,184.6,47.68L184.6,47.68z"/>
	</g>
</g>
<g>
	<g>
		<path d="M117.96,56.27c5.74,2.4,10.75,6.45,14.31,11.54c0.55,0.79,1.85,0.04,1.3-0.76c-3.81-5.45-9.08-9.67-15.2-12.23
			C117.47,54.45,117.08,55.9,117.96,56.27L117.96,56.27z"/>
	</g>
</g>
<g>
	<g>
		<path d="M84.32,78.04c7.32,5.84,15.63,10.29,24.57,13.1c0.92,0.29,1.32-1.16,0.4-1.45c-8.67-2.74-16.8-7.05-23.91-12.72
			C84.63,76.39,83.56,77.44,84.32,78.04L84.32,78.04z"/>
	</g>
</g>
<g>
	<g>
		<path d="M65.14,110.98c8.12,0.65,16.24,1.31,24.36,1.96c0.96,0.08,0.96-1.42,0-1.5c-8.12-0.65-16.24-1.31-24.36-1.96
			C64.18,109.41,64.18,110.91,65.14,110.98L65.14,110.98z"/>
	</g>
</g>
<g>
	<g>
		<path d="M55.51,147.95c8.97-1.55,18.06-2.21,27.16-2c0.97,0.02,0.97-1.48,0-1.5c-9.23-0.22-18.46,0.48-27.56,2.05
			C54.16,146.67,54.57,148.11,55.51,147.95L55.51,147.95z"/>
	</g>
</g>
<g>
	<g>
		<path d="M60.99,206.31c5.74-7.74,12.75-14.5,20.68-19.97c0.79-0.54,0.04-1.85-0.76-1.3c-8.16,5.63-15.32,12.55-21.22,20.51
			C59.12,206.33,60.42,207.08,60.99,206.31L60.99,206.31z"/>
	</g>
</g>
</svg>
