<svg xmlns="http://www.w3.org/2000/svg" viewBox="0 0 265.17 428.82"><title>question_1</title><g id="Layer_2" data-name="Layer 2"><g id="Layer_1-2" data-name="Layer 1"><path d="M0,258.57c.2,7.58,6.48,13.21,13.34,15.26,7.36,2.2,16.35,1.17,22.15-4.18a17.92,17.92,0,0,0,5.69-11.47,11.52,11.52,0,0,0-5.86-10.8,33.14,33.14,0,0,0-9.07-3.32,31.92,31.92,0,0,0-9.43-1,18.45,18.45,0,0,0-11.89,4.8A15.08,15.08,0,0,0,0,258.57a.75.75,0,0,0,1.5,0c.06-7.19,6.26-12.62,13-13.75,5.51-.94,11.31.34,16.5,2.2,3.61,1.3,7.09,3.48,8.29,7.32,1.37,4.37-.57,9.26-3.34,12.65-4.59,5.63-12.67,7.28-19.56,6-7.18-1.31-14.66-6.48-14.87-14.45A.75.75,0,0,0,0,258.57Z"/><path d="M8.63,278.56a24.52,24.52,0,0,0,22.68,2.38,16.75,16.75,0,0,0,8.12-6.68,20.84,20.84,0,0,0,2.75-9.94A30.62,30.62,0,0,0,40.3,252.6c-.33-.9-1.78-.51-1.45.4,2.17,6,2.85,13.22,0,19.1-3.17,6.62-10.69,9.35-17.68,9a22.65,22.65,0,0,1-11.81-3.87c-.8-.55-1.55.75-.76,1.29Z"/><path d="M5.05,267.47a16.89,16.89,0,0,1-2.26-.53c-.45-.22-1.21,0-1.13.65a15.62,15.62,0,0,0,4.45,8.82c.67.69,1.73-.37,1.06-1.06a14.05,14.05,0,0,1-4-7.76L2,268.24a18.3,18.3,0,0,0,2.62.67c.92.3,1.32-1.15.4-1.44Z"/><path d="M139.85,54.68c-20.63-12.62-46.44-15.74-69.69-9.43-11.5,3.12-22.93,8.56-31.84,16.57-4.38,3.94-8.21,8.87-9.8,14.62a21.1,21.1,0,0,0,1.4,15,15.2,15.2,0,0,0,12.21,8.34c5.82.53,11.62-2,16.25-5.36,5-3.59,8.81-8.45,12.89-13,3.91-4.36,8.35-9,14-11.13a19.49,19.49,0,0,1,13.75,0,11,11,0,0,1,6.81,12.94c-1.94,9.21-10.15,16-18.15,20.12C66.78,114,49.7,130.48,33.52,147.11c-11.64,12-22.09,26.1-27.65,42a56.85,56.85,0,0,0-3.31,16.1,38.38,38.38,0,0,0,1.49,13.65c1.5,4.57,4.74,8.22,9.78,8.55,4.31.28,8.72-1.62,12.3-3.88,4.09-2.58,6.91-7.07,9.11-11.26.39-.73.76-1.47,1.12-2.22.26-.53.57-.93.36-1.51s-.48-.83-.62-1.31a5.06,5.06,0,0,1-.17-2,4.4,4.4,0,0,1,1.46-2.85c.9-.75,2.35-.72,3.11-1.62a9,9,0,0,0,.91-2.13c.27-.66.55-1.31.82-2l2.25-5.32c1.28-3,2.6-6,4-8.91a95.8,95.8,0,0,1,10-16.95C66.62,154.8,78,147.83,89.79,141.86c6-3,12.06-5.85,18-8.92q9.87-5.08,19.38-10.83c6-3.65,12.06-7.42,17.76-11.59,4.78-3.49,9.4-7.46,12.53-12.55a23.77,23.77,0,0,0,3.33-16.22c-.9-5.7-3.8-10.92-7.4-15.36a53.9,53.9,0,0,0-13.56-11.71c-.82-.51-1.57.78-.75,1.29,11.17,6.92,23.18,19.77,20,34.08-1.51,6.88-6.34,12.29-11.65,16.65-6.09,5-12.93,9.16-19.64,13.26q-10.78,6.58-22,12.33c-6.67,3.4-13.48,6.52-20.11,10a105.31,105.31,0,0,0-18.42,11.89A67.46,67.46,0,0,0,53,170.9a151,151,0,0,0-10,20.23c-.7,1.63-1.38,3.26-2.07,4.89l-1.16,2.76c-.44,1-.84,1.16-1.82,1.55a5.77,5.77,0,0,0-3.49,5.55,6.45,6.45,0,0,0,1,3.38v-.76A41.84,41.84,0,0,1,28,220.07a18.86,18.86,0,0,1-5.38,3.69c-3,1.48-6.7,2.67-10.1,1.92-3.61-.8-5.8-3.77-6.93-7.11-2.17-6.45-1.9-14-.59-20.54a75.54,75.54,0,0,1,8.37-21.72,130.77,130.77,0,0,1,19.91-26.75C43.54,138.8,54.25,128.3,66,119.1a132.18,132.18,0,0,1,21.94-14.22,43.56,43.56,0,0,0,12.6-9.19c5-5.39,9.59-14.12,5.58-21.29-3.09-5.52-10.13-7.33-16-6.72-7.77.81-13.71,6-18.81,11.52-5.82,6.33-11,13.4-19,17.08C48.46,98,44.11,99,40,97.91A13.61,13.61,0,0,1,31.37,91c-3.87-7.24-2-15.76,2.58-22.15,5-7,12.67-12,20.21-15.82a85.89,85.89,0,0,1,24-8,89.15,89.15,0,0,1,49.79,5.24A80.92,80.92,0,0,1,139.1,56C139.92,56.48,140.68,55.18,139.85,54.68Z"/><path d="M31.92,95.1C34,101.75,38,108.81,44.7,111.65c6.34,2.7,13.3.13,17.64-4.87,2.37-2.72,3.68-6.15,6.28-8.68a33.85,33.85,0,0,1,11-6.68c8.11-3.33,16.8-5.17,25.41-6.62.95-.16.55-1.6-.4-1.44a130.38,130.38,0,0,0-22.72,5.57,45,45,0,0,0-12.29,6.32A22,22,0,0,0,64,101.8c-3.11,5.33-8,9.66-14.53,9.43-8.57-.31-13.89-9.27-16.15-16.53-.28-.92-1.73-.52-1.44.4Z"/><path d="M154,119.4a33.52,33.52,0,0,0,9.5-17.27A28.9,28.9,0,0,0,160.38,83c-.46-.85-1.76-.09-1.3.76A27.25,27.25,0,0,1,162,102.1a32.16,32.16,0,0,1-9.05,16.24A.75.75,0,0,0,154,119.4Z"/><path d="M54.67,193c7.4-15.06,18.86-27.77,32.2-37.82a140,140,0,0,1,11.62-7.86c.82-.5.07-1.8-.76-1.29-14.35,8.73-27.37,19.94-37,33.78a93.51,93.51,0,0,0-7.33,12.44c-.43.86.87,1.62,1.29.75Z"/><path d="M16.46,227.36c10.77,1.27,21.78-2.22,27.77-11.7.52-.82-.78-1.57-1.3-.76-5.72,9-16.24,12.17-26.47,11-1-.11-.94,1.39,0,1.5Z"/><path d="M8.42,271.06a13.83,13.83,0,0,0,2.38,7.75.77.77,0,0,0,1.38-.18,11.4,11.4,0,0,1,2.06-3.93L13,274a4.8,4.8,0,0,0,3.58,5.8.76.76,0,0,0,.92-.92,2.89,2.89,0,0,1,1.67-3.11L18,274.89a5.6,5.6,0,0,0,2.76,6.25.76.76,0,0,0,1.13-.65A7.36,7.36,0,0,1,23.12,276l-1.37-.18a6.38,6.38,0,0,0,3.75,4.09.75.75,0,0,0,.95-.72,7.11,7.11,0,0,1,.53-3.35L25.8,276c.94.93,2.2,1.92,3.61,1.52A2.16,2.16,0,0,0,31,274.81l-1.25.73a9.1,9.1,0,0,0,2.72,2.25.75.75,0,0,0,1.1-.45,9,9,0,0,1,1.62-4h-1.3l1,1.84a.76.76,0,0,0,1.37-.18l2.39-5.72-1.37.18.92,1.33a.76.76,0,0,0,1.37-.18,12.25,12.25,0,0,0,.74-4.06.75.75,0,0,0-1.5,0,10.9,10.9,0,0,1-.69,3.66l1.38-.18-.92-1.33a.76.76,0,0,0-1.37.18l-2.39,5.72,1.37-.18-1-1.84a.76.76,0,0,0-1.3,0,9.84,9.84,0,0,0-1.76,4.37l1.1-.45a8.08,8.08,0,0,1-2.42-2c-.49-.59-1.47,0-1.26.73.34,1.07-1.12.85-1.57.61a5.33,5.33,0,0,1-1.1-.91.74.74,0,0,0-1.17.15,8.65,8.65,0,0,0-.74,4.11l.95-.73a4.77,4.77,0,0,1-2.71-3,.76.76,0,0,0-1.37-.18,8.78,8.78,0,0,0-1.39,5.27l1.13-.65a4.06,4.06,0,0,1-2.07-4.55.76.76,0,0,0-1.1-.85A4.41,4.41,0,0,0,16,279.25l.93-.92a3.28,3.28,0,0,1-2.53-4c.16-.67-.75-1.35-1.25-.73a13.49,13.49,0,0,0-2.45,4.59l1.37-.17a12.35,12.35,0,0,1-2.18-7,.75.75,0,0,0-1.5,0Z"/><path d="M160.5,78.71c9.11.62,19.86,2.32,26.5,9.28a21.42,21.42,0,0,1,5.1,10.23c1.29,5.55,2.26,11,4.88,16.13a47,47,0,0,0,12.28,15l-.19-.73L199.83,164a.75.75,0,0,0,1.44.4q4.64-17.71,9.25-35.43a.74.74,0,0,0-.2-.73,46,46,0,0,1-11.61-13.85c-2.83-5.25-3.83-10.85-5.16-16.58a23,23,0,0,0-5.23-10.63,25.45,25.45,0,0,0-8.72-6c-6-2.6-12.61-3.6-19.1-4-1-.07-1,1.43,0,1.5Z"/><path d="M58.57,193.36c9.52-18.5,23.8-34,40.39-46.42a207.88,207.88,0,0,1,26.21-16.54c10.28-5.5,20.84-10.24,32.25-12.84a96.3,96.3,0,0,1,41.39-.37l.2-1.47c-2.87-.34-5.75-.68-8.63-1-.83-.09-1,1.32-.2,1.47,2.9.54,5.86,1.4,8.83,1a.75.75,0,0,0,.2-1.47c-12.08-4.51-24.58-7.69-37-11.18a.75.75,0,0,0-.4,1.45c12.39,3.49,24.89,6.66,37,11.17l.2-1.47c-2.85.37-5.65-.44-8.43-1l-.2,1.48c2.88.3,5.76.64,8.63,1,.84.1,1-1.3.2-1.47a97.71,97.71,0,0,0-36.83-.71c-12,2.06-23.18,6.44-34,12-18.66,9.57-36.37,21.52-50.76,36.88a126.76,126.76,0,0,0-20.38,28.72c-.44.85.85,1.61,1.29.75Z"/><path d="M50,233.34a24.8,24.8,0,0,0,2.19,2.28c.6.54,1.67-.17,1.17-.91-1.83-2.74-4-5.48-5.1-8.6a15.54,15.54,0,0,1,.09-10,.75.75,0,0,0-1.44-.4,16.92,16.92,0,0,0-.17,10.55c1.17,3.35,3.37,6.25,5.33,9.17l1.18-.9A24.8,24.8,0,0,1,51,232.28c-.62-.74-1.68.33-1.06,1.06Z"/><path d="M54.39,236.89v9a.75.75,0,0,0,1.5,0v-9a.75.75,0,0,0-1.5,0Z"/><path d="M199.83,164a178.76,178.76,0,0,1-10.27,21.67c-3.26,5.81-7.06,11.27-10.64,16.89a84.53,84.53,0,0,0-8.44,17.47,64.16,64.16,0,0,0-2.22,7.8,18.11,18.11,0,0,1-1.44,4.49c-6.18,12.15-20.92,15.68-33.5,15-16.76-.95-31.87-9.68-48.23-12.68a65.55,65.55,0,0,0-13.27-1.06c-2.35.06-4.7.23-7,.45-1.13.1-2.26.22-3.4.35l-1.69.19a10.14,10.14,0,0,1-2.18.26,8.75,8.75,0,0,1-1.35-.56,5.78,5.78,0,0,0-2.18-.41,2.35,2.35,0,0,0-2.15,1.2c-.45,1.11,0,2.67.31,3.76a60.46,60.46,0,0,0,7.25,16.1,68.34,68.34,0,0,0,14.33,17.25c3.8,3.17,8.11,5.37,12.51,7.59a79.58,79.58,0,0,1,16.07,10.7c5.54,4.76,11.21,10,15.3,16.07,1.85,2.75,3.5,5.89,3.73,9.25.27,3.86-1.7,6.76-4.47,9.24A60.84,60.84,0,0,1,96,336.76c-4.93,1.71-10.13,2.88-14.81,5.25-9.72,4.91-16.35,14.3-21,23.89a109.66,109.66,0,0,0-4.68,11.46c-.31.92,1.13,1.31,1.45.4,4.17-12,10.27-24.7,21-32.12A43.26,43.26,0,0,1,90,340.3c6.71-2.12,13.36-4.37,19.44-8a47.81,47.81,0,0,0,9.94-7.6,11.61,11.61,0,0,0,3.5-8.63c-.27-6.62-5.13-12.47-9.42-17.08A107.05,107.05,0,0,0,96.7,284.18c-4.43-3.11-9.26-5.4-14-7.92-11.87-6.26-20.45-17.67-26-29.67a49.73,49.73,0,0,1-2.87-7.5,15.13,15.13,0,0,1-.54-2.47,5.16,5.16,0,0,1,0-.79c0-.17.11-.33,0-.22.86-.86,2.74.25,3.74.58a5.49,5.49,0,0,0,2.28-.07c1.21-.15,2.42-.28,3.63-.41a89.11,89.11,0,0,1,14.33-.56c17.38,1,32.81,10.19,49.81,13,12.36,2,27.21.64,36.51-8.67a22.4,22.4,0,0,0,6.24-11.27,73.85,73.85,0,0,1,6.56-18c2.7-5.28,6.16-10.11,9.37-15.09a168.29,168.29,0,0,0,10.7-19.26q2.64-5.59,4.91-11.36c.36-.89-1.09-1.28-1.44-.4Z"/><path d="M136.36,274.15a109.27,109.27,0,0,1,13,24.34,81.27,81.27,0,0,1,3.78,13.15,49.2,49.2,0,0,1,1.09,13.47c-.71,8.07-7.59,13-13.41,17.67-8.24,6.57-16.39,13.25-24.59,19.87-9,7.25-18.26,14.14-26.88,21.81-.73.65.34,1.7,1.06,1.06,7.92-7,16.39-13.42,24.66-20,8.51-6.79,16.93-13.67,25.39-20.51,5.79-4.68,12.83-9.33,14.78-17,1.06-4.12.56-8.67,0-12.83a76.33,76.33,0,0,0-3.28-13.82,108.42,108.42,0,0,0-14.29-28c-.55-.79-1.85,0-1.29.75Z"/><path d="M150,301.45a340.93,340.93,0,0,0,30.58,32.78c.7.66,1.76-.39,1.06-1.06A340.93,340.93,0,0,1,151,300.39c-.61-.75-1.66.32-1.06,1.06Z"/><path d="M179.68,393.44c4.57-11.43,14.81-19.47,22-29.2a62.36,62.36,0,0,0,8.92-16.13A40.17,40.17,0,0,0,212.42,330c-2.82-23.44-21-41.46-38.49-55.5-9.1-7.31-20-17.93-15.89-30.78.29-.92-1.15-1.31-1.45-.4-3.53,11,3.46,20.76,11.19,27.88,4,3.66,8.34,6.82,12.42,10.36A131,131,0,0,1,193,294.15c7.74,8.85,14.36,19.18,17,30.76a41.45,41.45,0,0,1,.37,18.44,51.09,51.09,0,0,1-7.87,17.06c-3.91,5.8-8.62,10.88-13.2,16.13-4.38,5-8.59,10.27-11.07,16.5-.36.89,1.09,1.28,1.44.4Z"/><path d="M180.92,333.08c.22,13.32-9.15,23.22-16.67,33.19a73.92,73.92,0,0,0-6,9c-.47.85.83,1.6,1.29.75,6.17-11.27,16.74-19.91,21.09-32.21a30.67,30.67,0,0,0,1.75-10.74.75.75,0,0,0-1.5,0Z"/><path d="M153,143.19a105.33,105.33,0,0,1-34.86,34.23,108.83,108.83,0,0,1-46.21,15.45,100.6,100.6,0,0,1-13.67.34,14.89,14.89,0,0,1-2.92-.19,25.39,25.39,0,0,1-2.39-.89c-2.56-.93-5.15-1.73-7.78-2.44a.75.75,0,0,0-.4,1.45q3.51.95,6.94,2.13a16.84,16.84,0,0,0,4.67,1.34,98.19,98.19,0,0,0,12.37,0,106.69,106.69,0,0,0,24.49-4.43,111.77,111.77,0,0,0,43.17-24.64,103.29,103.29,0,0,0,17.88-21.6c.51-.82-.78-1.57-1.29-.75Z"/><path d="M178.34,136.12A203.22,203.22,0,0,1,158,169.48c-4.42,5.88-9,11.68-13.68,17.36a71,71,0,0,1-12.45,12.47c-5.27,3.88-11.33,6.18-17.59,7.93a137.52,137.52,0,0,1-22.42,4c-7.46.79-15,1-22.41,2.1-6.26.89-12.64,2.43-19,2a19.29,19.29,0,0,1-9.12-2.92,28.81,28.81,0,0,1-3.88-2.9c-1.07-1-2.49-2.44-2.24-4.05a5.67,5.67,0,0,1,2-2.9c1-1,2-1.84,3-2.83a24.3,24.3,0,0,0,5.51-9.11c.3-.92-1.15-1.31-1.45-.4a22.76,22.76,0,0,1-5.59,8.93c-1.53,1.53-3.53,2.88-4.51,4.88-1.23,2.48.46,4.89,2.26,6.54a25.16,25.16,0,0,0,7.1,4.66c5.56,2.35,11.7,1.76,17.52.92,3.6-.52,7.17-1.16,10.78-1.61,3.91-.49,7.86-.71,11.79-1a201.75,201.75,0,0,0,23.51-3c7.07-1.43,14.35-3.35,20.72-6.82,11.32-6.16,18.82-17.33,26.63-27.2a215.14,215.14,0,0,0,23.41-36c.6-1.19,1.19-2.39,1.77-3.59.42-.86-.87-1.62-1.29-.75Z"/><path d="M206.73,138.9c-3.22,8.66,4.4,16.88,7.46,24.41A47.08,47.08,0,0,1,216.53,191c-.21.94,1.24,1.35,1.44.4a48.53,48.53,0,0,0-1.71-26.9c-1.55-4.29-3.92-8.13-6-12.17s-3.78-8.58-2.11-13.07c.34-.91-1.11-1.3-1.45-.4Z"/><path d="M208.22,137.37c5.44,6.51,2.06,15.78.57,23.08-1.34,6.54-1.82,14.81,3.9,19.5.74.61,1.81-.45,1.06-1.06-6.1-5-4.5-14.13-2.88-20.83,1.72-7.08,3.53-15.62-1.59-21.75-.62-.75-1.68.32-1.06,1.06Z"/><path d="M200.29,117l5.86-6.17c.67-.7-.39-1.76-1.06-1.06L199.23,116c-.67.7.39,1.77,1.06,1.06Z"/><path d="M209.3,127.33l4.53-9c.43-.86-.86-1.62-1.29-.75l-4.54,9c-.43.86.86,1.62,1.3.76Z"/><path d="M207.23,108a3.51,3.51,0,0,0-.25,4.26c1.05,1.77,3.12,2.37,4.77,3.37,3.16,1.92,4.58,5.61,6.3,8.71s3.87,5.85,7.35,6.9a13.48,13.48,0,0,0,11.26-2c4-2.71,6.51-6.92,8.43-11.23l-1,.27,5.4,3.59a.75.75,0,0,0,1.13-.64c-.27-4.1-.51-8.6,1.17-12.46a10.44,10.44,0,0,1,4.23-4.78,24.6,24.6,0,0,0,5.23-3.67c5.73-6.08,4.71-15.55.2-22a33.46,33.46,0,0,0-9.48-8.77c-4-2.54-8.52-4.28-13.31-3.71s-9.08,2.9-12.95,5.59a65.89,65.89,0,0,0-10.77,9.16c-7.22,7.78-12,18.46-9.45,29.17.22.94,1.67.55,1.44-.39-2.17-9.26,1.48-18.73,7.41-25.82a58.64,58.64,0,0,1,9.88-9.2c3.67-2.75,7.65-5.39,12.14-6.56,4.78-1.24,9.35-.16,13.56,2.27a32.72,32.72,0,0,1,9.78,8.39,18.61,18.61,0,0,1,4,11.2,13.79,13.79,0,0,1-4.29,10.3c-1.76,1.56-4,2.4-5.84,3.89a11.58,11.58,0,0,0-3.32,4.64c-1.61,4-1.44,8.5-1.16,12.72l1.13-.65-5.4-3.6a.77.77,0,0,0-1,.27c-2.89,6.52-8.1,13.77-16.19,12.93-7.15-.75-8.41-8.54-12.2-13.25a11.81,11.81,0,0,0-3.75-3.06c-1.42-.74-5.32-2.67-3.36-4.8.66-.7-.4-1.77-1.06-1.06Z"/><path d="M205,79.73l7.19,14.73c.38.77,1.61.23,1.38-.58a54,54,0,0,1-2.15-17.19l-1.48.2a14.18,14.18,0,0,0,2.85,6.56c1,1.27,3.13,2.58,4.47,1a6.15,6.15,0,0,0,.88-2.85l.8-4.29,1.65-8.82-1.37.18a13.84,13.84,0,0,0,5.9,6.43.76.76,0,0,0,1.1-.45l3.57-11h-1.44a11.94,11.94,0,0,0,4.35,6.47.74.74,0,0,0,.91-.12,12.63,12.63,0,0,0,2.68-6.75l-1.47.2a4.37,4.37,0,0,0,8.69-.91c-.06-1-1.52-1-1.5,0,0,2,.36,4.36,2.25,5.43a3.15,3.15,0,0,0,4.36-1l-1.37-.57c-.64,2.7-1.33,7,1.88,8.37,2,.87,4.78.12,5-2.33h-1.5l.92,6.87a.76.76,0,0,0,1.13.64l2.86-1.72-1-.27a7,7,0,0,1,.78,4.39c-.09.63.68.85,1.13.65a5,5,0,0,0,2.8-3.34c.26-.94-1.11-1.28-1.44-.39l-2.52,6.6c-.24.63.58,1.15,1.1.85,2.76-1.61,3.48-4.86,3.34-7.85-.18-3.94-2.24-8.22-.19-12a.75.75,0,0,0-1.3-.76l-3.64,6.24,1.3.76a6.72,6.72,0,0,0-.15-7.07.76.76,0,0,0-1.18-.15l-3.38,3.4,1.18.16a4.45,4.45,0,0,1,.2-3.9.75.75,0,0,0-1-1,9,9,0,0,0-3.66,4.1l1.4.38a8.17,8.17,0,0,0-3.63-7.13.74.74,0,0,0-.9.12A15.91,15.91,0,0,0,243,73h1.5a16.17,16.17,0,0,0-2.9-7.94.75.75,0,0,0-1.17-.15,10.17,10.17,0,0,0-2.25,8.76l1.37-.58-2.21-2.88a.76.76,0,0,0-1.37.17l-2,6.25,1.37-.18-2.94-4.92a.75.75,0,0,0-1.18-.15A8.43,8.43,0,0,0,229,79.28l1.11-.85c-1.42-.87-1.61-2.79-2.87-3.85A2.88,2.88,0,0,0,224,74c-1.35.86-1,2.74-1,4.1l.12,7,1.48-.19a16,16,0,0,0-2.52-4.45c-.88-1.1-2.25-2.82-3.83-2.71a2.83,2.83,0,0,0-2.34,2.35c-.44,1.81.73,3.55.23,5.33l1.47.2a9.25,9.25,0,0,0-7.54-9,.78.78,0,0,0-.92.52,7.66,7.66,0,0,0,1.42,7.3c.58.71,1.5-.2,1.18-.91a8.47,8.47,0,0,0-4.93-4.5.74.74,0,0,0-.85.34,7.63,7.63,0,0,0,1.3,9.45.76.76,0,0,0,1.17-.15,4.66,4.66,0,0,0-.65-6.22c-.72-.64-1.79.42-1.06,1.06a3.2,3.2,0,0,1,.42,4.4l1.18-.15a6.13,6.13,0,0,1-1.07-7.63l-.84.34a7,7,0,0,1,4,3.81l1.18-.9a6.1,6.1,0,0,1-1-5.84l-.93.53a7.74,7.74,0,0,1,6.44,7.5.76.76,0,0,0,1.48.19,6.75,6.75,0,0,0-.08-3.25c-.17-.84-.58-2.93.67-3.29,1-.3,2.5,1.79,3,2.48a14.23,14.23,0,0,1,1.95,3.54c.28.75,1.49.71,1.47-.2l-.09-5,0-2.24c0-.65-.23-1.87.25-2.37,1.05-1.11,2.28,1.13,2.7,1.91a5.58,5.58,0,0,0,2,2.31.76.76,0,0,0,1.1-.84,6.87,6.87,0,0,1,1.78-6.4l-1.18-.16L234,77.25a.76.76,0,0,0,1.37-.18l2-6.25-1.37.18,2.21,2.89a.75.75,0,0,0,1.37-.58,8.59,8.59,0,0,1,1.87-7.3l-1.18-.15A14.69,14.69,0,0,1,243,73c.09.94,1.56,1,1.5,0a14.37,14.37,0,0,1,3.17-10l-.91.12A6.64,6.64,0,0,1,249.68,69c0,.71,1.09,1.07,1.4.38a7.6,7.6,0,0,1,3.11-3.56l-1-1a6.06,6.06,0,0,0-.21,5.41.75.75,0,0,0,1.18.15l3.38-3.4-1.18-.15a5.16,5.16,0,0,1,.15,5.55.75.75,0,0,0,1.3.76l3.64-6.24-1.3-.76c-1.82,3.33-.88,7.05-.26,10.57.52,3,.61,7-2.34,8.72l1.1.85,2.51-6.61-1.44-.39a3.62,3.62,0,0,1-2.12,2.44l1.13.64a8.33,8.33,0,0,0-1-5.15.76.76,0,0,0-1-.26l-2.86,1.72,1.13.65-.92-6.87a.75.75,0,0,0-1.5,0c-.11,1.54-2.47,1.38-3.34.67-1.76-1.41-1-4.48-.55-6.32.19-.79-1-1.36-1.37-.57-.6,1.15-2.18.81-2.9,0a5.82,5.82,0,0,1-.91-3.61H242a2.88,2.88,0,1,1-5.74.51c-.12-.89-1.4-.58-1.48.2a10.78,10.78,0,0,1-2.24,5.69l.91-.12a10.35,10.35,0,0,1-3.67-5.57.75.75,0,0,0-1.44,0l-3.58,11,1.11-.45a12.54,12.54,0,0,1-5.37-5.89.76.76,0,0,0-1.37.18l-2.32,12.4a8.52,8.52,0,0,1-.51,2.6c-1,1.58-2.46-.62-2.95-1.37a13.5,13.5,0,0,1-2-5.19c-.14-.87-1.44-.62-1.47.19a55.34,55.34,0,0,0,2.2,17.59l1.37-.58L206.27,79c-.43-.87-1.72-.11-1.3.76Z"/><path d="M256.85,97.13a16.24,16.24,0,0,0-3.23-6.93c-1.44-1.81-3.79-3.69-6.25-2.83-.91.32-.52,1.77.4,1.45,2-.71,3.87,1.2,5,2.67a15,15,0,0,1,2.68,6c.19,1,1.63.55,1.44-.4Z"/><path d="M246.87,95.83a1.78,1.78,0,0,0-.28,2.8,2.08,2.08,0,0,0,3.12-.69,2.71,2.71,0,0,0,.18-1.94,2.34,2.34,0,0,0-1.22-1.65,1.21,1.21,0,0,0-1.16.29,2.23,2.23,0,0,0-.49.81,4.66,4.66,0,0,0-.29,1.52,2.11,2.11,0,0,0,.58,1.58A1.81,1.81,0,0,0,249,99a2.13,2.13,0,0,0,1.33-1,2.48,2.48,0,0,0,.14-1.91,2.86,2.86,0,0,0-1.12-1.58,1.38,1.38,0,0,0-1.72.23,2.63,2.63,0,0,0-.58,1.49,3,3,0,0,0,0,.6,3.89,3.89,0,0,0,.15.84,1.56,1.56,0,0,0,1.48,1.16,1.73,1.73,0,0,0,1.41-1,1.88,1.88,0,0,0,0-1.81,3.11,3.11,0,0,0-1.23-1.18c-.21-.12-.43-.23-.65-.33a.79.79,0,0,0-.91.11,2.81,2.81,0,0,0-1.18,2.17A1.92,1.92,0,0,0,246.7,98a1.5,1.5,0,0,0,1.37.39.75.75,0,0,0,.55-.72,1.3,1.3,0,0,0-.57-1,1.57,1.57,0,0,0-.85-.22,1.34,1.34,0,0,0-1.37,1.28.75.75,0,1,0,1.5,0c0-.17,0,.17,0,.06s-.08.19,0,.08-.08.08,0,.06l0,0s0,0-.09.06,0,0,.07,0-.21.06-.06,0l.09,0c.12,0-.22,0-.08,0h.1c.11,0-.18,0-.08,0s.1,0,.1,0-.2-.12-.08,0-.05-.06-.06-.06l0,0-.07-.1c0,.09,0,0,0-.08s0,0,0,0,0,0,0-.11l.55-.73s.18,0,.08,0-.06,0-.08,0,.19,0,.08,0,.06,0,.07,0,0,0-.07,0,0,0,.05,0a.63.63,0,0,0-.11-.12s.09.14,0,.05l0-.07a.3.3,0,0,0,0-.08s.06.16,0,.06,0-.11,0-.16,0,.17,0,.07v-.11c0-.08,0,.15,0,.06l0-.1a.32.32,0,0,1,0-.09c0-.09-.07.12,0,0s.13-.23.2-.35-.09.11,0,0l.07-.07a1.07,1.07,0,0,1,.14-.16l.32-.3-.91.12c.17.08.34.16.51.26l.25.14.12.08s.11.1.15.11l-.08-.06.07.06.1.09.1.1,0,0c.05.06,0,.05,0,0,0,.06.09.14.12.19l0,0c0,.08,0,.06,0,0a1,1,0,0,0,.05.16c0,.14,0-.19,0,0V97c0,.14,0-.19,0,0l0,.12c0,.08-.09.12,0,0a.39.39,0,0,0-.06.11l-.06.1c-.07.1.13-.14,0,0l-.06.06c-.06.07.16-.1,0,0l-.09,0c-.12.07.18,0,0,0s-.1,0,.06,0h-.1c.14,0,.17,0,.06,0s-.05,0,.08,0l-.07,0,.08.07-.06-.06c-.11-.09.08.15,0,0s0-.1-.06-.11l0,.1,0-.08-.06-.22a.68.68,0,0,1,0-.14c0-.13,0,.19,0,0a3.69,3.69,0,0,1,0-.47.49.49,0,0,1,0-.12c0-.07,0-.17,0,0a2.61,2.61,0,0,1,.06-.27l.07-.22s-.09.18,0,.08a.93.93,0,0,1,0-.1.56.56,0,0,0,.05-.08c-.08.16-.09.11,0,0l.06-.07c-.11.09-.14.11-.07.07l0,0c-.07.08-.18.06-.07,0s-.21,0-.07,0,0,0-.07,0h0c.08,0,.07,0,0,0s.13.06.12.07l-.07-.05.07.07.08.09c.12.14-.06-.1,0,0l.16.26.07.14c.08.15-.05-.16,0,0a1.61,1.61,0,0,1,.09.29s0,.15,0,.15,0-.13,0-.05,0,.06,0,.1a.61.61,0,0,1,0,.14v0c0,.09,0,.07,0,0s0,.21-.06.24.08-.14,0,0a.53.53,0,0,1-.06.1l0,0,0-.06s-.07.09-.11.12-.14.08,0,0l-.1.07-.11.06,0,0,.07,0a.88.88,0,0,0-.23.07c.14-.07.14,0,0,0h-.14c-.09,0,.2,0,.07,0l-.12,0c-.13,0,.16.09,0,0a.61.61,0,0,0-.1-.07l.08.07-.06-.06c-.06-.06-.06-.12,0,0a.53.53,0,0,0-.06-.1.25.25,0,0,1,0-.07l0,.07c0-.07-.05-.16-.07-.24s0,.19,0,0,0-.09,0-.13v-.22a.57.57,0,0,0,0-.13c0-.22,0,.11,0,0a4.87,4.87,0,0,1,.12-.52,1.82,1.82,0,0,1,.07-.25l0,0c0-.08,0-.06,0,0s0-.11.08-.16l0,0c.05-.07,0,0,0,0l0-.06c.09-.11-.15.08,0,0l-.11,0q.12,0-.09,0h0a.35.35,0,0,1-.22-.06c.15.08-.12-.11,0,0s-.08-.14,0,0a1.74,1.74,0,0,1,.11.18.7.7,0,0,1,.14.27l0-.08a.36.36,0,0,0,0,.09s0,.1,0,.15a1.28,1.28,0,0,1,.07.3s0-.2,0-.05a1.47,1.47,0,0,1,0,.21V97c0-.12,0-.14,0,0s0,.06,0,.09,0,.1,0,.15,0,.06,0,0l0,.07a.41.41,0,0,1-.07.11c0,.07,0,0,0,0l0,.06-.09.1-.07,0c.1-.07.11-.08.05,0l-.22.13c-.14.07.17,0,0,0l-.16,0c-.15,0,.18,0,0,0h-.17c-.15,0,.18,0,0,0a.49.49,0,0,0-.16,0c.13,0,.12,0,0,0s.09.1,0,0l-.07-.08c-.09-.08.11.17,0,0a.25.25,0,0,0,0-.07s.07.19,0,0l0-.1c0-.19,0,.15,0,0s0-.06,0-.1.05-.2,0,0c0,0,0-.07,0-.1s.1-.15,0,0a.41.41,0,0,0,0-.09c.06-.1-.14.15,0,0s.09,0-.05,0l.12-.07a.77.77,0,0,0,.27-1,.78.78,0,0,0-1-.27Z"/><path d="M231.45,108.88c.16-.55,1-.47,1.33-.19a3.63,3.63,0,0,1,1.05,2.41,6.66,6.66,0,0,1-1.71,5.22c-.47.5,0,1.56.73,1.25l.85-.35a.77.77,0,0,0,.52-.92.75.75,0,0,0-.92-.52l-.85.35.73,1.25a8.11,8.11,0,0,0,1.95-7.42,3.75,3.75,0,0,0-2.3-2.9,2.27,2.27,0,0,0-2.83,1.42.75.75,0,0,0,1.45.4Z"/><path d="M249.37,18.32a.75.75,0,0,0,0-1.5.75.75,0,0,0,0,1.5Z"/><path d="M237.59,9.13c-1.52-2.91.63-6.64,3.65-7.45,3.73-1,7.49,1.93,8.69,5.32,3,8.41-5.25,14.65-7.22,22.13a20.85,20.85,0,0,0,.7,12.71.76.76,0,0,0,1.25.33,2.79,2.79,0,0,0,.82-3.16c-.33-.9-1.78-.51-1.45.4a1.37,1.37,0,0,1-.43,1.7l1.26.33a19.41,19.41,0,0,1,0-14.13C246.61,23,250,19.51,251.35,15c1.18-4,.89-8.6-2-11.8C247,.53,243-1,239.63.69s-5.08,5.86-3.33,9.2c.45.85,1.74.09,1.29-.76Z"/><path d="M247.09,47.7a2.35,2.35,0,0,0-2.74.45,2.56,2.56,0,0,0-.54,2.82,3.72,3.72,0,0,0,5.08,1.84A3.23,3.23,0,0,0,250,48a2.65,2.65,0,0,0-2.35-1,3,3,0,0,0-2.27,1.35,2.41,2.41,0,0,0,.43,2.91,2.47,2.47,0,0,0,3,.52.75.75,0,0,0-.76-1.3l-.11.06s.12,0,0,0l-.2.06c.12,0,.09,0,0,0h-.2c-.08,0,.13,0,0,0l-.19-.05s-.15,0,0,0h0a2.25,2.25,0,0,1-.21-.12l-.08,0c-.07,0,.08.08,0,0l-.16-.14c0-.05-.13-.18,0-.06a1.13,1.13,0,0,1-.13-.2.56.56,0,0,0,0-.08c0-.06,0,.11,0,0a1.17,1.17,0,0,0-.06-.2c0-.08,0,.12,0,0a.27.27,0,0,0,0-.09c0-.06,0-.26,0-.1,0-.07,0-.15.05-.22s.06-.12,0,0l0-.08.1-.16c.07-.12,0,0,0,0l.08-.08c0-.06.11-.1.16-.16-.09.1,0,0,.06,0l.17-.1.11-.06-.05,0,.25-.08.2,0c.08,0,0,0,0,0h.43c.1,0-.17,0,0,0l.2,0c.06,0,.19.08.06,0l.18.09.1.07c.08.05-.11-.11,0,0l.15.15.06.07c-.09-.11,0,0,0,0a1.74,1.74,0,0,1,.11.18l.06.11c.05.08-.05-.15,0,0s.08.27.11.41,0,.14,0,0c0,0,0,.06,0,.09s0,.18,0,.28,0,.24,0,.15,0,0,0,0l0,.12a1.6,1.6,0,0,1,0,.21l0,.09c-.05.18,0-.07,0,0a3.18,3.18,0,0,1-.23.4c.08-.12,0,0-.07.07l-.2.18c-.08.08.09-.06,0,0l-.08.05-.23.14-.09,0c-.11,0,.1,0,0,0a1.25,1.25,0,0,1-.25.09l-.23.05-.13,0H247s-.17,0-.07,0,0,0,0,0l-.27,0-.23-.07-.09,0c.13,0,0,0,0,0a2.22,2.22,0,0,1-.42-.25c-.1-.07.07.07,0,0l-.08-.08a2.5,2.5,0,0,1-.23-.23l-.07-.08c.07.09,0,0,0-.06a2.54,2.54,0,0,1-.16-.28s-.05-.11,0,0a1.12,1.12,0,0,1,0-.11,2.29,2.29,0,0,1-.07-.28c0-.14,0,0,0,0a.91.91,0,0,1,0-.17V49.8c0-.21,0,.07,0,0l0-.13s.06-.17,0,0a1.51,1.51,0,0,1,.11-.22.61.61,0,0,0,.07-.1c0,.05,0,.06,0,0l.09-.09.07-.06c-.07.05,0,0,0,0l.13-.08a.39.39,0,0,0,.11-.06c.07-.05-.15,0,0,0l.23-.06c-.16,0,0,0,.09,0h.12c-.1,0-.08,0,0,0l.08,0c-.14,0,0,0,0,0a.75.75,0,1,0,.76-1.3Z"/><path d="M235.12,92l-.5,1a.49.49,0,0,0-.09.28.61.61,0,0,0,0,.3.66.66,0,0,0,.14.26.55.55,0,0,0,.21.19.78.78,0,0,0,.58.08.73.73,0,0,0,.44-.35l.51-1a.71.71,0,0,0,.09-.28.61.61,0,0,0,0-.3.47.47,0,0,0-.13-.25.51.51,0,0,0-.21-.2.77.77,0,0,0-1,.27Z"/><path d="M239.33,98.12h.5a.48.48,0,0,0,.29-.06.74.74,0,0,0,.4-.4.48.48,0,0,0,.06-.29l0-.2a.82.82,0,0,0-.2-.33l-.15-.11a.73.73,0,0,0-.38-.11h-.5a.59.59,0,0,0-.29.07.63.63,0,0,0-.39.39.59.59,0,0,0-.07.29l0,.2a.69.69,0,0,0,.19.33L239,98a.75.75,0,0,0,.38.1Z"/><path d="M242.6,102.89v1a.77.77,0,0,0,.22.53.49.49,0,0,0,.24.15.57.57,0,0,0,.29.07.75.75,0,0,0,.75-.75v-1a.81.81,0,0,0-.22-.53.58.58,0,0,0-.25-.15.53.53,0,0,0-.28-.07.75.75,0,0,0-.75.75Z"/><path d="M228.82,99.85l-.5-.5a.61.61,0,0,0-.24-.15.59.59,0,0,0-.29-.07.57.57,0,0,0-.29.07.61.61,0,0,0-.24.15l-.12.15a.75.75,0,0,0-.1.38l0,.2a.7.7,0,0,0,.2.33l.5.5a.54.54,0,0,0,.24.16.73.73,0,0,0,.58,0,.54.54,0,0,0,.24-.16l.12-.15a.7.7,0,0,0,.1-.38l0-.2a.79.79,0,0,0-.19-.33Z"/><path d="M233.78,99.91l.5.5a.51.51,0,0,0,.25.16.52.52,0,0,0,.28.06.56.56,0,0,0,.29-.06.45.45,0,0,0,.24-.16l.12-.15a.72.72,0,0,0,.1-.38l0-.2a.82.82,0,0,0-.2-.33l-.5-.5a.78.78,0,0,0-.24-.16.68.68,0,0,0-.29-.06.72.72,0,0,0-.29.06.78.78,0,0,0-.24.16l-.12.15a.83.83,0,0,0-.1.38l0,.2a.69.69,0,0,0,.19.33Z"/><path d="M238.83,88.59a.75.75,0,0,0,0-1.5.75.75,0,0,0,0,1.5Z"/><path d="M54.76,245.49c-.42,2.79,1.7,4.55,3.89,5.82,2.84,1.65,5.75,3.19,8.69,4.66a.76.76,0,0,0,1.13-.64q.28-10-.36-20c-.06-1-1.56-1-1.5,0q.65,10,.36,20l1.13-.65c-2.37-1.19-4.72-2.43-7-3.72-1.82-1-5.26-2.45-4.87-5.07.15-.94-1.3-1.35-1.44-.4Z"/><path d="M59.41,237.15l-.27,4.21a6.32,6.32,0,0,0,.41,3.47c1,1.8,3.25,2.13,5.09,2.27a.77.77,0,0,0,.73-.95,39.48,39.48,0,0,1-.56-10.52c.07-1-1.43-1-1.5,0a41.23,41.23,0,0,0,.61,10.92l.72-1c-1.35-.1-3.41-.29-3.92-1.82a8.23,8.23,0,0,1,0-3.05l.23-3.58c.07-1-1.43-1-1.5,0Z"/><path d="M66.78,252.57a3.13,3.13,0,0,0-.19,2.4.77.77,0,0,0,.92.52c3.48-.93,5.09-5.38,6.09-8.44a28.2,28.2,0,0,0,1.17-12.17c-.11-.95-1.61-1-1.5,0a27.24,27.24,0,0,1-.81,10.78,26.1,26.1,0,0,1-2,5c-.76,1.44-1.7,3-3.37,3.43l.93.53a1.57,1.57,0,0,1,0-1.24c.41-.87-.89-1.63-1.3-.76Z"/><path d="M152.27,245.12c-.29,2.89-1,6,0,8.86a9.46,9.46,0,0,0,4.87,5.39c.87.4,1.63-.89.76-1.3a8,8,0,0,1-4.31-4.86,9.42,9.42,0,0,1-.26-3.74c.13-1.45.29-2.9.44-4.35.09-1-1.41-1-1.5,0Z"/><path d="M158.8,374.38v.16l0-.2a.47.47,0,0,1,0,.17l.07-.17a.42.42,0,0,1-.09.14l.12-.15-.14.14.15-.12a.71.71,0,0,1-.22.13l.18-.07a1.3,1.3,0,0,1-.34.08l.2,0h-.35l.2,0a1.16,1.16,0,0,1-.32-.08l.18.08a1.48,1.48,0,0,1-.21-.13l.15.12a1.31,1.31,0,0,1-.23-.24l.11.15A2.08,2.08,0,0,1,158,374l.08.18a2.73,2.73,0,0,1-.18-.68l0,.2a7,7,0,0,1,0-1.12.75.75,0,0,0-.75-.75.77.77,0,0,0-.75.75,3.85,3.85,0,0,0,.72,2.8,2,2,0,0,0,2.43.31,1.45,1.45,0,0,0,.73-1.32.79.79,0,0,0-.22-.53.75.75,0,0,0-1.28.53Z"/><path d="M156.6,372.44a17.6,17.6,0,0,1,3.2.79.75.75,0,0,0,.92-.53.76.76,0,0,0-.52-.92A18.47,18.47,0,0,0,157,371a.83.83,0,0,0-.58.08.77.77,0,0,0-.34.45.76.76,0,0,0,.52.92Z"/><path d="M157.15,372.47l0-.16a.75.75,0,0,0-.52-.53c-1.29-.19-1.67.94-2,2a7.43,7.43,0,0,0-.13,4.59c1.07,2.88,4.93,4.4,7.49,5.58a51.77,51.77,0,0,1,9.76,5.3c1.5,1.13,2.95,2.33,4.44,3.47,1.3,1,2.73,2.15,4.42,2.34a3.49,3.49,0,0,0,3.33-1.44c1-1.69-.4-3.27-.13-5a.76.76,0,0,0-1.1-.84l-1.73.79c-.87.41-.11,1.7.76,1.3l1.72-.8-1.1-.85a5,5,0,0,0,.06,1.88c.17.79.72,1.85.3,2.64-1,1.88-3.56.29-4.69-.51-2.87-2-5.45-4.48-8.49-6.29s-6.13-2.85-9.12-4.42c-1.44-.76-3.27-1.64-4.19-3a3.79,3.79,0,0,1-.53-2.46c0-.16.59-2.76.49-2.77l-.53-.53.05.17a.75.75,0,0,0,1.44-.4Z"/><path d="M157.52,376.35c2.49,4.13,8,5.06,12.19,6.47,4.4,1.48,9.76,4.46,9.16,9.91-.1,1,1.4.95,1.5,0,.55-5-3.56-8.61-7.74-10.4-2.33-1-4.79-1.62-7.19-2.44s-5.21-1.95-6.63-4.3a.75.75,0,0,0-1.29.76Z"/><path d="M177.9,388.9a6,6,0,0,0,5,3.84.75.75,0,0,0,.75-.75.78.78,0,0,0-.75-.75s-.23,0,0,0l-.15,0-.33-.07a6.45,6.45,0,0,1-.62-.21c-.09,0,.11.05,0,0l-.17-.08a2.44,2.44,0,0,1-.28-.14c-.2-.12-.39-.25-.57-.38.08.06,0,0,0,0l-.12-.1-.25-.24a2.73,2.73,0,0,1-.23-.25l-.1-.12s-.08-.1,0,0a5.65,5.65,0,0,1-.38-.57l-.14-.27c0-.06-.05-.12-.08-.17.06.12,0,0,0-.06a.78.78,0,0,0-.93-.52.76.76,0,0,0-.52.92Z"/><path d="M181.23,391.31a2.6,2.6,0,0,0-1.41,1.91h1.45a11.13,11.13,0,0,0-2.62-4.19.75.75,0,0,0-1.25.33l-.78,2.36h1.45a19.62,19.62,0,0,0-1.1-3.67c-.24-.6-1.31-.82-1.44,0l-.32,1.91h1.45a9.13,9.13,0,0,0-1.72-3.88.76.76,0,0,0-1.18-.15.84.84,0,0,1-.42.32l.93.52a7.06,7.06,0,0,0-1.05-2.26.76.76,0,0,0-1.18-.15,5.3,5.3,0,0,0-.95,1.6l1.25-.33c-.61-.77-1.8-1.4-2.6-.53l1.25.34a2.88,2.88,0,0,0-.83-1.34c-.72-.65-1.78.41-1.06,1.06a1.36,1.36,0,0,1,.44.67.76.76,0,0,0,1.26.33c-.13,0-.15,0-.05,0l.18.11a2.08,2.08,0,0,1,.35.38c.39.48,1.07.13,1.25-.33a3.33,3.33,0,0,1,.57-.94l-1.18-.15a5.63,5.63,0,0,1,.9,1.9.76.76,0,0,0,.92.53,2.14,2.14,0,0,0,1.08-.71l-1.18-.15a8.07,8.07,0,0,1,1.57,3.52.76.76,0,0,0,1.45,0l.31-1.91h-1.44a19.59,19.59,0,0,1,1.09,3.67c.16.77,1.24.65,1.45,0l.78-2.36-1.26.33a9.43,9.43,0,0,1,2.23,3.53c.22.62,1.32.8,1.45,0a1.22,1.22,0,0,1,.72-1c.86-.44.1-1.73-.76-1.3Z"/><path d="M157.14,375.94l.06-.07a.76.76,0,0,0,0-.76.87.87,0,0,0-.62-.47.75.75,0,0,0-.73.19,2.9,2.9,0,0,0-.17,2.45,9.61,9.61,0,0,0,1,2.75c.29.52,1.28.48,1.37-.18a19.71,19.71,0,0,0,.2-4.06c-.05-1-1.54-1-1.5,0a10,10,0,0,0,1.49,4.91.75.75,0,0,0,1.29,0,5.56,5.56,0,0,0,.57-2.75l-1.48.2a9.2,9.2,0,0,0,2,3.36.77.77,0,0,0,1.06,0,1.83,1.83,0,0,0,.56-1.88l-.53.92a8.45,8.45,0,0,0,.79.74,1.53,1.53,0,0,0,1.16.18,1.68,1.68,0,0,0,1.29-1.75l-1.4.38a11.73,11.73,0,0,0,1.55,1.83.76.76,0,0,0,1.06,0l.75-.69-1.25-.33c.21.86,1.12,1.95,2.07,1.26l-1-.27a1,1,0,0,1,.13.73l1.1-.45a5.7,5.7,0,0,0-4.87-.83.76.76,0,0,0-.45,1.1,4.65,4.65,0,0,0,1.9,2.07.76.76,0,0,0,1.13-.65,7.23,7.23,0,0,0-.62-2.27l-1.29.76a7.74,7.74,0,0,0,2.59,2.53.76.76,0,0,0,1.13-.65,1.72,1.72,0,0,1,0-.39c0-.16,0-.25-.23-.28a2.35,2.35,0,0,0,.21.42,1.14,1.14,0,0,0,.66.54c.94.26,1.36-.92,1.76-1.55l-1.37-.18a9.76,9.76,0,0,0,1.53,2.7.76.76,0,0,0,1.18-.15l.62-1-1.37-.58a3.84,3.84,0,0,0,.8,3.29.75.75,0,0,0,1.25-.33,1.41,1.41,0,0,0-.94-1.75,1,1,0,0,0-1.12,1.36c.32.9,1.77.52,1.44-.4v.19l-.45.35.13,0-.58-.08.07,0,1.26-.33a2.18,2.18,0,0,1-.41-1.83.76.76,0,0,0-1.38-.58l-.61,1,1.17-.15a7.42,7.42,0,0,1-1.14-2,.76.76,0,0,0-1.37-.18l-.76,1.2.45-.35c.44.27.58.28.41,0,0-.08-.07-.15-.11-.22a1.91,1.91,0,0,0-.29-.41,1.2,1.2,0,0,0-1.08-.35c-1,.17-1.3,1.23-1.19,2.12l1.12-.64a6.22,6.22,0,0,1-2-2,.75.75,0,0,0-1.29.76,4.9,4.9,0,0,1,.41,1.51l1.13-.65a3.24,3.24,0,0,1-1.36-1.52l-.45,1.1a4.21,4.21,0,0,1,3.71.68.76.76,0,0,0,1.11-.45,2.82,2.82,0,0,0-.28-1.89.75.75,0,0,0-1-.26c.25.06.33,0,.22-.11a.62.62,0,0,1-.09-.26.75.75,0,0,0-1.25-.33l-.75.69h1.06a9.54,9.54,0,0,1-1.31-1.53c-.38-.55-1.48-.43-1.4.38s-.64-.15-.81-.29a1.47,1.47,0,0,0-1.33-.33.77.77,0,0,0-.52.92.33.33,0,0,1-.17.43h1.06a7.37,7.37,0,0,1-1.58-2.7c-.25-.77-1.52-.69-1.47.2a4,4,0,0,1-.36,2h1.29a8.49,8.49,0,0,1-1.28-4.15h-1.5a18.66,18.66,0,0,1-.14,3.66l1.37-.18a6.83,6.83,0,0,1-1-3.76l-.22.53.12-.14-.73.19.11,0-.45-.34.06.1v-.76l-.06.08c-.58.76.72,1.51,1.3.75Z"/><path d="M55.55,373.82l.38,1.29,1.37-.58a2.64,2.64,0,0,0-3.42-1.14A3,3,0,0,0,52,376.94c1.14,4.85,7.74,3.81,11.38,4a151.42,151.42,0,0,1,16.32,1.83,26.26,26.26,0,0,1,6.24,1.6,12.28,12.28,0,0,1,3,1.75,26.28,26.28,0,0,0,2.28,2.07c1.7,1.1,3.47,0,3.92-1.83a4.07,4.07,0,0,0-2-4.49c-.85-.46-1.61.84-.76,1.3a2.52,2.52,0,0,1,1.37,2.26,2.16,2.16,0,0,1-.39,1.3c-.62.82-1.43.17-2-.34A16.33,16.33,0,0,0,87,383.16c-3.65-1.65-7.75-2-11.67-2.53A123.18,123.18,0,0,0,61,379.34c-2.13,0-4.94.35-6.61-1.29-.75-.74-1.43-2.24-.37-3.05a1.32,1.32,0,0,1,2,.28c.37.78,1.61.23,1.37-.57L57,373.42c-.28-.92-1.73-.53-1.45.4Z"/><path d="M51.94,376.17a30.58,30.58,0,0,0,1,5.53,3.4,3.4,0,0,0,2.29,2.65c1.94.6,4.06.84,6,1.24l6.08,1.22c3.79.76,7.68,1.83,11.58,1.7,3.47-.12,7.88-1.4,10.5,1.66a.75.75,0,0,0,1.06,0l2.59-2.9c.64-.72-.42-1.79-1.07-1.06l-2.58,2.9h1.06c-2-2.36-5.22-2.62-8.13-2.39a36.33,36.33,0,0,1-5.31.26,45.25,45.25,0,0,1-5.9-.93l-11.43-2.3-2.92-.59c-1.07-.22-1.92-.31-2.32-1.49a25.11,25.11,0,0,1-1.06-5.5c-.1-.95-1.6-1-1.5,0Z"/><path d="M53.73,380.06a10.63,10.63,0,0,0,2.68,3.1c.39.3,1.16.29,1.26-.34a6.17,6.17,0,0,0,.06-1.82l-1.4.38a9.06,9.06,0,0,0,3,2.83.77.77,0,0,0,1.11-.45l.41-2.28-1.37.18a4.69,4.69,0,0,0,2.24,2.2.76.76,0,0,0,1.13-.64l.17-1.81-1.4.37L63.09,384c.32.49,1.25.51,1.37-.18l.33-1.93H63.35a7.35,7.35,0,0,0,1.92,3.17.76.76,0,0,0,1.28-.53l.19-2.3-1.39.37,1.7,2.64a.76.76,0,0,0,1.37-.18,5.2,5.2,0,0,0,0-3.17.75.75,0,0,0-1.45.4,4.88,4.88,0,0,0,2.17,3,.76.76,0,0,0,1.13-.65,5.36,5.36,0,0,0-.52-3l-1.17.91,2,2.11a.76.76,0,0,0,1.28-.53l.08-1.91-1.39.38a7.73,7.73,0,0,0,2.26,2.63.75.75,0,0,0,1-.27,2.75,2.75,0,0,0-.25-2.84c-.46-.62-1.68-.28-1.37.58a10.17,10.17,0,0,0,2,3.3.76.76,0,0,0,1.25-.34,4,4,0,0,0-.3-3l-1.29.75a11.1,11.1,0,0,0,2.1,2.53.76.76,0,0,0,1.25-.33,4.29,4.29,0,0,0-.09-2.51c-.3-.91-1.72-.54-1.45.39a3.22,3.22,0,0,0,1.46,1.91.76.76,0,0,0,1.1-.45l.4-1.06-1.25.33,1.41,1.72c.46.56,1.23,0,1.28-.53l.18-1.84-1.47.2A4.55,4.55,0,0,0,80.65,386a.76.76,0,0,0,1.13-.65,6.42,6.42,0,0,0,0-1.75l-1.37.58a8.07,8.07,0,0,0,1.42,2,.76.76,0,0,0,1.26-.33,5.39,5.39,0,0,0,.23-1.6l-1.4.38a5.21,5.21,0,0,0,1.45,1.47.76.76,0,0,0,1.13-.64l.06-1.36-1.28.53,1.43,1.58a.76.76,0,0,0,1.18-.15,2.34,2.34,0,0,0,.49-1.44l-1.4.38a13.91,13.91,0,0,0,2.26,2.7.76.76,0,0,0,1.28-.54v-1.06l-1.28.53,2.43,2.48c.67.69,1.73-.37,1.06-1.06l-2.43-2.48a.76.76,0,0,0-1.28.53v1.06l1.28-.53a12.19,12.19,0,0,1-2-2.39.76.76,0,0,0-1.4.38l-.29.68,1.18-.15-1.43-1.58a.76.76,0,0,0-1.28.53L83,385.45l1.13-.65a3,3,0,0,1-.91-.93.76.76,0,0,0-1.4.37,3.71,3.71,0,0,1-.18,1.2l1.25-.33a6.88,6.88,0,0,1-1.19-1.69c-.41-.83-1.48-.2-1.37.57a4.7,4.7,0,0,1,0,1.35l1.13-.65a2.79,2.79,0,0,1-1.14-1.35.76.76,0,0,0-1.48.2l-.18,1.84,1.28-.53-1.41-1.72c-.39-.48-1.08-.14-1.25.33l-.4,1.06,1.1-.45a1.56,1.56,0,0,1-.77-1l-1.45.39a2.81,2.81,0,0,1,.1,1.72l1.25-.33a9.93,9.93,0,0,1-1.87-2.22.75.75,0,0,0-1.29.75,2.51,2.51,0,0,1,.15,1.9l1.25-.34a7.93,7.93,0,0,1-1.58-2.63l-1.37.58a1.29,1.29,0,0,1,.24,1.33l1-.27a6.18,6.18,0,0,1-1.73-2.1.76.76,0,0,0-1.4.38l-.08,1.91,1.28-.53-2-2.11c-.63-.66-1.52.17-1.18.91a4.1,4.1,0,0,1,.31,2.24l1.13-.65a3.21,3.21,0,0,1-1.48-2.09l-1.45.4a3.77,3.77,0,0,1,0,2.37l1.37-.18-1.71-2.63a.76.76,0,0,0-1.4.38l-.19,2.3,1.28-.53a5.79,5.79,0,0,1-1.54-2.51c-.2-.65-1.31-.77-1.44,0L63,383.45l1.38-.18L62.9,381a.76.76,0,0,0-1.4.38l-.17,1.81,1.13-.65a3.49,3.49,0,0,1-1.7-1.67.76.76,0,0,0-1.37.18L59,383.36l1.1-.45a7.13,7.13,0,0,1-2.44-2.29c-.37-.55-1.5-.42-1.4.38a4.57,4.57,0,0,1,0,1.43l1.26-.34A9.61,9.61,0,0,1,55,379.31a.75.75,0,0,0-1.29.75Z"/><path d="M63.17,387.2a.75.75,0,0,0,0-1.5.75.75,0,0,0,0,1.5Z"/><path d="M62.11,386.59a44.85,44.85,0,0,1-5.32,9.82c-.56.79.74,1.54,1.29.76A45.87,45.87,0,0,0,63.56,387a.76.76,0,0,0-.52-.93.77.77,0,0,0-.93.53Z"/><path d="M76.32,387.93c-3.63,2.59-7.7,5.78-8,10.59-.07,1,1.43,1,1.5,0,.28-4.19,4.16-7.06,7.29-9.29.78-.56,0-1.86-.76-1.3Z"/><path d="M56.9,397.79l.05,0a.76.76,0,0,0,.91-.12.88.88,0,0,0-.81-1.46.92.92,0,0,0-.62,1.07,1.59,1.59,0,0,0,.73.94,17.57,17.57,0,0,0,5.05,2.7,7.33,7.33,0,0,0,4.72.46,2.44,2.44,0,0,0,1.49-1.25,3,3,0,0,0,.21-1c0-.16,0-.32,0-.48.08-.48.13-.06-.32-.14.94.17,1.35-1.27.4-1.45-1.36-.24-1.51,1.07-1.62,2.07s-1.18,1-1.95,1a11.16,11.16,0,0,1-3.73-1.07,18.38,18.38,0,0,1-1.87-1c-.31-.18-.6-.37-.89-.57s-.32-.22-.47-.34l-.16-.11c-.16-.2-.21-.15-.14.12l-.34.45.05,0h-.76l-.27-.46.22-.53,0,0,.9-.12,0,0c-.82-.51-1.57.78-.76,1.3Z"/><path d="M61.38,391.26a9.76,9.76,0,0,0,8.82,4.62c1-.06,1-1.56,0-1.5a8.27,8.27,0,0,1-7.52-3.87.75.75,0,0,0-1.3.75Z"/><path d="M63.65,389.23l-.31-.88-1.37.58a10.7,10.7,0,0,0,9.23,5,.75.75,0,0,0,0-1.5,9.15,9.15,0,0,1-7.93-4.22c-.44-.69-1.66-.26-1.38.58l.31.88c.32.91,1.77.52,1.45-.4Z"/><path d="M63.56,387.74a15.3,15.3,0,0,0,9,4.27.75.75,0,0,0,.75-.75.77.77,0,0,0-.75-.75,13.6,13.6,0,0,1-7.94-3.84c-.68-.67-1.75.39-1.06,1.07Z"/><path d="M60.16,393.2a9.4,9.4,0,0,0,8,5.06.75.75,0,0,0,0-1.5,7.91,7.91,0,0,1-6.74-4.32c-.43-.86-1.73-.1-1.29.76Z"/><path d="M58.69,395.13c-.11,1.79,2,2.73,3.25,3.48q2.5,1.45,5.12,2.71a.75.75,0,0,0,.75-1.3q-2.32-1.12-4.59-2.4c-.7-.4-1.41-.79-2.08-1.24-.44-.28-1-.67-1-1.25.06-1-1.44-1-1.5,0Z"/><path d="M56,397.19A114.28,114.28,0,0,1,44.2,403.1c-2.91,1.24-6,3.08-4.93,6.79,1,3.55,4.72,4.78,7.92,5.73l13.43,4c4.3,1.27,8.6,2.66,13,3.69a58.52,58.52,0,0,0,12.93,1.39c1.11,0,2.22,0,3.34,0a3.94,3.94,0,0,0,2.41-.51,5,5,0,0,0,1.5-3.93c0-3.44-2.46-6.26-5.32-7.88-3.57-2-7.72-2.73-11.47-4.33s-7-3.73-8.9-7.33c-.44-.86-1.74-.1-1.3.76,2.77,5.39,8.68,7.82,14.13,9.6,3.13,1,6.62,1.88,9.06,4.25a7.62,7.62,0,0,1,2.22,4.08,5.18,5.18,0,0,1-.14,2.38c-.49,1.55-1.8,1.41-3.15,1.42a64.78,64.78,0,0,1-12.13-.75,104.64,104.64,0,0,1-11-2.87L54,416.05l-5.66-1.67a22.35,22.35,0,0,1-5-1.82c-1.65-1-3.25-2.88-2.68-4.93.52-1.86,2.73-2.56,4.31-3.24a110.41,110.41,0,0,0,11.82-5.91.75.75,0,0,0-.76-1.29Z"/><path d="M45.1,402.9c-2.17,1.5-2.16,4.59-.6,6.55,2.09,2.64,6.12,3.36,9.15,4.31A218,218,0,0,0,78,420,133.42,133.42,0,0,0,92,422c1,.08,1-1.42,0-1.5a153.88,153.88,0,0,1-27.32-5c-4.4-1.19-8.77-2.51-13.11-3.89-1.87-.6-3.93-1.12-5.4-2.49-1.26-1.17-2-3.67-.29-4.83.79-.55,0-1.85-.75-1.3Z"/><path d="M69.68,403.67a6.12,6.12,0,0,1-6.72.72c-.85-.45-1.61.84-.75,1.3a7.67,7.67,0,0,0,8.53-1,.75.75,0,0,0-1.06-1.06Z"/><path d="M66.52,408.94A8.63,8.63,0,0,0,73,407a.76.76,0,0,0,0-1.06.77.77,0,0,0-1.06,0,7.19,7.19,0,0,1-5.45,1.5.75.75,0,1,0,0,1.5Z"/><path d="M71.2,411a7.63,7.63,0,0,0,6.18-2.28c.67-.69-.39-1.75-1.06-1.06a6.19,6.19,0,0,1-5.12,1.84.75.75,0,1,0,0,1.5Z"/><path d="M75.22,413a6.87,6.87,0,0,0,5.12-2,.75.75,0,0,0-1.06-1.06l-.43.4-.12.09,0,0-.24.17-.51.3-.27.13s-.13.06-.07,0l-.12,0a6.57,6.57,0,0,1-1.13.32l-.15,0s-.1,0,0,0l-.33,0h-.62a.75.75,0,0,0-.75.75.76.76,0,0,0,.75.75Z"/><path d="M47.23,402.52a16.29,16.29,0,0,0,4.17,9.41.76.76,0,0,0,1.28-.53,10.32,10.32,0,0,0-1-4.35c-.49-1.26-1.13-2.76-.48-4.09l-1.38-.18a26.75,26.75,0,0,0,4.49,8.28.76.76,0,0,0,1.28-.53c-.17-2.33-.35-4.84,1-6.89l-1.37-.18a33.53,33.53,0,0,0,3.49,8.66.76.76,0,0,0,1.18.15A4.62,4.62,0,0,0,61,408.9l-1.47.2,2.17,5.35c.36.88,1.81.49,1.45-.4L61,408.7c-.29-.71-1.55-.72-1.48.2a3.11,3.11,0,0,1-.69,2.31l1.18.15a31.83,31.83,0,0,1-3.35-8.3.76.76,0,0,0-1.37-.18c-1.47,2.28-1.37,5.05-1.18,7.65l1.28-.53a24.61,24.61,0,0,1-4.1-7.61.76.76,0,0,0-1.37-.18c-1.57,3.2,1.49,6,1.27,9.19l1.28-.53a14.56,14.56,0,0,1-3.73-8.35c-.09-.95-1.59-1-1.5,0Z"/><path d="M161.29,383A16.51,16.51,0,0,1,154,396.19c-.81.52-.06,1.82.76,1.29A18.07,18.07,0,0,0,162.79,383c.05-1-1.45-1-1.5,0Z"/><path d="M172.2,389.47c-2.19,1.19-3.29,3.48-4.42,5.59a26.85,26.85,0,0,1-5,6.68c-.69.67.37,1.73,1.06,1.06a28,28,0,0,0,5-6.5c1.1-2,2-4.39,4.14-5.53.85-.46.09-1.76-.76-1.3Z"/><path d="M153.69,397.21a10.87,10.87,0,0,0,4.25,4.82,7.85,7.85,0,0,0,6,.4.75.75,0,0,0-.39-1.45,6.31,6.31,0,0,1-5-.32,9.65,9.65,0,0,1-3.57-4.2c-.42-.87-1.71-.11-1.3.75Z"/><path d="M154,396.19c-4.29,2.6-8.68,5-13.09,7.39-1.86,1-4.6,2.36-4.22,4.9s3.17,4.83,5.09,6.37a36.5,36.5,0,0,0,6.94,4.5,82.8,82.8,0,0,0,10,3.89c4.89,1.66,9.81,3.31,14.81,4.59,2.49.64,5.49,1.46,8,.66,2.35-.75,4.69-3.62,3.37-6.1-1.09-2.05-3.81-3-5.74-4a81.56,81.56,0,0,1-7.19-4.14,16.43,16.43,0,0,1-4.82-4.46,18.08,18.08,0,0,1-2.59-7.37c-.15-.95-1.6-.54-1.45.4a17.61,17.61,0,0,0,4.35,9.74c2.91,3,6.93,5,10.58,6.94,1.68.89,4.32,1.75,5.4,3.4.89,1.35-.27,3-1.42,3.74-1.8,1.19-4.42.61-6.36.19a128.67,128.67,0,0,1-12.59-3.7c-3.75-1.21-7.52-2.43-11.16-3.95a37.3,37.3,0,0,1-6.35-3.34c-2.52-1.69-5.47-3.76-7-6.46a3.4,3.4,0,0,1-.43-1.09c0-.1,0-.55,0-.43.26-1.42,2.07-2.17,3.19-2.79,4.51-2.46,9-4.9,13.42-7.57a.75.75,0,0,0-.76-1.29Z"/><path d="M157.19,396.37l0,0a.72.72,0,0,0,.2-.73.88.88,0,0,0-1.37-.47c-.62.5-.2,1.23.25,1.66a11.82,11.82,0,0,0,9.08,3.18c1-.08,1-1.59,0-1.5a10.52,10.52,0,0,1-4.52-.59,10.1,10.1,0,0,1-2-1c-.32-.21-.64-.43-.94-.67s-.67-.48-.8-.78l.07.58,0-.12-.34.45,0,0-.58.08.07,0-.33-.2,0,.05L156,396l0,.05.19-.73,0,0a.75.75,0,1,0,1.06,1.06Z"/><path d="M158,394.49a8.21,8.21,0,0,0,10.1,1.83.75.75,0,0,0-.76-1.29,6.72,6.72,0,0,1-8.28-1.6c-.61-.74-1.67.32-1.06,1.06Z"/><path d="M159.72,392a10.68,10.68,0,0,0,4.84,2.51c1.27.28,4.45.68,4.08-1.55a.75.75,0,0,0-1.45.4s0-.26.05-.24a2.26,2.26,0,0,1-.26.11,3.28,3.28,0,0,1-.77,0,8.25,8.25,0,0,1-2-.37,9,9,0,0,1-3.45-1.93c-.72-.64-1.78.41-1.06,1.06Z"/><path d="M160.65,389a9.14,9.14,0,0,0,10,1.91.75.75,0,0,0,.27-1,.77.77,0,0,0-1-.27,7.6,7.6,0,0,1-8.2-1.68c-.68-.69-1.74.37-1.07,1.06Z"/><path d="M161.66,386c0,1.55,2,2,3.2,2.28a10.38,10.38,0,0,0,4.47-.13.75.75,0,0,0-.4-1.45,8.45,8.45,0,0,1-3.32.19,9,9,0,0,1-1.68-.41,2.55,2.55,0,0,1-.58-.27.52.52,0,0,1-.21-.18c0,.05,0,.12,0,0a.75.75,0,0,0-1.5,0Z"/><path d="M141.48,404c-5.06,5.42,2.33,10.36,6.8,12.57a50.45,50.45,0,0,0,8.32,2.95c2.19.63,4.23,1.62,6.39,2.32s4.67.74,6.94,1.53c1.77.62,3.44,1.49,5.24,2a28.67,28.67,0,0,0,7.13,1.07c1,0,1-1.46,0-1.5A28.37,28.37,0,0,1,172,422.6a21.89,21.89,0,0,0-5.3-1.54,27,27,0,0,1-6.15-1.76c-3.23-1.29-6.83-1.95-9.94-3.27a30.62,30.62,0,0,1-5.61-3.09c-2.67-1.9-5.33-4.82-2.49-7.87.66-.71-.4-1.77-1.06-1.06Z"/><path d="M164.06,407.57a2.41,2.41,0,0,1-1.81,1.34,7.78,7.78,0,0,1-3.18-.24.77.77,0,0,0-.93.52.76.76,0,0,0,.53.92,9.16,9.16,0,0,0,4.06.23,3.84,3.84,0,0,0,2.62-2,.78.78,0,0,0-.26-1,.77.77,0,0,0-1,.27Z"/><path d="M161.87,411a1.06,1.06,0,0,0-1.07,1.09.78.78,0,0,0,.75.75,5.07,5.07,0,0,0,5-2.65.78.78,0,0,0-.27-1,.77.77,0,0,0-1,.27,4.86,4.86,0,0,1-.33.54c-.08.11,0-.05,0,0l-.1.12-.22.23a2,2,0,0,1-.21.19l-.12.1c.09-.07,0,0,0,0a4.23,4.23,0,0,1-.53.33l-.26.13c-.18.08.09,0,0,0l-.15.05a4.08,4.08,0,0,1-.6.16l-.16,0c-.11,0,.19,0,0,0l-.32,0a4.36,4.36,0,0,1-.62,0l.75.75a.3.3,0,0,1-.12.21.32.32,0,0,1-.31.2.76.76,0,0,0,.75-.75.77.77,0,0,0-.75-.75Z"/><path d="M164.19,413.09a1.58,1.58,0,0,0-.71,1.31.77.77,0,0,0,.75.75,5.47,5.47,0,0,0,4.54-2.35.74.74,0,0,0-.27-1,.76.76,0,0,0-1,.26l-.09.13c-.06.08.08-.09,0,0l-.18.2a4.4,4.4,0,0,1-.38.37l-.1.08c-.1.09.06,0,0,0l-.22.16-.46.27-.22.1c-.18.08.09,0,0,0l-.12,0-.51.15-.26.06h-.08c.1,0,0,0,0,0l-.57,0,.75.75c0-.11,0,0,0,0s.07-.17,0-.08.07-.08,0,0,.13-.1,0,0a.75.75,0,0,0-.75-1.3Z"/><path d="M166.87,417.1a3,3,0,0,0,3.83-2.87.76.76,0,0,0-.75-.75.77.77,0,0,0-.75.75,2.26,2.26,0,0,1,0,.26c0,.14,0-.19,0-.05l0,.12a2,2,0,0,1-.07.23c-.05.13.08-.16,0-.05a.54.54,0,0,1-.07.13,1.18,1.18,0,0,1-.11.19c-.1.15.05-.05,0,0a.39.39,0,0,1-.08.1l-.16.16a.52.52,0,0,1-.11.1c-.1.09.15-.1,0,0a3.5,3.5,0,0,1-.42.24c-.12.07.17-.06,0,0l-.14.05-.21,0-.13,0s.22,0,0,0h-.22a.38.38,0,0,1-.15,0l.13,0-.07,0a1.83,1.83,0,0,1-.25-.06.76.76,0,0,0-.93.52.77.77,0,0,0,.53.92Z"/><path d="M152,403.77a23.86,23.86,0,0,0-1.79,4.23.75.75,0,0,0,.72.95,17,17,0,0,1,1.75,0l.83.07c.31,0,.45.05.79.11a.76.76,0,0,0,.73-1.26l-.09-.11c0,.06,0,.05,0,0s-.12-.15-.17-.23-.19-.28-.28-.43a9.61,9.61,0,0,1-.52-.95s-.12-.28-.07-.15a1.19,1.19,0,0,0-.08-.2c-.07-.18-.13-.37-.19-.55a7.67,7.67,0,0,1-.26-1.05.75.75,0,0,0-1.45.4,10,10,0,0,0,2.06,4.35l.73-1.25a17,17,0,0,0-3.77-.22l.72.95a21.34,21.34,0,0,1,1.65-3.88.75.75,0,0,0-1.3-.75Z"/><path d="M18.84,226.2a8.46,8.46,0,0,0,.82,9.07c1.1,1.39,2.69,2.37,3.7,3.84.8,1.18,1.2,3,0,4-.75.62.32,1.67,1.06,1.06a3.86,3.86,0,0,0,1.11-3.87,7.84,7.84,0,0,0-2.62-3.93c-1.34-1.25-2.65-2.43-3.19-4.24a6.91,6.91,0,0,1,.46-5.18c.44-.86-.86-1.62-1.3-.76Z"/><path d="M37,98.26a21.56,21.56,0,0,0,7,11.73c.44.39,1.35.18,1.28-.53a69,69,0,0,0-1.73-10.08l-1.45.4a40.11,40.11,0,0,0,7.25,11.65.75.75,0,0,0,1.25-.73L47.39,99.38,46,100a43.7,43.7,0,0,0,4.13,7.09c.39.55,1.44.43,1.39-.38a25.39,25.39,0,0,0-1.66-7.75l-1.44.4a17.78,17.78,0,0,0,4.46,6.53c.52.48,1.5,0,1.25-.73l-1.61-4.83-1.25.73,4,4.77a.76.76,0,0,0,1.28-.53,21.56,21.56,0,0,0-2-7.79l-1.29.75a24.33,24.33,0,0,0,5.37,6.49.76.76,0,0,0,1.26-.73l-1.61-6.06L57,98.65l3,3.1a.76.76,0,0,0,1.28-.53,14,14,0,0,0-.65-4.72l-1.25.73,2,1.63a.76.76,0,0,0,1.25-.33,15.26,15.26,0,0,0,1-5.42l-1.28.53,2,2.64c.45.58,1.22,0,1.28-.53a18.23,18.23,0,0,0-.14-5.11l-1.45.4a8.31,8.31,0,0,0,2.54,4.11.76.76,0,0,0,1.26-.73l-1-6.2-1.45.4a10.27,10.27,0,0,0,2.39,4.48c.47.53,1.22.06,1.28-.53a25.49,25.49,0,0,0-.22-6.7l-1.45.39a9,9,0,0,0,3.12,5.26A.76.76,0,0,0,71.86,91a23.8,23.8,0,0,0-.42-8.07l-1.37.58L72.57,88c.29.52,1.27.48,1.37-.18a34.35,34.35,0,0,0,.34-7.58l-1.48.19a11.89,11.89,0,0,0,3.28,6.4.75.75,0,0,0,1.25-.33,28.19,28.19,0,0,0,.27-6.68l-1.48.2A16.36,16.36,0,0,0,79,86c.33.43,1.27.54,1.37-.18a25.64,25.64,0,0,0-.12-7.87l-1.45.4a15,15,0,0,0,2.24,5.33.76.76,0,0,0,1.4-.38,30.78,30.78,0,0,0,0-7.43l-1.48.2,2.24,7.06a.75.75,0,0,0,1.47-.2A35.85,35.85,0,0,0,84,75.47c-.17-.82-1.57-.65-1.47.2a16.44,16.44,0,0,0,2.77,7.64c.37.55,1.49.43,1.39-.38l-1-8.28-1.47.2a28.64,28.64,0,0,0,2.93,6.8.77.77,0,0,0,1.38-.18,19.7,19.7,0,0,0-.19-7.65l-1.45.4a21.16,21.16,0,0,0,2.92,6.9.75.75,0,0,0,1.39-.37,47.65,47.65,0,0,0-.94-7.62l-1.45.4A30.29,30.29,0,0,0,92,81.64a.76.76,0,0,0,1.4-.38,43.23,43.23,0,0,0-.75-8.42l-1.45.4a17,17,0,0,0,3.58,7.17A.75.75,0,0,0,96,80.08a18.86,18.86,0,0,0,0-8c-.22-.95-1.63-.54-1.45.4a20,20,0,0,0,2.8,7,.76.76,0,0,0,1.4-.38l-.35-5.84-1.47.2a32.38,32.38,0,0,0,2.66,6.78.76.76,0,0,0,1.37-.18,11.55,11.55,0,0,0,.44-4.71c-.11-.94-1.6-1-1.5,0a9,9,0,0,0,1.82,4.75.77.77,0,0,0,1.37-.18,6.4,6.4,0,0,0-.11-4.19l-1.37.58,1.68,3.83c.32.73,1.37.3,1.4-.38a4.9,4.9,0,0,0-1-3.28c-.58-.76-1.89,0-1.3.75a3.64,3.64,0,0,1,.82,2.53l1.4-.38-1.68-3.82c-.34-.78-1.67-.22-1.37.57a4.94,4.94,0,0,1,.1,3.39l1.38-.18a7.64,7.64,0,0,1-1.62-4h-1.5a10.48,10.48,0,0,1-.38,4.31l1.37-.18a31.37,31.37,0,0,1-2.52-6.42.75.75,0,0,0-1.47.2l.35,5.84,1.39-.38A18.74,18.74,0,0,1,96,72.13l-1.45.4a16.74,16.74,0,0,1,0,7.15l1.26-.33a15.52,15.52,0,0,1-3.19-6.51c-.22-1-1.63-.54-1.45.4a40.68,40.68,0,0,1,.7,8l1.4-.38a28.4,28.4,0,0,1-3.08-7.75c-.22-.94-1.64-.54-1.45.4a44.94,44.94,0,0,1,.89,7.22l1.4-.38a20,20,0,0,1-2.76-6.55c-.22-.94-1.66-.54-1.45.4A17.56,17.56,0,0,1,87,81.07l1.37-.18a27,27,0,0,1-2.78-6.43c-.23-.78-1.58-.67-1.48.19l1,8.28,1.4-.37A14.94,14.94,0,0,1,84,75.67l-1.48.2a33.37,33.37,0,0,1,.68,7l1.48-.2-2.24-7.06c-.24-.76-1.58-.68-1.47.2a30.78,30.78,0,0,1,0,7.43l1.4-.38a13.58,13.58,0,0,1-2.09-5c-.2-1-1.61-.54-1.45.4a23,23,0,0,1,.12,7.07l1.37-.18a15.16,15.16,0,0,1-2.73-5.62c-.2-.8-1.54-.66-1.47.2a27,27,0,0,1-.21,6.28l1.25-.33A10.48,10.48,0,0,1,74.25,80c-.14-.83-1.53-.65-1.47.2a32.55,32.55,0,0,1-.29,7.18l1.37-.18-2.5-4.49a.75.75,0,0,0-1.37.58A22.47,22.47,0,0,1,70.36,91l1.28-.53a7.71,7.71,0,0,1-2.73-4.59c-.19-1-1.6-.54-1.45.39a23.41,23.41,0,0,1,.17,6.31L68.91,92a8.79,8.79,0,0,1-2-3.82c-.24-1-1.59-.53-1.45.4l1,6.2,1.26-.73a6.73,6.73,0,0,1-2.16-3.45c-.26-1-1.6-.53-1.45.4a16.89,16.89,0,0,1,.09,4.71l1.28-.53-2-2.64c-.42-.54-1.27-.06-1.28.53a14.15,14.15,0,0,1-1,5l1.26-.33-1.95-1.63c-.53-.45-1.5,0-1.25.73a12.93,12.93,0,0,1,.59,4.32l1.28-.53-3-3.1a.76.76,0,0,0-1.26.73l1.61,6.06,1.25-.73a23.34,23.34,0,0,1-5.14-6.18c-.48-.85-1.7-.11-1.29.75a19.61,19.61,0,0,1,1.83,7l1.28-.53-4-4.77a.76.76,0,0,0-1.26.73l1.62,4.83,1.25-.73a16.32,16.32,0,0,1-4.08-5.87c-.35-.88-1.79-.51-1.44.4a24.36,24.36,0,0,1,1.6,7.35l1.4-.38a43.23,43.23,0,0,1-4.12-7.09c-.36-.78-1.6-.22-1.37.58L49.1,111.1l1.25-.73a38,38,0,0,1-6.86-11,.75.75,0,0,0-1.45.4,66.21,66.21,0,0,1,1.68,9.68l1.28-.53a20.23,20.23,0,0,1-6.59-11.07c-.2-.94-1.65-.54-1.44.4Z"/><path d="M36.32,201.76a.75.75,0,0,0,0-1.5.75.75,0,0,0,0,1.5Z"/><path d="M36.79,200.2a18.12,18.12,0,0,1-3.68-3.79,12.34,12.34,0,0,1-1.1-1.76,5.68,5.68,0,0,0-.27-.7c0-.14,0-.14,0,0l-.13.12a5.39,5.39,0,0,0,.87.16l-.45-.35a11.76,11.76,0,0,0,6.6,6.15c.72.28,1.24-.76.73-1.25a28.52,28.52,0,0,1-4.12-5.05A28.1,28.1,0,0,1,33.63,191c-.25-.5-.49-1-.7-1.52a2.23,2.23,0,0,1-.19-.62v-.17c0-.16,0-.19-.17-.09.32.32.72.56,1,.92a8.85,8.85,0,0,1,.89,1.28c.52.87,1,1.77,1.51,2.63a20.92,20.92,0,0,0,4.4,4.94.76.76,0,0,0,1.25-.73,13.58,13.58,0,0,0-2.49-5.07c-1-1.53-2.14-3.14-2.11-5.06l-.75.75c.58-.06,1,.53,1.28.93.47.56.94,1.13,1.4,1.7l2.72,3.27a.75.75,0,0,0,1.28-.53,8,8,0,0,0-1.64-4.77,4.29,4.29,0,0,0-.66-.62c-.22-.17-1.07-.59-1.1-.8s.86-.8,1.14-.95l-1-.27,4.44,5.77c.58.76,1.89,0,1.3-.76L41,185.41a.78.78,0,0,0-1-.27c-1.44.79-2.75,2.32-1,3.63a5.65,5.65,0,0,1,1.73,1.64,7.42,7.42,0,0,1,.82,3.17l1.28-.53-3.28-4c-.79-1-1.72-2.55-3.18-2.39a.78.78,0,0,0-.75.75c-.07,4.15,4,6.64,4.66,10.53l1.25-.73a21.17,21.17,0,0,1-5.14-6.34c-.63-1.12-2.9-5.23-4.63-3.52-.73.72-.44,1.88-.09,2.69a29.28,29.28,0,0,0,1.7,3.41,30.4,30.4,0,0,0,5,6.33l.73-1.25a10.17,10.17,0,0,1-4.83-3.85,12.72,12.72,0,0,1-.73-1.3,1.22,1.22,0,0,0-1-.78c-.8-.17-1.82-.12-2.1.8-.39,1.3.94,2.92,1.65,3.88A19.91,19.91,0,0,0,36,201.49c.77.59,1.52-.72.76-1.29Z"/><path d="M36.1,202.09a12.09,12.09,0,0,0-2.22-1,4.69,4.69,0,0,0-1.77-.35,1.07,1.07,0,0,0-1.05,1.15,3.3,3.3,0,0,0,1,2A4.83,4.83,0,0,0,34,205a.75.75,0,0,0,.92-.52.77.77,0,0,0-.52-.93l-.29-.11.06,0-.08,0-.16-.08a2.43,2.43,0,0,1-.35-.2l-.17-.11h0l-.05,0c-.11-.1-.22-.2-.32-.31s-.15-.22-.06-.08l-.13-.2a1.43,1.43,0,0,1-.15-.27s0-.12-.08-.16.07.17,0,.05a.49.49,0,0,1,0-.11.42.42,0,0,0,0-.16c.05.08,0,.16,0,.07s0,.07,0,.07,0,.07,0,.08l-.09.11-.05,0,0,0c.09,0-.21.07-.13.05h.06c.13,0-.22,0-.09,0h.19a1.38,1.38,0,0,0,.2,0c.3.07.59.16.88.25l.43.16.24.09.12.06a11.87,11.87,0,0,1,1.12.58.75.75,0,1,0,.76-1.29Z"/><path d="M25.46,225.15c1.14-.05,2.28-.08,3.42-.08a.75.75,0,0,0,.38-1.39,5.35,5.35,0,0,1-1.5-1.64l-.84,1.1a17.78,17.78,0,0,0,2.7.68,1.78,1.78,0,0,0,1.84-.37,1.49,1.49,0,0,0,.1-1.61,2.63,2.63,0,0,0-.56-.76c-.15-.15-.7-.48-.64-.72l-.93.53,2.69.5c.64.12,1.45.41,2,0a1.33,1.33,0,0,0,.13-1.71c-.41-.79-.91-1.55-1.36-2.32l-.84,1.1,3,1.08c.71.25,1.67.54,2-.38.3-.72-.16-1.43-.5-2.05l-1.53-2.86-1.18.91a10.93,10.93,0,0,0,4.27,2.47.76.76,0,0,0,.85-1.1l-2.78-5.59-1.18.91,1.79,1.57a13,13,0,0,0,1.7,1.45c.81.5,2.09.57,2.38-.54a.75.75,0,0,0-1.45-.4c.18-.69.4,0,.1-.22a2.23,2.23,0,0,0-.31-.15,8.42,8.42,0,0,1-1.05-.93l-2.1-1.84a.75.75,0,0,0-1.17.91l2.77,5.58.85-1.1A9,9,0,0,1,35,214.05a.75.75,0,0,0-1.17.91l.93,1.74.53,1c.09.17.28.72.43.81s.16.12.34-.26l-.55-.2-1-.34L32.46,217a.76.76,0,0,0-.85,1.1l.81,1.39a3.47,3.47,0,0,0,.41.7c.05.28.16.31.31.09s.24-.21-.08-.2a6.19,6.19,0,0,0-1.62-.3l-1.61-.31a.76.76,0,0,0-.92.53,1.69,1.69,0,0,0,.19,1.28c.26.42.68.64,1,1a.92.92,0,0,1,.18.32l.06-.17a9.9,9.9,0,0,0-1.11-.21,19.25,19.25,0,0,1-1.88-.51.76.76,0,0,0-.85,1.1,6.9,6.9,0,0,0,2,2.17l.38-1.4c-1.14,0-2.28,0-3.42.08-1,0-1,1.55,0,1.5Z"/><path d="M46.16,188.44l6,2a.75.75,0,0,0,.73-1.25,11.22,11.22,0,0,1-3.47-5.31l-1.25.73a14.75,14.75,0,0,0,5.62,3.18.75.75,0,0,0,.84-1.1l-3.47-6.11-1,1L56,185.75c.66.46,1.33-.41,1-1l-4.38-8.85-1.29.75a11.34,11.34,0,0,0,5.6,4.06c.58.2,1-.4.92-.92a38.86,38.86,0,0,0-2.74-8.67L54,172a23.16,23.16,0,0,0,4.86,4.57.76.76,0,0,0,1.13-.65,28.66,28.66,0,0,0-2-7.66l-1.37.58a10,10,0,0,0,4.87,4c.59.24,1-.42.93-.92a58,58,0,0,0-1.53-6.38l-1.26.73,3.49,3.78a.76.76,0,0,0,1.26-.73l-1.83-7.91-1.37.58a16.67,16.67,0,0,0,4.53,5.11c.46.36,1.13-.12,1.12-.64a21.12,21.12,0,0,0-1.65-8l-1.37.58a13.43,13.43,0,0,0,4.85,5.21.76.76,0,0,0,1.1-.85l-1.57-7.25-1.37.57a22.55,22.55,0,0,0,4.46,5.08c.43.37,1.37.18,1.28-.53l-.88-6.72-1.28.53,4.1,3.77a.76.76,0,0,0,1.25-.33,10,10,0,0,0-.13-6.82l-1.37.58A21,21,0,0,0,77,156.2a.75.75,0,0,0,1.25-.33,11.6,11.6,0,0,0-.35-5.7l-1.37.58a18.18,18.18,0,0,0,2.68,3.83.75.75,0,0,0,1.25-.33,13.6,13.6,0,0,0-.33-6.05l-1.45.4a12.3,12.3,0,0,0,3.09,4.75.76.76,0,0,0,1.28-.53,21.88,21.88,0,0,0-.74-5.87l-1.37.57,2.66,3.76A.76.76,0,0,0,85,151.1a9.77,9.77,0,0,0,.3-5.76l-1.26.73L87,148.63a.75.75,0,0,0,1.17-.15A9.77,9.77,0,0,0,89,143.1l-1.39.38,2.06,3.7a.75.75,0,0,0,1.39-.38l.32-4.21-1.47.2A4,4,0,0,0,92,145.7a.75.75,0,0,0,1.1-.45l1-4.21H92.63a7,7,0,0,0,1.87,3,.76.76,0,0,0,1.18-.15,8,8,0,0,0,1.09-4.57l-1.4.38,1.57,3.09a.76.76,0,0,0,1.3,0,9.16,9.16,0,0,0,1.29-3l-1.37.18a4.5,4.5,0,0,0,2.24,2.23.76.76,0,0,0,1.1-.45,11.69,11.69,0,0,0,.82-5.26l-1.4.38,1.65,2.87a.75.75,0,0,0,1.29,0,6.84,6.84,0,0,0,.67-5.36l-1.45.4,1,3.05a.76.76,0,0,0,1.45,0,14.53,14.53,0,0,0,.78-3.5l-1.48.2.78,2.6a.76.76,0,0,0,1.48-.2l.43-3.43-1.48.2a6.69,6.69,0,0,0,1.21,2.77.76.76,0,0,0,1.3,0l1.24-2.31h-1.29l1.19,1.79c.28.42,1.05.56,1.29,0a14.32,14.32,0,0,0,1.18-4.59l-1.39.38.92,1.8a.76.76,0,0,0,1.37-.18l1-2.64-1.37.18,1,2.11a.76.76,0,0,0,1.3,0l1.26-2.6-1.4-.38a3.57,3.57,0,0,0,.68,2.12.76.76,0,0,0,1.18.16,6.75,6.75,0,0,0,2-3.6l-1.37.18.94,1.72a.77.77,0,0,0,1.3,0,8.84,8.84,0,0,0,1.67-4.58l-1.4.38,1.12,2a.76.76,0,0,0,1.37-.18c0-.14.74-1.68.89-1.11a.75.75,0,0,0,1.44,0,5.51,5.51,0,0,1,1.2-2.59h-1.06l1.26,1.53a.75.75,0,0,0,1.06,0,10.85,10.85,0,0,0,2.19-3.94l-1.37.18,1,1.49a.75.75,0,0,0,1.29,0,14.08,14.08,0,0,0,1.65-4l-1.25.33a3.76,3.76,0,0,0,2,1,.77.77,0,0,0,.85-.34l1.59-3.18-1.17.15a7.64,7.64,0,0,0,3.08,1.6.76.76,0,0,0,.92-.53,6.18,6.18,0,0,1,.9-2.21h-1.29a5.53,5.53,0,0,0,4,2.33.77.77,0,0,0,.72-.55l1.23-3.32-1.25.33,2,1.54a.76.76,0,0,0,1.25-.33,11.55,11.55,0,0,0,.58-4.44l-1.39.37,2,2.68c.35.46,1.24.53,1.37-.18l.95-4.89-1.37.18a17.94,17.94,0,0,0,2.65,4.27c.45.54,1.24.06,1.28-.53l.36-5.42-1.48.2,1.33,4.45a.75.75,0,0,0,1.47-.2l.56-6-1.47.2,1.55,5.12a.76.76,0,0,0,1.45,0,20.71,20.71,0,0,0,.11-8.15c-.17-1-1.59-.54-1.44.4l.92,5.74c.14.87,1.44.61,1.47-.2l.38-8.58-1.48.19,1.18,8c.12.86,1.44.61,1.47-.2l.37-9.88h-1.5l.9,7a.75.75,0,0,0,1.5,0l1.2-10-1.48.19a25,25,0,0,1,.58,5.45H161l-.27-9.69h-1.5l.23,7.23a.75.75,0,0,0,1.5,0l-.23-7.23a.75.75,0,0,0-1.5,0l.27,9.69a.75.75,0,0,0,1.5,0,27.2,27.2,0,0,0-.63-5.84c-.2-.9-1.38-.58-1.47.2l-1.2,10h1.5l-.9-7a.75.75,0,0,0-1.5,0l-.37,9.88,1.47-.2-1.17-7.94c-.13-.87-1.44-.61-1.47.2l-.38,8.58,1.48-.2-.93-5.74-1.44.4a18.75,18.75,0,0,1-.12,7.35h1.45l-1.56-5.12a.75.75,0,0,0-1.47.2l-.56,6,1.48-.2-1.33-4.44a.75.75,0,0,0-1.47.19l-.36,5.42,1.28-.53a17,17,0,0,1-2.42-4,.76.76,0,0,0-1.37.18l-.94,4.89,1.37-.17-2-2.68c-.4-.53-1.45-.45-1.4.38a10.48,10.48,0,0,1-.53,4l1.26-.33-2-1.54a.77.77,0,0,0-1.26.33L140.83,118l.73-.55a3.88,3.88,0,0,1-2.72-1.59.76.76,0,0,0-1.29,0,6.93,6.93,0,0,0-1.05,2.58l.92-.53a6,6,0,0,1-2.42-1.21.77.77,0,0,0-1.18.15l-1.6,3.18.85-.34a2.4,2.4,0,0,1-1.3-.62.76.76,0,0,0-1.26.33,12.7,12.7,0,0,1-1.49,3.64h1.29l-1-1.5a.76.76,0,0,0-1.37.18,8.93,8.93,0,0,1-1.8,3.28h1.06l-1.26-1.53a.75.75,0,0,0-1.06,0,6.91,6.91,0,0,0-1.58,3.26h1.44a1.64,1.64,0,0,0-2-1.18c-1.08.24-1.51,1.33-1.78,2.28l1.37-.18-1.11-2a.76.76,0,0,0-1.4.38,7.41,7.41,0,0,1-1.47,3.82h1.3l-.94-1.71a.76.76,0,0,0-1.38.18,5.29,5.29,0,0,1-1.64,2.93l1.18.15a2.22,2.22,0,0,1-.48-1.37c0-.7-1.06-1.09-1.4-.38l-1.26,2.6H115l-1-2.11c-.31-.64-1.17-.37-1.37.18l-1,2.64,1.37-.18-.93-1.8c-.37-.71-1.34-.3-1.4.38a11.74,11.74,0,0,1-1,3.83H111l-1.19-1.79a.75.75,0,0,0-1.29,0l-1.25,2.31h1.3a5.58,5.58,0,0,1-1.06-2.41c-.17-.9-1.38-.56-1.47.2l-.43,3.43,1.47-.2-.78-2.6a.75.75,0,0,0-1.47.2,12.72,12.72,0,0,1-.73,3.1h1.45l-1-3.05a.75.75,0,0,0-1.45.4,5.32,5.32,0,0,1-.51,4.2h1.29l-1.65-2.87a.75.75,0,0,0-1.39.38,10.76,10.76,0,0,1-.76,4.86l1.1-.45a3.28,3.28,0,0,1-1.7-1.68.77.77,0,0,0-1.38.17A7.53,7.53,0,0,1,96.94,142h1.3L96.66,139a.75.75,0,0,0-1.39.38,6.67,6.67,0,0,1-.88,3.81l1.17-.15a5.42,5.42,0,0,1-1.48-2.35.76.76,0,0,0-1.45,0l-1,4.22,1.11-.45a2.63,2.63,0,0,1-1.4-2c-.14-.88-1.41-.59-1.47.2l-.32,4.21,1.4-.38-2.06-3.7c-.34-.61-1.49-.38-1.4.38a8.51,8.51,0,0,1-.64,4.62l1.18-.15L85.11,145a.75.75,0,0,0-1.25.73,8.33,8.33,0,0,1-.3,5l1.37-.18-2.66-3.75a.75.75,0,0,0-1.37.58,20.57,20.57,0,0,1,.69,5.47l1.28-.53a10.79,10.79,0,0,1-2.7-4.09c-.33-.89-1.72-.54-1.45.4a11.8,11.8,0,0,1,.33,5.25l1.26-.33A16.88,16.88,0,0,1,77.86,150a.75.75,0,0,0-1.37.58,10.06,10.06,0,0,1,.36,4.9l1.25-.33a20.27,20.27,0,0,1-2.59-3.58c-.4-.72-1.68-.24-1.37.58a8.66,8.66,0,0,1,.13,6l1.26-.33-4.1-3.77c-.42-.39-1.37-.16-1.28.53l.88,6.72,1.28-.53A21.1,21.1,0,0,1,68.09,156a.75.75,0,0,0-1.37.58l1.56,7.25,1.1-.85a11.79,11.79,0,0,1-4.3-4.67c-.39-.73-1.71-.21-1.37.58a20,20,0,0,1,1.59,7.6l1.13-.65a15.25,15.25,0,0,1-4-4.58.75.75,0,0,0-1.37.58l1.83,7.91,1.25-.73-3.49-3.78a.75.75,0,0,0-1.25.73,58,58,0,0,1,1.53,6.38l.92-.92a8.35,8.35,0,0,1-4-3.35c-.42-.69-1.71-.24-1.37.57a26.91,26.91,0,0,1,2,7.26l1.13-.65A21.78,21.78,0,0,1,55,170.94c-.58-.72-1.5.2-1.18.91a37.24,37.24,0,0,1,2.58,8.31l.93-.92a9.74,9.74,0,0,1-4.71-3.37.75.75,0,0,0-1.29.75l4.38,8.86,1-1-5.92-4.11c-.64-.45-1.37.41-1,1l3.47,6.12.84-1.1a13,13,0,0,1-5-2.8.76.76,0,0,0-1.26.73,12.76,12.76,0,0,0,3.85,6L52.5,189l-5.94-2c-.92-.32-1.31,1.13-.4,1.44Z"/></g></g></svg>