<svg id="Layer_1" data-name="Layer 1" xmlns="http://www.w3.org/2000/svg" viewBox="0 0 268.69 428.93"><defs><style>.cls-1{fill:none;stroke:#000;stroke-miterlimit:10;stroke-width:0.25px;}</style></defs><title>sleep</title><path d="M108.51,149.22c4.13,2.18,9.29.52,13.24-1.26a58.93,58.93,0,0,0,16.77-12.15,69.09,69.09,0,0,0,11.15-14.22,24,24,0,0,0,1.92-4.15c1.65-4.73,2-9.93,2.26-14.9.68-11.4.59-22.87.57-34.29,0-9.24-.08-18.49-.2-27.73a180.07,180.07,0,0,0-1-20.64c-.47-3.55-1.12-7.6-3.5-10.43s-6.06-3.24-9.47-2.39a37.68,37.68,0,0,0-8,3.28c-3.87,2-7.63,4.19-11.4,6.36-6.35,3.66-13.1,7-18.92,11.52a22.18,22.18,0,0,0-7.73,11.05c-1.7,5.31-1.67,11-1.21,16.5.68,8,2.2,15.9,3.61,23.78.72,4,1.51,8,2.49,11.9.59,2.39,1.26,4.77,1.74,7.19,1.3,6.65.58,13.42.1,20.12a54.87,54.87,0,0,0,.27,11.81,66.57,66.57,0,0,0,2.66,12.25c.88,2.54,2.19,5,4.6,6.4a.37.37,0,0,0,.38-.64c-2.86-1.64-4-5-4.87-8a74.1,74.1,0,0,1-2.31-12.53c-.68-7.56.85-15.08.63-22.65-.14-4.89-1.31-9.46-2.48-14.18-2-7.9-3.28-16-4.57-24-1.76-10.9-4.06-24.11,2.63-33.89,2.91-4.25,7.84-7,12.17-9.55,7.23-4.3,14.51-8.61,22-12.5,4-2.11,9.66-5.29,14.35-3.39,3,1.21,4.39,4.23,5.18,7.17,1.4,5.23,1.52,10.82,1.7,16.2.28,8.59.28,17.19.33,25.79.09,13,.2,26.11-.23,39.16-.2,6-.35,12.25-1.71,18.15A30.53,30.53,0,0,1,146.59,125a72.91,72.91,0,0,1-15.84,16.58c-4.59,3.46-10,6.85-15.79,7.72a9.81,9.81,0,0,1-6.07-.74C108.47,148.35,108.09,149,108.51,149.22Z" transform="translate(-92.77 -6.67)"/><path d="M113.55,151.84a250,250,0,0,0,5,73.1c2.66,12,6.06,23.84,9.08,35.77,2.78,11,5.28,22.1,7.42,33.26q4.31,22.36,6.85,45c.05.47.8.48.75,0a588.47,588.47,0,0,0-12.88-72.78c-3-12.29-6.49-24.45-9.41-36.76a244.93,244.93,0,0,1-6-36.91,259.63,259.63,0,0,1-.1-40.7c0-.49-.71-.48-.75,0Z" transform="translate(-92.77 -6.67)"/><path d="M246.3,312q-12.37-23.57-25.36-46.82-13.38-24-27.39-47.55-7.76-13.06-15.7-26a.38.38,0,0,0-.65.38q14.19,23.1,27.77,46.57t26.63,47.49q7.11,13.11,14.05,26.31c.22.43.87.05.65-.38Z" transform="translate(-92.77 -6.67)"/><path d="M162.77,344.08A21.19,21.19,0,0,0,155.9,339a24.88,24.88,0,0,0-5.54-1.65,11.78,11.78,0,0,0-5.44-.15c-3.88,1.1-3.56,5.66-3,8.82,1.89,11.34,7.91,22.74,5.27,34.48a18.66,18.66,0,0,1-7.06,10.91c-5.19,3.86-10.77,7.26-15.49,11.72-5.25,5-10.24,12.93-7,20.33a7.69,7.69,0,0,0,7.67,4.89,12.35,12.35,0,0,0,8.76-5.27c2.57-3.49,3.83-7.71,5.78-11.53a42.9,42.9,0,0,1,7.8-10.77c5.12-5.12,11.72-8.6,16.37-14.24,1.2-1.45,2.15-2.85,2.07-4.74,0-.05,0-.09,0-.13,0,.41.29-.62.34-.77a19.94,19.94,0,0,0,.81-3.66,44,44,0,0,0,.17-8.74,112.48,112.48,0,0,0-2.73-17.4q-.63-2.79-1.37-5.56a23.4,23.4,0,0,1-.43-5.81,182.87,182.87,0,0,1,.45-21.71c.68-6.73,1.48-13.46,2-20.21A120.55,120.55,0,0,0,164,271a145.24,145.24,0,0,0-11.2-37.66,140.79,140.79,0,0,0-6.49-12.57.37.37,0,0,0-.64.38,145.25,145.25,0,0,1,15.45,39.09,130.16,130.16,0,0,1,3.37,22.29c.56,9-.27,17.93-1.16,26.91-.57,5.75-1.29,11.34-1.39,16.88-.06,3.12,0,6.25,0,9.37q0,3.12.11,6.22a14,14,0,0,0,.13,2.75c.8,3.59,1.82,7.12,2.53,10.73a84,84,0,0,1,1.95,17.87,24.51,24.51,0,0,1-1.14,7.61,2.93,2.93,0,0,0-.2,1.38,4,4,0,0,1-.73,2.08,22.08,22.08,0,0,1-3.85,4.45,105,105,0,0,1-9.27,7.56,43.36,43.36,0,0,0-8.42,8.48,52.44,52.44,0,0,0-6,10.87c-1.65,3.8-3.48,7.89-7.1,10.2s-8.39,2.47-10.94-1.36c-2.24-3.37-2-7.86-.58-11.49,3-7.76,10.47-12.83,17-17.45,3-2.15,6.36-4.05,8.68-7,7.16-9.12,4.1-21.46,1.32-31.64-1.25-4.59-3.08-9.46-3.09-14.27a5.17,5.17,0,0,1,1.43-4.1c1.58-1.28,4-1,5.84-.65a24.91,24.91,0,0,1,5.94,1.69,20.65,20.65,0,0,1,6.72,5c.32.36.85-.17.53-.53Z" transform="translate(-92.77 -6.67)"/><path d="M221.4,176.07l29.94,65.78q4.24,9.3,8.47,18.6c.2.43.85.05.65-.38l-29.94-65.78q-4.25-9.3-8.47-18.6c-.2-.44-.85-.06-.65.38Z" transform="translate(-92.77 -6.67)"/><path d="M157.57,125.13l-8.78-4.4c-.43-.21-.81.44-.38.65l8.79,4.39c.43.22.81-.43.37-.64Z" transform="translate(-92.77 -6.67)"/><path d="M106.52,149.65a340,340,0,0,1,31.75,17.76c7.44,4.73,14.47,10,21.63,15.09,8.17,5.86,17,10.9,26.91,13.13a55.56,55.56,0,0,0,8.51,1.22c1.51.09,3,.12,4.54.09a5.23,5.23,0,0,0,1.37-.05,6.29,6.29,0,0,0,1.34-.79A56.6,56.6,0,0,0,215,185.43c4.11-4.6,7.3-9.72,7.81-16a27.33,27.33,0,0,0-3.42-15c-.23-.43-.88,0-.65.38a26.82,26.82,0,0,1,3.38,13.27c-.14,6-2.82,11.19-6.67,15.68a57.62,57.62,0,0,1-12.13,11,6.84,6.84,0,0,1-2.74,1.41,29.94,29.94,0,0,1-4.34,0,52.76,52.76,0,0,1-8.78-1.15c-9.68-2.1-18.35-6.91-26.36-12.59-6.81-4.83-13.44-9.85-20.45-14.39a338.94,338.94,0,0,0-33.7-19c-.43-.21-.81.43-.38.65Z" transform="translate(-92.77 -6.67)"/><path d="M296,406.66a67.74,67.74,0,0,0,27.61-13.3,63.73,63.73,0,0,0,17.58-23.93,122.91,122.91,0,0,0,5.48-16.76q2.88-10.57,5.23-21.29,4.67-21.15,7.5-42.63a205.67,205.67,0,0,0,1.83-37.93,200.66,200.66,0,0,0-5.52-37.2c-5.93-24.18-16.27-47.48-31.11-67.52-13.76-18.57-32.85-34.18-56.05-38.55a74.27,74.27,0,0,0-8.42-1.09c-.48,0-.48.72,0,.75,23.79,1.73,44.37,15.49,59.3,33.48,15.63,18.84,26.63,41.65,33.41,65.08a194.43,194.43,0,0,1,7,72.83c-1.37,13.9-3.68,27.76-6.37,41.47a398.36,398.36,0,0,1-9.94,40.77,69,69,0,0,1-14.93,26.75,62.13,62.13,0,0,1-25.22,16.14q-3.75,1.29-7.61,2.2c-.46.11-.27.84.2.73Z" transform="translate(-92.77 -6.67)"/><path d="M213.18,388.14C227,400.83,245.47,407.51,264,409a101.49,101.49,0,0,0,16,.05c.48,0,.48-.79,0-.75-18.36,1.38-37.45-2.09-53.5-11.36a72.89,72.89,0,0,1-12.79-9.36c-.35-.32-.89.21-.53.53Z" transform="translate(-92.77 -6.67)"/><path d="M155.92,243.83q9.65,24.33,18.62,48.9c5.78,15.84,11.37,31.75,16.62,47.78,3.8,11.61,7.37,23.45,13.16,34.27,5.7,10.64,13.79,19.72,24.51,25.46,13.69,7.33,29.74,9.41,45.07,9.11,2,0,4.07-.13,6.1-.25.48,0,.48-.77,0-.75-15.87.93-32.4-.33-47.06-6.93a58.38,58.38,0,0,1-26.42-24.25c-6.17-10.53-9.88-22.27-13.64-33.8-5-15.35-10.3-30.6-15.78-45.78q-8.72-24.15-18.12-48l-2.34-5.92c-.17-.44-.9-.25-.72.2Z" transform="translate(-92.77 -6.67)"/><path d="M262.49,106.46l-27.21-1c-.49,0-.49.73,0,.75l27.21,1c.49,0,.49-.73,0-.75Z" transform="translate(-92.77 -6.67)"/><path d="M232.4,135.4c10.49-5.72,23.1-7.93,34.71-4.6a.37.37,0,0,0,.2-.72c-11.81-3.39-24.63-1.14-35.29,4.68-.43.23-.05.88.38.64Z" transform="translate(-92.77 -6.67)"/><path d="M239.16,104.21a61.89,61.89,0,0,0-32.3-13.78c-13.61-1.4-29.31,1.62-38.74,12.27-5.4,6.1-8.33,14.27-10,22.12-1.74,8-2,16.76,1,24.53a30.31,30.31,0,0,0,15.3,16.05,34.37,34.37,0,0,0,22.93,2.1c7.94-1.95,14.62-6.41,20.43-12s10.72-11.8,17.29-16.31a34.72,34.72,0,0,1,4.91-2.83c.44-.21.06-.86-.38-.65-13.74,6.51-20.88,21.48-34.51,28.21a36,36,0,0,1-24,3.1,31.06,31.06,0,0,1-18.45-12.45C158,147.65,157,139.11,157.83,131a57.09,57.09,0,0,1,7.51-23.26c7.59-12.38,22.07-16.8,35.86-16.84,12.83-.05,25.29,4.69,35.5,12.34.65.49,1.29,1,1.93,1.5.37.3.9-.22.53-.53Z" transform="translate(-92.77 -6.67)"/><path d="M251.41,104.69A54.72,54.72,0,0,0,249,131.81a65,65,0,0,0,4.17,13.76,64.38,64.38,0,0,0,5.89,12,62.18,62.18,0,0,0,6.67,7.91c.33.36.86-.18.53-.53a67.88,67.88,0,0,1-5.69-6.53,53.88,53.88,0,0,1-5.9-11.22,73.62,73.62,0,0,1-4.57-13.64,51.84,51.84,0,0,1-1-13.5,54.36,54.36,0,0,1,3-15.19c.16-.46-.57-.66-.73-.2Z" transform="translate(-92.77 -6.67)"/><path d="M266.89,132.61a25.59,25.59,0,0,0-1.41,17.81c.51,1.75,1.3,3.38,1.9,5.09a29.2,29.2,0,0,1,1.3,5.19,66.76,66.76,0,0,1,.54,12.24c-.12,5.62-.44,11.24-.62,16.87-.37,11.53-.62,23.28.57,34.78.36,3.47,1,6.69.65,10.19-1.18,11.61-8.7,21.25-14.36,31-2.69,4.65-5.17,9.55-6.35,14.83a28.32,28.32,0,0,0-.65,8.11c.14,2,.56,4,.87,6,.81,5.21.43,11.18-2.58,15.68-.49.74-1.13,1.28-1.66,2a23.93,23.93,0,0,0-1.79,3.21,114.53,114.53,0,0,1-10.69,15.33c-.32.39-.67.76-1,1.15-.58.79-.29.36-.22.32a2,2,0,0,1-.26.09c-.29.14-.61.25-.91.38q-1.65.72-3.24,1.59c-7.54,4.13-14,10.48-17.38,18.47-4.36,10.31-3.13,22.13,2.32,31.78.58,1,1.2,2,1.87,3,.28.39.93,0,.65-.38a36.29,36.29,0,0,1-6-28.06c2.07-9.66,8.45-17.63,16.73-22.81a42.76,42.76,0,0,1,6.2-3.2,1.67,1.67,0,0,0,.81-.61c1.29-1.46,2.49-3,3.67-4.57,1.94-2.54,3.79-5.15,5.52-7.84,1.16-1.81,2.28-3.66,3.32-5.54a9.67,9.67,0,0,1,1.27-2.05,17.32,17.32,0,0,0,4.22-9.63,29,29,0,0,0-.13-8.42,56.15,56.15,0,0,1-.88-6.45c-.24-5.6,1.43-11,3.82-16,4.87-10.22,12.49-19.08,16-30a30.59,30.59,0,0,0,1.32-14.25c-1.32-8.9-1.23-18.06-1.19-27,0-6.54.27-13.07.54-19.6.2-4.74.44-9.5.29-14.24a39.9,39.9,0,0,0-1.53-10.65c-.49-1.59-1.22-3.08-1.77-4.65a24.2,24.2,0,0,1,.87-18.67c.2-.44-.45-.82-.65-.38Z" transform="translate(-92.77 -6.67)"/><path d="M279.91,410.14c-.88,1.21-1.77,3-3.34,3.42a14.15,14.15,0,0,1-4.89-.3c-3.1-.48-6.13-1.3-9.2-1.92-5.8-1.17-11.73-1.4-16.67,2.34a.37.37,0,0,0,0,.64c5,2.86,11-.82,16,2l.09-.68c-7.32,3.07-15.43,3.12-23.11,4.76-.47.1-.27.82.2.72,7.68-1.63,15.79-1.69,23.11-4.76a.38.38,0,0,0,.09-.68c-5-2.86-11,.82-16-2v.64c5.77-4.36,12.68-3.05,19.23-1.57a57.88,57.88,0,0,0,9.05,1.57,4.9,4.9,0,0,0,3.52-.64,13.75,13.75,0,0,0,2.56-3.16c.29-.39-.36-.76-.64-.38Z" transform="translate(-92.77 -6.67)"/><path d="M302.26,170.47c-7,28.89-3.72,58.73-2.76,88.07.11,3.66.2,7.31.22,11s.34,7.68-.56,11.29c-1.82,7.36-3.27,14.8-4.46,22.29-2.34,14.65-3.72,29.42-5.1,44.18-1.58,16.93-3.21,33.86-6.24,50.6-.09.47.63.68.72.2,5.37-29.61,6.24-59.78,10.54-89.54,1.06-7.33,2.34-14.63,3.94-21.86q.6-2.73,1.27-5.44c.18-.73.44-1.48.55-2.22a28.26,28.26,0,0,0,.07-3.32c.05-3.64,0-7.29,0-10.94-.29-14.83-1.38-29.64-1.69-44.47-.35-16.63.34-33.38,4.26-49.61.11-.46-.61-.66-.72-.19Z" transform="translate(-92.77 -6.67)"/><path d="M321.14,187.19q4.16,16.65,6.8,33.64A338.21,338.21,0,0,1,331.86,265a290.67,290.67,0,0,1-3.25,50.79A252.37,252.37,0,0,1,314,369.83a237.7,237.7,0,0,1-28.8,52.26q-2,2.81-4.17,5.56c-.29.38.36.75.65.38A239,239,0,0,0,312,376.66a249,249,0,0,0,16.26-54.34,285.28,285.28,0,0,0,4.42-51.19A333.27,333.27,0,0,0,329.46,226q-2.49-17.92-6.74-35.54c-.28-1.17-.57-2.34-.86-3.51-.11-.47-.84-.27-.72.2Z" transform="translate(-92.77 -6.67)"/><path d="M262.23,107.1a22.06,22.06,0,0,1,4.32,26.62c-.23.42.42.8.65.38a22.82,22.82,0,0,0-4.44-27.53c-.35-.33-.89.2-.53.53Z" transform="translate(-92.77 -6.67)"/><path d="M132.41,152A89.45,89.45,0,0,0,156,168.47c7.41,3.5,15.31,6.07,23,8.88q7.49,2.73,15,5.38a.4.4,0,0,0,.42-.17l11.8-18.89c.26-.41-.39-.78-.65-.38l-11.8,18.89.42-.17Q179.83,177,165.62,171.6a97.53,97.53,0,0,1-18.42-8.85,92.65,92.65,0,0,1-14.26-11.33c-.35-.34-.88.19-.53.53Z" transform="translate(-92.77 -6.67)"/><path d="M132.87,152a107.1,107.1,0,0,0,11.21-9.64c1.83-1.8,3.59-3.66,5.3-5.58.84-1,1.67-1.92,2.48-2.9a6.28,6.28,0,0,0,1.06-1.31,7.86,7.86,0,0,0,.24-1.76c.06-.47-.69-.47-.75,0a3.69,3.69,0,0,1-.59,2c-.34.46-.73.89-1.1,1.32-.78.92-1.57,1.83-2.38,2.73-1.63,1.81-3.31,3.58-5.05,5.28a105.72,105.72,0,0,1-10.8,9.26c-.39.28,0,.94.38.65Z" transform="translate(-92.77 -6.67)"/><path d="M215.56,167.11a15.25,15.25,0,0,1-2.09,7.06c-1.19,2.27-2.5,4.49-3.76,6.73-.23.42.41.8.65.38,1.34-2.38,2.75-4.74,4-7.18a15.38,15.38,0,0,0,2-7,.38.38,0,0,0-.75,0Z" transform="translate(-92.77 -6.67)"/><path d="M215.94,165.73a6.19,6.19,0,0,1-3.18-1.48,6.58,6.58,0,0,0-3.26-1.46c-.48,0-.48.71,0,.75a6.71,6.71,0,0,1,3.17,1.56,6.16,6.16,0,0,0,3.27,1.38.38.38,0,0,0,0-.75Z" transform="translate(-92.77 -6.67)"/><path d="M209.31,180.55a8.61,8.61,0,0,1-3.32-1.89,6.83,6.83,0,0,0-3.4-1.65c-.48,0-.48.7,0,.75a6.89,6.89,0,0,1,3.24,1.71,8.48,8.48,0,0,0,3.28,1.81c.47.09.68-.63.2-.73Z" transform="translate(-92.77 -6.67)"/><path d="M208.71,163.11a17.55,17.55,0,0,1-2.11,7.5,29.1,29.1,0,0,1-4.64,5.62c-.35.34.18.87.53.53a29.39,29.39,0,0,0,4.87-6,18.55,18.55,0,0,0,2.1-7.69c0-.48-.71-.48-.75,0Z" transform="translate(-92.77 -6.67)"/><path d="M139.67,148.48c.84,1,2.16,1.37,3.17,2.18a2.19,2.19,0,0,1,.89,1.35,1.19,1.19,0,0,1-.48,1.21.38.38,0,0,0,.38.65,1.87,1.87,0,0,0,.86-1.56,2.52,2.52,0,0,0-.7-1.78c-1-1.13-2.63-1.41-3.59-2.58-.3-.37-.83.16-.53.53Z" transform="translate(-92.77 -6.67)"/><path d="M145.63,151.49c.58-1.22,1.19-2.43,1.74-3.67.22-.5.22-1.11-.35-1.36a2.5,2.5,0,0,0-.72-.15.6.6,0,0,1-.23-.06.87.87,0,0,0-.11-.09c-.05,0,0,.07,0,0,.27-.4-.38-.77-.65-.38s.07,1,.5,1.15a2.41,2.41,0,0,0,.65.12c.06,0,.23,0,.27.08s0,.21,0,.28c-.24.61-.56,1.2-.84,1.78l-.9,1.89c-.2.44.45.82.65.38Z" transform="translate(-92.77 -6.67)"/><path d="M154.1,136l1-1.69c.28-.48.74-1.1.38-1.65a1.2,1.2,0,0,0-1-.42h-.5l-.09,0s-.12,0-.08,0-.06,0-.07-.05-.06-.07,0,0a.38.38,0,0,0-.51-.13.37.37,0,0,0-.13.51,1.26,1.26,0,0,0,1,.47l.49,0h.15c-.07,0,0,0,0,0l.09,0s0,0,0,0l0,0h0s0,0,0,0v0c0-.09,0,.06,0,.05a.65.65,0,0,1,0,.13c-.11.26-.28.5-.41.74l-.91,1.6c-.23.42.41.8.65.38Z" transform="translate(-92.77 -6.67)"/><path d="M149.47,144.39a2.17,2.17,0,0,0,1.69.7.38.38,0,0,0,.33-.18l1.56-3a.38.38,0,0,0-.43-.55,4.94,4.94,0,0,0-2.86,1.95.38.38,0,1,0,.65.38,4.14,4.14,0,0,1,2.41-1.61l-.42-.55-1.56,3,.32-.19a1.45,1.45,0,0,1-1.16-.48c-.33-.35-.86.18-.53.53Z" transform="translate(-92.77 -6.67)"/><path d="M154.9,139.43l-.43,2.11a.39.39,0,0,0,.36.48,4.07,4.07,0,0,1,2.43.61.38.38,0,0,0,.55-.23,4.14,4.14,0,0,0-1.24-3.89c-.36-.32-.89.21-.53.53a3.39,3.39,0,0,1,1.05,3.16l.55-.22a4.79,4.79,0,0,0-2.81-.71l.37.47.42-2.11a.37.37,0,0,0-.26-.46.38.38,0,0,0-.46.26Z" transform="translate(-92.77 -6.67)"/><path d="M147.46,153.12a4.8,4.8,0,0,1,1.86-3.06c.2-.15.28-.52,0-.65l-1.2-.56a.38.38,0,0,0-.38.65l1.2.56v-.65a5.55,5.55,0,0,0-2.2,3.51.38.38,0,0,0,.26.46.37.37,0,0,0,.46-.26Z" transform="translate(-92.77 -6.67)"/><path d="M150.2,153c.84,1,2.15,1.37,3.16,2.17a2.19,2.19,0,0,1,.89,1.36,1.19,1.19,0,0,1-.48,1.21.38.38,0,0,0,.38.65,1.85,1.85,0,0,0,.86-1.56,2.53,2.53,0,0,0-.69-1.79c-1-1.12-2.64-1.41-3.59-2.57-.31-.37-.84.16-.53.53Z" transform="translate(-92.77 -6.67)"/><path d="M157.28,155.36c.84,1,2.15,1.37,3.16,2.17a2.19,2.19,0,0,1,.89,1.36,1.18,1.18,0,0,1-.48,1.21.38.38,0,0,0,.38.65,1.85,1.85,0,0,0,.86-1.56,2.55,2.55,0,0,0-.69-1.79c-1-1.12-2.63-1.4-3.59-2.57-.31-.37-.84.16-.53.53Z" transform="translate(-92.77 -6.67)"/><path d="M153.17,150.32l1.46-1.53a4.25,4.25,0,0,0,1-1.56,1.74,1.74,0,0,0-1.34-2.36c-.48,0-.48.72,0,.75a.8.8,0,0,1,.63.58,1.43,1.43,0,0,1-.16,1.17,6.15,6.15,0,0,1-.92,1.13l-1.23,1.29c-.33.35.2.88.53.53Z" transform="translate(-92.77 -6.67)"/><path d="M242,106.67c2.81.71,4.61,3.16,5.92,5.58a26.44,26.44,0,0,1,2.84,8.36,41.76,41.76,0,0,1,.19,8.94,19.48,19.48,0,0,0,.86,8.07c.17.45.9.26.72-.2-1.2-3.08-.9-6.39-.73-9.63a32.42,32.42,0,0,0-.66-9.11c-1.09-4.7-3.7-11.42-8.94-12.73-.47-.12-.67.61-.2.72Z" transform="translate(-92.77 -6.67)"/><path d="M236.79,119.11a6.87,6.87,0,0,0,2,6.57c2,2,4.91,2.9,7.22,4.56,4.79,3.44,7,9.58,6.57,15.33,0,.48.71.48.75,0a18.42,18.42,0,0,0-4.7-14c-1.87-2-4.22-3.11-6.56-4.43-2.81-1.59-5.51-4.29-4.56-7.81a.38.38,0,0,0-.73-.2Z" transform="translate(-92.77 -6.67)"/><path d="M246,119c3.58,6.85,7.27,14.24,6.83,22.19-.38,6.78-5.47,14.62-1.34,21.12.25.41.9,0,.64-.38-2.16-3.4-1.49-7.65-.54-11.34s2.09-7.3,2-11.18c-.14-7.45-3.58-14.33-7-20.79-.22-.43-.87-.05-.65.38Z" transform="translate(-92.77 -6.67)"/><path d="M238.71,130.56c-.71,6.26,4,11,8.75,14.21,2.68,1.82,5.5,3.51,7.72,5.91a20.45,20.45,0,0,1,4.59,9.75c.1.47.82.27.72-.2a22.11,22.11,0,0,0-3.82-8.95,27,27,0,0,0-6.53-5.62c-5.23-3.52-11.5-7.9-10.68-15.1.06-.47-.69-.47-.75,0Z" transform="translate(-92.77 -6.67)"/><path d="M250.54,129c5.06,6.91,3.53,16.32,1.85,24.11A95.8,95.8,0,0,0,250,166.7c-.07,1.1-.09,2.21-.06,3.31a7.69,7.69,0,0,0,.45,3.09,1.6,1.6,0,0,0,2.52.67c.38-.3-.15-.83-.53-.53-1.59,1.24-1.69-3.14-1.7-3.71,0-1,0-2,.09-3.06a54.86,54.86,0,0,1,1-6.75c.77-4,1.81-7.89,2.41-11.89,1-6.42,1-13.7-3-19.17-.28-.39-.93,0-.65.38Z" transform="translate(-92.77 -6.67)"/><path d="M244.6,149.69a5.63,5.63,0,0,0-.19,6.28c1.41,2.53,4.24,3.62,6.52,5.18a12.61,12.61,0,0,1,5.21,8.07c.67,3.5-.07,7.1.75,10.58a.38.38,0,0,0,.73-.2c-.77-3.25-.17-6.6-.64-9.88a13.7,13.7,0,0,0-3-6.85c-1.74-2.1-4.14-3.15-6.33-4.66-2.43-1.67-4.68-5.21-2.49-8,.29-.37-.24-.91-.53-.53Z" transform="translate(-92.77 -6.67)"/><path d="M252.68,154.72c3.14,5.63,5.29,12.61,3.14,19-1,2.95-3.3,5.36-3.87,8.45s.7,6.31,2,9.17c.19.44.84.06.64-.37-1.62-3.7-2.85-7.41-1-11.25,1.37-2.75,3-5.09,3.55-8.19,1-5.94-.95-12-3.82-17.15a.38.38,0,0,0-.65.38Z" transform="translate(-92.77 -6.67)"/><path d="M244.88,175.59A25.41,25.41,0,0,0,251.43,186a17.75,17.75,0,0,1,3.88,4.68c1.25,2.57.8,5.42.34,8.12-.08.47.64.68.72.2.4-2.34.84-4.8.19-7.14a11.7,11.7,0,0,0-3.12-4.92A45.11,45.11,0,0,1,248.9,182a24,24,0,0,1-3.3-6.59c-.15-.45-.87-.26-.72.2Z" transform="translate(-92.77 -6.67)"/><path d="M254.3,176a21.75,21.75,0,0,1-1.15,16.25c-1.11,2.27-2.91,4.28-3.23,6.86s.7,4.94,1.88,7.08a.37.37,0,0,0,.65-.37c-1.46-2.65-2.51-5.64-1.23-8.58,1.05-2.41,2.68-4.47,3.58-7a22.38,22.38,0,0,0,.22-14.46c-.15-.45-.87-.26-.72.2Z" transform="translate(-92.77 -6.67)"/><path d="M251.14,205.89a.57.57,0,0,0-.07-1c-.49-.24-.86.27-.9.7a1.74,1.74,0,0,0,1.24,1.72,2.4,2.4,0,0,0,2.2-.34,5.07,5.07,0,0,0,1.59-2.5,7.89,7.89,0,0,0,.57-2.83c-.05-.85-.55-1.74-1.52-1.69a2.32,2.32,0,0,0-1.93,1.85,6.45,6.45,0,0,0-.15,1.7,2.33,2.33,0,0,0,.34,1.53c.62.78,1.75.27,2.21-.42.68-1,.05-2.33-.57-3.22a.38.38,0,0,0-.59-.07,3.7,3.7,0,0,0-.07,5.09c.35.33.88-.2.53-.53a2.93,2.93,0,0,1,.08-4l-.59-.08a2.89,2.89,0,0,1,.72,2.08c-.07.39-.51.91-.95.82-.25-.05-.31-.33-.34-.55a7.09,7.09,0,0,1,0-1.22,2.54,2.54,0,0,1,.72-1.93c.41-.33,1-.41,1.26.15a3,3,0,0,1,0,1.74c-.29,1.21-.67,2.81-1.76,3.55a1.72,1.72,0,0,1-1.51.18,1.15,1.15,0,0,1-.53-.39.85.85,0,0,1-.14-.34c0-.06,0-.13,0-.19a.25.25,0,0,1,0-.12c-.31,0-.37-.09-.18-.32-.39.28,0,.93.38.65Z" transform="translate(-92.77 -6.67)"/><path d="M253.63,206.08a2.17,2.17,0,0,0-3.07.65c-1,1.35-.8,3.33-.75,4.92.09,2.89.78,7,4.22,7.64.47.09.68-.63.2-.72-2.72-.51-3.48-3.66-3.63-6a17.66,17.66,0,0,1,0-4,2.9,2.9,0,0,1,.82-1.71,1.32,1.32,0,0,1,1.66-.26c.37.29.91-.23.53-.53Z" transform="translate(-92.77 -6.67)"/><path d="M251.72,205.05c1.61,2.1,1.51,5,1.68,7.47.15,2.28.43,4.86,2.33,6.4.37.3.91-.23.53-.53-2-1.6-2-4.42-2.17-6.75s-.22-5-1.72-7c-.29-.38-.94,0-.65.38Z" transform="translate(-92.77 -6.67)"/><path d="M253.13,203.87a38.8,38.8,0,0,1,2.38,24.64c-.1.47.62.67.73.2a39.63,39.63,0,0,0-2.47-25.22c-.2-.43-.84-.05-.64.38Z" transform="translate(-92.77 -6.67)"/><path d="M249.19,205.93c-3.39,5.08-2.06,11.54.34,16.74,1.51,3.26,3.42,6.34,4.7,9.72a30.56,30.56,0,0,1,1.91,10.92.38.38,0,0,0,.75,0,31.37,31.37,0,0,0-1.5-9.86,60.47,60.47,0,0,0-4-8.77c-2.85-5.56-5.35-12.62-1.51-18.38.27-.4-.38-.77-.65-.37Z" transform="translate(-92.77 -6.67)"/><path d="M248.26,205.88c7.69,8.31,7.92,20.59,8.18,31.24a.38.38,0,0,0,.75,0c-.27-10.87-.56-23.3-8.4-31.78-.33-.35-.86.18-.53.54Z" transform="translate(-92.77 -6.67)"/><path d="M229.22,115.76c0,6.28,4.83,10.39,9.65,13.55a47.16,47.16,0,0,1,7.78,6,37,37,0,0,1,5.92,7.83.38.38,0,0,0,.65-.38,37.81,37.81,0,0,0-11.75-12.64c-5.2-3.5-11.54-7.24-11.5-14.36a.38.38,0,0,0-.75,0Z" transform="translate(-92.77 -6.67)"/><path d="M243.31,109.51a6.18,6.18,0,0,1,2-.12,4.82,4.82,0,0,1,1.35.31,5.38,5.38,0,0,1,2.63,2.31,38.85,38.85,0,0,1,2.57,5.46,36.54,36.54,0,0,1,3.44,12.95c.16,4.37-.69,8.68-1.15,13a39.11,39.11,0,0,0-.25,6.49c.08,1.32.28,2.66,1.41,3.48.39.29.76-.36.38-.64-1.57-1.15-1.13-4.41-1-6.08.1-2.18.37-4.35.66-6.51.53-4.08,1.08-8.19.52-12.3a42.41,42.41,0,0,0-3.49-11.19c-1.27-2.9-2.43-6.82-5.83-7.82-.8-.24-3.21-.64-3.59.5a.59.59,0,0,0,1.06.52.37.37,0,0,0-.64-.37Z" transform="translate(-92.77 -6.67)"/><path d="M237.67,138.34c-.43,3.16.68,6.08,2.16,8.82a39,39,0,0,0,5,7.26,37.34,37.34,0,0,0,13.89,10,.39.39,0,0,0,.47-.26l.43-1.29c.15-.46-.57-.66-.72-.2l-.44,1.29.46-.26a36.64,36.64,0,0,1-13-9.23,38.19,38.19,0,0,1-4.75-6.49c-1.67-2.86-3.22-6-2.76-9.44.07-.47-.65-.68-.72-.2Z" transform="translate(-92.77 -6.67)"/><path d="M254.47,137.54A41.7,41.7,0,0,1,260,161.47c-.29,4.53-1.5,8.83-2.63,13.21a41.49,41.49,0,0,0-1.22,5.84,4.39,4.39,0,0,0,1,3.87c.35.33.88-.2.53-.53-1.56-1.42-.72-4.24-.34-6,.48-2.23,1.1-4.43,1.68-6.64a50.28,50.28,0,0,0,1.78-11.89,42.25,42.25,0,0,0-5.75-22.17.38.38,0,0,0-.65.38Z" transform="translate(-92.77 -6.67)"/><path d="M242.25,157.89c-.7,2.61.21,5.13,1.27,7.5a40.11,40.11,0,0,0,4.2,7.12,97.83,97.83,0,0,0,10.82,11.92c.35.34.88-.19.53-.53a103.08,103.08,0,0,1-10.21-11.1,42.61,42.61,0,0,1-3.87-6.09c-1.34-2.6-2.81-5.65-2-8.62a.37.37,0,0,0-.72-.2Z" transform="translate(-92.77 -6.67)"/><path d="M259.44,166.88c3.65,11-3.79,21.89-4.61,32.75,0,.48.72.48.75,0,.83-11,8.27-21.82,4.59-32.94-.15-.46-.88-.27-.73.19Z" transform="translate(-92.77 -6.67)"/><path d="M243.86,181.13a37.06,37.06,0,0,0,4,13.61,33.59,33.59,0,0,0,3.73,5.64c.68.84,2.71,3.88,4,2.39.32-.36-.21-.89-.53-.53-.76.87-4-3.66-4.33-4.21A34,34,0,0,1,247.8,193a36,36,0,0,1-3.19-11.83c-.05-.48-.8-.48-.75,0Z" transform="translate(-92.77 -6.67)"/><path d="M181.64,100.86a58.18,58.18,0,0,1,14.08-4.23c2.37-.44,4.75-.81,7.14-1.16a43.4,43.4,0,0,1,7.71-.74c4.82.12,9.34,2.06,13.51,4.34,4.41,2.41,8.67,5.1,13,7.68.41.25.79-.4.38-.65-3.63-2.17-7.23-4.37-10.88-6.49A47.35,47.35,0,0,0,216.61,95a25.65,25.65,0,0,0-11.16-.65c-3.91.53-7.83,1.12-11.7,1.91a55.87,55.87,0,0,0-12.49,4c-.43.21,0,.85.38.65Z" transform="translate(-92.77 -6.67)"/><path d="M182.94,117.88c.61,2.77,3.57,3.83,6,4.44a4,4,0,0,0,3.85-.7,28.47,28.47,0,0,1,4.55-3.24,33,33,0,0,1,10.87-3.09c4-.55,8.6-1.28,12.24.78,3.21,1.82,5.34,5.11,8.94,6.3.46.15.65-.57.2-.72-3.09-1-5.12-3.71-7.69-5.54-2.94-2.09-6.4-2.29-9.88-2-6.4.54-13.32,1.65-18.43,5.84-.93.77-1.83,1.87-3.14,1.88a9.41,9.41,0,0,1-2.75-.64c-1.78-.59-3.63-1.53-4.07-3.51-.11-.47-.83-.27-.72.2Z" transform="translate(-92.77 -6.67)"/><path d="M175,143.73c.9,3.17,4.08,4.63,7.15,4.9,4.05.35,8.13-1.41,11.47-3.55,8.11-5.17,13.2-13.84,21.27-19,4.7-3,10.54-4.74,16-3,.46.15.66-.57.2-.72-8.72-2.84-17.12,2.55-23.15,8.41-6.41,6.23-12.28,14.3-21.37,16.67-3.77,1-9.59.59-10.86-3.91a.38.38,0,0,0-.73.2Z" transform="translate(-92.77 -6.67)"/><path d="M183.27,152.89c2.58,2.17,6.11,1.8,8.92.29,3.68-2,6.77-5.29,9.76-8.15,6.26-6,12.42-12.32,20.26-16.24a29.67,29.67,0,0,1,13.87-3.35.38.38,0,0,0,0-.75c-16.83-.39-28,14.21-39.47,24.24-3.26,2.85-8.55,7-12.81,3.43-.37-.31-.9.21-.53.53Z" transform="translate(-92.77 -6.67)"/><path d="M165.59,124.8c.82,2.93,3.5,4.64,6.33,5.33,3.74.92,7.82.15,11.38-1.13,8.13-2.92,14.7-9.12,23-11.49,4.56-1.29,9.59-1.33,13.79,1.09a.37.37,0,0,0,.38-.64c-6.54-3.78-14.36-1.82-20.68,1.39-7.52,3.84-14.58,9.85-23.36,10.37-3.85.23-9-.85-10.17-5.12a.37.37,0,0,0-.72.2Z" transform="translate(-92.77 -6.67)"/><path d="M178.6,107.49c3.84,1.33,7.88.83,11.82.27,4.71-.67,9.44-1.17,14.2-1.43,8.46-.45,17.74-.11,24.6,5.52,3.84,3.16,5.62,7.61,7.22,12.17.16.45.89.26.73-.2-1.35-3.83-2.78-7.72-5.58-10.76a22.68,22.68,0,0,0-9.38-5.86,40,40,0,0,0-13.28-1.77,134.47,134.47,0,0,0-14.59,1c-5.1.63-10.51,2-15.54.29-.46-.16-.65.57-.2.72Z" transform="translate(-92.77 -6.67)"/><path d="M200.27,156.38c6.93-1.41,11.22-7.6,15.21-12.89,4.66-6.19,9.83-12.5,16.93-16,4.3-2.1,9.08-2.92,13.44-4.9.43-.19.05-.84-.38-.64-3.84,1.73-8,2.56-11.88,4.19a32.63,32.63,0,0,0-9.05,5.86c-5.63,5-9.46,11.47-14.43,17.07-2.71,3.06-5.94,5.73-10,6.56-.47.1-.27.82.2.73Z" transform="translate(-92.77 -6.67)"/><path d="M164,136.92c-1.42,4.23,1.53,7.77,5,9.81a22.58,22.58,0,0,0,13.85,3c2.64-.29,5.21-1,7.81-1.48a46.21,46.21,0,0,1,7.32-.82,48.32,48.32,0,0,1,29.65,9c.39.28.76-.37.37-.65a49.06,49.06,0,0,0-24.67-9,48.43,48.43,0,0,0-13.54.86c-5.14,1.06-10,2.09-15.19.66-4.74-1.31-11.9-5.14-9.88-11.17.16-.46-.57-.66-.72-.2Z" transform="translate(-92.77 -6.67)"/><path d="M163.14,145.67a.83.83,0,0,0-1.14-.38,1.15,1.15,0,0,0-.48,1.36,13,13,0,0,0,3,5.22,22,22,0,0,0,10.63,6.69c5,1.48,10.34,1.32,15.44.55,2.8-.43,5.56-1.07,8.32-1.74a30.32,30.32,0,0,1,8.62-1.21c3.29.16,6.28,1.56,9.21,3l9,4.35c.43.21.81-.44.37-.65-4.31-2.07-8.58-4.41-13-6.14s-8.88-1.34-13.49-.25c-9.19,2.17-19.27,4.34-28.16-.12a20.54,20.54,0,0,1-5.43-3.9,16.65,16.65,0,0,1-2.21-2.75c-.26-.41-.5-.83-.73-1.26-.11-.21-.21-.43-.31-.65l-.26-.58a1.12,1.12,0,0,1,0-1.12c.21.43.86,0,.65-.38Z" transform="translate(-92.77 -6.67)"/><path d="M175.38,135.44a8.23,8.23,0,0,0,6.44,6c4,.84,8-.79,11.3-2.85,3.68-2.28,7-5,10.89-7s8.82-4.4,13.28-3.08a.37.37,0,0,0,.2-.72c-3.54-1-7.12.16-10.4,1.54a57.45,57.45,0,0,0-10.68,6.07c-3.4,2.4-7,5-11.29,5.4-3.86.38-8.11-1.54-9-5.6-.1-.48-.83-.28-.72.19Z" transform="translate(-92.77 -6.67)"/><path d="M214.94,150.46c2.93-3.2,5.79-6.47,8.8-9.59,2.78-2.88,6.42-5.67,10.68-5,.47.08.67-.64.2-.72-4-.68-7.63,1.48-10.44,4.17-3.44,3.31-6.55,7-9.77,10.56-.32.35.2.89.53.53Z" transform="translate(-92.77 -6.67)"/><path d="M170.15,113.84l-1.34-.7a.38.38,0,0,0-.51.51,11.27,11.27,0,0,0,8.43,6.15c4.1.57,7.91-1.39,11.34-3.38a44.07,44.07,0,0,1,12-5.28,36,36,0,0,1,13-.63,34.71,34.71,0,0,1,13.92,5c.41.25.79-.39.38-.65a36.13,36.13,0,0,0-23.35-5.22,35.3,35.3,0,0,0-11.19,3.21c-3.91,1.89-7.43,4.76-11.69,5.87A10.54,10.54,0,0,1,169,113.28l-.52.51,1.34.7c.42.23.8-.42.38-.65Z" transform="translate(-92.77 -6.67)"/><path d="M159.05,132.87c-.45,3.91,1.87,7.27,4.09,10.24a64.28,64.28,0,0,0,7.79,9.15,31.78,31.78,0,0,0,10.32,6.06c4,1.54,8.24,3.18,12.53,3.73,4,.51,8.23-.21,11.28-3,.35-.33-.18-.86-.53-.53-6.11,5.61-15.16,2-21.82-.45a33.12,33.12,0,0,1-10.46-5.63,51.18,51.18,0,0,1-7.43-8.33c-2.46-3.25-5.52-6.88-5-11.23.06-.48-.69-.47-.75,0Z" transform="translate(-92.77 -6.67)"/><path d="M160.11,125.45l-1-1.31a.37.37,0,0,0-.65.37c3.27,5.89,10.12,8.39,16.56,8.3,8.41-.11,16.15-3.84,24.27-5.52,4.13-.86,10.46-1.55,12.35,3.4.17.44.89.25.72-.2-2.82-7.38-13.38-4.09-18.82-2.51-8,2.32-16.59,5.69-25,3.28a15.51,15.51,0,0,1-9.47-7.12l-.65.37,1,1.32c.28.39.93,0,.65-.38Z" transform="translate(-92.77 -6.67)"/><path d="M159,121.66c3.49-5.11,8.91-9.24,14.12-12.48A61.72,61.72,0,0,1,189.91,102a59.19,59.19,0,0,1,9.15-1.69,28.48,28.48,0,0,1,10.29.39c6.09,1.63,11,6,16.51,8.87a52.36,52.36,0,0,0,20.23,5.56c.49,0,.48-.71,0-.75A51.71,51.71,0,0,1,226,108.78c-5.52-2.85-10.39-7.23-16.49-8.85-5.94-1.59-12.77-.44-18.65,1a62.2,62.2,0,0,0-17.08,7c-5.72,3.4-11.65,7.84-15.44,13.38-.27.4.38.78.65.38Z" transform="translate(-92.77 -6.67)"/><path d="M164.63,120c7.48,3.78,16.18,3.09,23.77,0A63.14,63.14,0,0,0,199,114.27c3.46-2.25,7-4.6,11-5.8,5.1-1.55,10.29-.56,15.25,1,.46.15.66-.58.2-.72-4.11-1.32-8.44-2.3-12.77-1.68a27.53,27.53,0,0,0-10.16,4.07c-3.49,2.1-6.79,4.5-10.42,6.37A38.5,38.5,0,0,1,180,121.61a25.24,25.24,0,0,1-15-2.22c-.43-.21-.81.43-.38.65Z" transform="translate(-92.77 -6.67)"/><path d="M170,107c.07-1.68,1.39-2.88,2.52-4a36.1,36.1,0,0,1,3.44-3,38.88,38.88,0,0,1,6.93-4.22A40.08,40.08,0,0,1,199.11,92c5.75-.12,11.7.87,16.43,4.32a40.74,40.74,0,0,1,6.34,6.32,27.72,27.72,0,0,0,7.05,5.29,122.93,122.93,0,0,1,17.56,12.79c.36.32.89-.21.53-.53a123.63,123.63,0,0,0-16.35-12.08c-2.95-1.82-5.94-3.36-8.26-6a41.61,41.61,0,0,0-6.49-6.44c-4.83-3.52-10.94-4.54-16.81-4.42A40.89,40.89,0,0,0,182.81,95a39.61,39.61,0,0,0-8,4.92,35,35,0,0,0-3.72,3.38A5.8,5.8,0,0,0,169.2,107c0,.49.72.49.75,0Z" transform="translate(-92.77 -6.67)"/><path d="M159.18,131.52c.19-.36,3.27,1,3.65,1.17a22.61,22.61,0,0,0,4,.87,33.82,33.82,0,0,0,7,.15,70.51,70.51,0,0,0,14.6-2.72,76.93,76.93,0,0,0,13.77-5.53,75.64,75.64,0,0,0,6.73-4,62.89,62.89,0,0,1,6.24-4c5.9-2.93,12.53-1.18,18.51.52a.37.37,0,0,0,.2-.72c-5.42-1.55-11.42-3.18-17-1.32-2.74.91-5.08,2.65-7.44,4.26a74.66,74.66,0,0,1-24,10.78c-5.72,1.44-11.85,2.51-17.76,1.92a23.13,23.13,0,0,1-4.93-1c-.85-.28-1.64-.67-2.47-1a2,2,0,0,0-1.17-.21c-1.52.39.05,2.29.64,1.22.23-.43-.42-.8-.65-.38Z" transform="translate(-92.77 -6.67)"/><path d="M174.15,159.79c4.13,2.33,9.11,1.35,13-1,4.61-2.74,7.71-7.33,11.2-11.28,3.89-4.39,8.62-7.81,13.5-11,5.16-3.42,10.3-6.89,15.55-10.17,2.88-1.82,6-3.46,9.46-3.77a10.88,10.88,0,0,1,5,.65c1.39.54,2.63,1.3,4.18,1.17.47,0,.48-.78,0-.75-1.47.12-2.66-.63-4-1.15a11.38,11.38,0,0,0-3.91-.73,17,17,0,0,0-7.35,1.8,62.1,62.1,0,0,0-7.26,4.37l-7.94,5.21c-4.72,3.09-9.54,6.11-13.78,9.85s-7.11,8.19-11,12c-4.16,4-10.7,7.34-16.32,4.18-.42-.24-.8.41-.38.64Z" transform="translate(-92.77 -6.67)"/><path d="M225.43,98.45c3.87,4.42,7.53,8.89,9.08,14.67,1.21,4.56,1.71,9.58,5.1,13.17.33.35.86-.18.53-.53-3.65-3.86-3.81-9.47-5.33-14.28-1.66-5.27-5.28-9.48-8.85-13.57-.32-.36-.85.17-.53.54Z" transform="translate(-92.77 -6.67)"/><path d="M165.87,105.81a3.28,3.28,0,0,0,.94,2.71,7.24,7.24,0,0,1,1.3,3.44,12.94,12.94,0,0,0,.82,3.42,7.55,7.55,0,0,0,2.15,2.76c.38.3.91-.23.53-.53a7.14,7.14,0,0,1-2-2.53,12.09,12.09,0,0,1-.78-3.32,7.88,7.88,0,0,0-.92-3c-.51-.83-1.58-1.74-1.33-2.8.12-.47-.61-.67-.72-.2Z" transform="translate(-92.77 -6.67)"/><path d="M167.13,124.86A52,52,0,0,0,162.86,114c-.22-.43-.87,0-.64.38a51.33,51.33,0,0,1,4.19,10.71.37.37,0,0,0,.72-.2Z" transform="translate(-92.77 -6.67)"/><path d="M176.4,135.78l-2.47-4.66c-.23-.43-.87-.05-.65.38l2.47,4.66c.23.43.87.05.65-.38Z" transform="translate(-92.77 -6.67)"/><path d="M177.33,143.22c-1.28-1.4-1.86-3.27-3-4.77a20,20,0,0,0-3.8-3.6c-1.63-1.25-3.31-2.44-5-3.65a10,10,0,0,0-2.39-1.42,15.79,15.79,0,0,1-2.86-1,.38.38,0,0,0-.38.65,9.43,9.43,0,0,0,2.39.84,8.09,8.09,0,0,1,2.6,1.36c1.67,1.21,3.36,2.42,5,3.66a18.48,18.48,0,0,1,4.08,4c1,1.45,1.58,3.15,2.79,4.47.32.36.85-.18.53-.53Z" transform="translate(-92.77 -6.67)"/><path d="M183.85,151.3a34.12,34.12,0,0,0-6.94-6.25c-1.29-.91-2.6-1.78-3.92-2.65a13.78,13.78,0,0,0-4.19-2.07.38.38,0,0,0-.2.73,13.5,13.5,0,0,1,4.12,2.06c1.28.84,2.56,1.69,3.81,2.58a33.28,33.28,0,0,1,6.79,6.13c.31.38.83-.16.53-.53Z" transform="translate(-92.77 -6.67)"/><path d="M179.43,139.45c4.16-2.07,8.73-3.88,12.54-6.59,3.4-2.42,5.45-6.14,8.54-8.89a26.2,26.2,0,0,1,22.68-6c.47.11.67-.62.2-.72a27,27,0,0,0-17.56,2.24,25.87,25.87,0,0,0-7.47,5.53c-2.52,2.71-4.47,5.76-7.65,7.78a124.52,124.52,0,0,1-11.66,6c-.43.22-.06.87.38.65Z" transform="translate(-92.77 -6.67)"/><path d="M206.58,149.77a157.21,157.21,0,0,0,11.1-14.7c3.21-4.8,7.24-10.66,13.77-10.31.49,0,.48-.72,0-.75-5.94-.32-10.14,4.39-13.2,8.88a192.27,192.27,0,0,1-12.2,16.35c-.32.37.21.9.53.53Z" transform="translate(-92.77 -6.67)"/><path d="M179.16,114.25a29.21,29.21,0,0,1,6.29-4.56c2.38-1.49,4.75-3,7.16-4.45a16,16,0,0,1,7.77-2.67,19.19,19.19,0,0,1,8.5,2.24c.44.21.82-.44.38-.64a21,21,0,0,0-8-2.33,14.82,14.82,0,0,0-7.91,2.11c-2.7,1.48-5.28,3.21-7.89,4.84-2.38,1.48-4.94,2.85-6.85,4.93-.33.35.2.88.53.53Z" transform="translate(-92.77 -6.67)"/><path d="M167.62,121.3c1.11-9.84,9-17.08,17.81-20.53a44.15,44.15,0,0,1,14.7-3.09,24.93,24.93,0,0,1,7.83.95,56.27,56.27,0,0,1,6.86,2.84,25.59,25.59,0,0,0,7.1,2.32c2.63.35,5.41-.54,7.94.44.45.18.65-.55.2-.72-2.34-.91-4.8-.21-7.23-.38a22.76,22.76,0,0,1-7.82-2.39A57.57,57.57,0,0,0,208.36,98a25.22,25.22,0,0,0-7.77-1c-9.68.11-20.48,3.7-27.23,10.85a23.75,23.75,0,0,0-6.49,13.53c-.05.47.7.47.75,0Z" transform="translate(-92.77 -6.67)"/><path d="M173.14,122.84c7.39,1.32,14.27-1.74,19-7.43,2.2-2.67,4-5.63,6.14-8.35s5.45-6.69,9.16-6.44c.48,0,.48-.71,0-.75-3.18-.21-6.09,2.55-8.08,4.74a93.33,93.33,0,0,0-6,8,24.62,24.62,0,0,1-7.85,7.52,18.52,18.52,0,0,1-12.09,1.93c-.47-.08-.67.64-.2.73Z" transform="translate(-92.77 -6.67)"/><path d="M168.76,121.62c1-4.2,5.09-6.44,8.6-8.34a112.49,112.49,0,0,1,13-6.33c8.45-3.25,18.38-4.43,26.47.45a.38.38,0,0,0,.38-.65c-13.67-8.24-30.39-.07-42.56,7.18-2.93,1.75-5.81,4-6.63,7.49-.11.47.61.67.72.2Z" transform="translate(-92.77 -6.67)"/><path d="M173,128.61a107.64,107.64,0,0,0,19.68-12q2.09-1.59,4.09-3.28a28.58,28.58,0,0,1,4.53-3.46c4.1-2.25,8.39-.47,12.25,1.37.44.21.82-.44.38-.64-3.39-1.62-7.25-3.37-11.06-2.22-3.46,1-6.13,4.07-8.88,6.26A106.67,106.67,0,0,1,172.58,128c-.44.21-.06.85.38.65Z" transform="translate(-92.77 -6.67)"/><path d="M170.37,142.52a30.36,30.36,0,0,0,5.31,5.67c1.87,1.53,4,3.1,6.45,3.53,4.8.84,9-3.07,12.17-6.05a76.84,76.84,0,0,0,10.76-12.3c3.18-4.53,5.75-9.91,10.55-13a11.44,11.44,0,0,1,8.9-1.69c2.86.64,5.54,1.89,8.5,2.07.48,0,.48-.72,0-.75-4.92-.3-9.27-3.44-14.3-1.92-4.59,1.39-7.8,5.16-10.38,9a115.06,115.06,0,0,1-9.62,13.07,75.73,75.73,0,0,1-5.59,5.6,23.36,23.36,0,0,1-6.66,4.71c-3.14,1.26-6,.3-8.63-1.56a29.09,29.09,0,0,1-6.81-6.75c-.28-.38-.94,0-.65.38Z" transform="translate(-92.77 -6.67)"/><path d="M182.72,162.82a37.73,37.73,0,0,0,13.71-4.34,44.15,44.15,0,0,0,11-8.89c3.29-3.54,6.29-7.35,9.7-10.78a38.06,38.06,0,0,1,12-8.38,35.57,35.57,0,0,1,16.83-2.72c.48,0,.48-.71,0-.75a36.16,36.16,0,0,0-26.19,8.42c-7.42,6.28-12.46,15-20.55,20.56a36.77,36.77,0,0,1-16.42,6.13c-.48.05-.48.8,0,.75Z" transform="translate(-92.77 -6.67)"/><path d="M216.69,147.52c2.81,1.31,5.54-1.47,7.29-3.37a43.24,43.24,0,0,0,5.37-7.64c1.64-2.81,3.16-5.7,5-8.43s4.24-6.38,7.76-7.21c.47-.11.27-.83-.2-.72-2.79.66-4.77,2.88-6.45,5.07a67.08,67.08,0,0,0-5,7.91,80.47,80.47,0,0,1-4.77,7.8,28.36,28.36,0,0,1-3.11,3.63c-1.36,1.32-3.42,3.26-5.46,2.31-.44-.2-.82.44-.38.65Z" transform="translate(-92.77 -6.67)"/><path d="M158.85,141.92l2.49,1.43c.77.44,1.56.85,2.29,1.34a2.09,2.09,0,0,1,1.05,1.57c.06.58.11,1.28.73,1.55.44.19.82-.45.38-.65s-.35-1.1-.46-1.53A3,3,0,0,0,164,144c-.71-.48-1.49-.88-2.23-1.3l-2.55-1.47a.38.38,0,0,0-.38.65Z" transform="translate(-92.77 -6.67)"/><path d="M164.87,139a18.73,18.73,0,0,0-1.16-7.11,13.76,13.76,0,0,1-1.06-3.54,17.7,17.7,0,0,1,.13-3.71c.05-.48-.7-.48-.75,0a18.41,18.41,0,0,0-.13,3.71,12,12,0,0,0,.91,3.27,18.65,18.65,0,0,1,1.31,7.38.38.38,0,0,0,.75,0Z" transform="translate(-92.77 -6.67)"/><path d="M167.22,108.75c-.65.4.12,1.33.69.84a1.32,1.32,0,0,0,.32-.78,8.85,8.85,0,0,1,.27-1,9.07,9.07,0,0,1,2.14-3.46c.34-.34-.19-.88-.53-.53a9.88,9.88,0,0,0-1.8,2.5,10.14,10.14,0,0,0-.57,1.41c-.07.24-.14.48-.2.72s0,.25-.08.38a.9.9,0,0,0,0,.16c0,.09-.06,0,0,0h.2c.11.09.1.23,0,.4.41-.25,0-.9-.38-.65Z" transform="translate(-92.77 -6.67)"/><path d="M173,118.73c1.23.51,2.15-1.52,2.71-2.27a39.59,39.59,0,0,1,3.14-3.7,40.45,40.45,0,0,1,7.49-6.13c.4-.26,0-.91-.38-.65a41.61,41.61,0,0,0-6.86,5.47,39.6,39.6,0,0,0-3,3.25c-.44.54-.86,1.09-1.27,1.64s-1,1.92-1.67,1.67c-.44-.19-.64.54-.2.72Z" transform="translate(-92.77 -6.67)"/><path d="M176.49,159.81c7.17,5.4,16.75,2.77,23.64-1.68a115.53,115.53,0,0,0,11.27-8.71,58.24,58.24,0,0,0,9.64-9.77c2.77-3.76,5.74-11.46,11.77-9.7a.38.38,0,0,0,.2-.73c-4-1.16-7.27,1.87-9.3,4.92-1.31,2-2.44,4-3.9,5.9A47.57,47.57,0,0,1,215,145.2c-3.39,3.2-7.06,6.15-10.74,9-3.88,3-8.1,5.88-12.91,7.16s-10.37.91-14.52-2.22c-.39-.29-.76.36-.38.65Z" transform="translate(-92.77 -6.67)"/><path d="M224.79,104.34c.76,0,1.39,1.32,2.15,1.58a5.41,5.41,0,0,0,2.5,0c2.79-.36,4.92,1,7.09,2.58a21,21,0,0,0,2.83,1.83,14.93,14.93,0,0,1,3.07,1.66c1.55,1.32,2.33,3.29,4,4.52.39.29.76-.36.38-.64-1.74-1.3-2.52-3.49-4.28-4.77a25.88,25.88,0,0,0-3.1-1.59,29.72,29.72,0,0,1-3.11-2.1c-1.81-1.28-3.86-2.49-6.17-2.32-1.13.09-2.5.58-3.47-.21-.65-.53-.93-1.3-1.87-1.3a.38.38,0,0,0,0,.75Z" transform="translate(-92.77 -6.67)"/><path d="M112.1,141.71c3.43,2,7.77.42,11-1.21a49.17,49.17,0,0,0,14-11.35,59.87,59.87,0,0,0,8.65-12.29,21.79,21.79,0,0,0,1.53-3.71c1.3-4.22,1.55-8.77,1.79-13.16.54-10,.48-20,.46-30q0-12.06-.15-24.13c-.06-6.29-.06-12.63-.73-18.89-.35-3.23-.78-6.91-2.67-9.66a6.81,6.81,0,0,0-7.25-2.72,23.72,23.72,0,0,0-6.55,2.7C129,19.06,125.93,21,122.84,23c-5.45,3.44-11.29,6.62-16.2,10.82-7.24,6.18-7.86,16-7.13,24.91.59,7.16,1.84,14.27,3,21.35.91,5.58,2.38,11,3.36,16.58,1,5.93.45,11.95.06,17.91a53.75,53.75,0,0,0,.25,10.61A63.88,63.88,0,0,0,108.32,136c.7,2.23,1.74,4.47,3.78,5.76.41.26.79-.39.38-.65-2.42-1.53-3.32-4.58-4-7.21a72,72,0,0,1-1.88-11.38c-.5-6.68.74-13.33.54-20a62.49,62.49,0,0,0-2-12.22c-1.59-7-2.65-14-3.7-21.12-1.45-9.75-3.42-21.2,1.72-30.25,2.27-4,6.43-6.6,10.18-9,6.09-4,12.22-8,18.57-11.55,3.21-1.78,7.88-4.5,11.53-2.33,2.37,1.41,3.25,4.37,3.78,6.91a81.55,81.55,0,0,1,1.22,14.72c.21,7.68.21,15.37.25,23.06.07,11.28.15,22.58-.2,33.86a94.54,94.54,0,0,1-1.33,15.85,26.43,26.43,0,0,1-3.31,8.28,63.08,63.08,0,0,1-12.84,15.44c-3.8,3.3-8.4,6.65-13.46,7.61a7.54,7.54,0,0,1-5.16-.62A.38.38,0,0,0,112.1,141.71Z" transform="translate(-92.77 -6.67)"/><path d="M143.14,348.41a6.59,6.59,0,0,1,2.29-1.46l-.47-.36a11.41,11.41,0,0,0-.28,2.78.93.93,0,0,0,.49.74,1.19,1.19,0,0,0,1.25-.32c.31-.24.58-.53.91-.77s1.16-.84,1.43-.76c.6.19,0,1.29.15,1.77a1,1,0,0,0,.87.63,2.53,2.53,0,0,0,1.39-.35c.89-.42,1.74-.94,2.6-1.4l-.51-.14c.52.74,0,2.46,1.26,2.67.61.1,1.3-.37,1.82-.59l2.57-1.08-.42-.17c.51.69-.7,1.76.34,2.36,1.25.73,1.67-1.27,2.57-1.51l-.48-.36v1.26a.38.38,0,0,0,.47.36l1.23-.44-.43-.18a4.17,4.17,0,0,1,.43,1.21c.09.47.81.27.72-.2a4.75,4.75,0,0,0-.5-1.38.38.38,0,0,0-.42-.18l-1.23.45.48.36v-1.26a.38.38,0,0,0-.47-.37,1.62,1.62,0,0,0-.8.48c-.23.24-1,1.6-1.25.74-.08-.24.19-.67.2-.94a1.13,1.13,0,0,0-.21-.78.39.39,0,0,0-.43-.17,22.9,22.9,0,0,1-3.48,1.46.5.5,0,0,1-.5,0c-.28.06-.41,0-.39-.31a2.74,2.74,0,0,1-.09-.86,2,2,0,0,0-.34-1,.4.4,0,0,0-.52-.13l-1.95,1.05c-.59.32-1.74,1.17-1.69-.24,0-.57.33-1.33-.46-1.59s-2,.66-2.62,1.1-1.07,1.21-1.23.31a9.09,9.09,0,0,1,.27-2.3.38.38,0,0,0-.48-.36,7.42,7.42,0,0,0-2.62,1.65c-.35.34.18.87.53.53Z" transform="translate(-92.77 -6.67)"/><path d="M143.75,354.1c.25,1.88,1.89,2.9,3.54,3.51,2.3.85,4.56,1.76,6.84,2.66,3.87,1.52,8.38,2.5,12.16.21a.37.37,0,0,0-.38-.64c-3.48,2.1-7.63,1.22-11.21-.15-1.86-.71-3.66-1.56-5.54-2.23s-4.37-1.22-4.69-3.56c-.06-.47-.79-.27-.72.2Z" transform="translate(-92.77 -6.67)"/><path d="M145.76,361.28c-.08.7.39,1.09.94,1.43.9.56,1.87,1,2.81,1.51a36.21,36.21,0,0,0,5.91,2.52,15.71,15.71,0,0,0,11.41-.38c.43-.21,0-.85-.38-.65a14.7,14.7,0,0,1-10.29.47,31.1,31.1,0,0,1-5.1-2c-.79-.39-1.56-.79-2.33-1.2-.57-.31-2.31-.9-2.22-1.68.05-.48-.7-.47-.75,0Z" transform="translate(-92.77 -6.67)"/><path d="M147.85,367.42c-.21,1.47,2,2.22,3,2.81a33.44,33.44,0,0,0,5.27,2.59c3.48,1.29,7.37,1.54,10.73-.23.42-.22,0-.87-.38-.64a12,12,0,0,1-9.37.41,25.64,25.64,0,0,1-4.42-2c-.69-.37-1.36-.76-2-1.15-.45-.27-2.17-1-2.08-1.63.07-.48-.66-.68-.72-.2Z" transform="translate(-92.77 -6.67)"/><path d="M157.36,353a32.27,32.27,0,0,0-3.44,3.67.38.38,0,0,0,.26.64.94.94,0,0,0,.84-.5c.22-.43-.43-.81-.65-.38-.05.09-.09.13-.19.13l.27.64a32.27,32.27,0,0,1,3.44-3.67c.35-.33-.18-.86-.53-.53Z" transform="translate(-92.77 -6.67)"/><path d="M158.29,354.13l-.08-.47c-.07-.43-.72-.3-.74.1l-.15,4.16a1,1,0,0,1-.06.42.65.65,0,0,0-.13.35.5.5,0,0,0,.44.55c.63,0,.59-1-.07-.88-.47.11-.27.84.2.73h0l-.29,0h0l-.17-.22.13-.29.19-.05h0l.19.05q0,.39.15.18l.06-.1a.79.79,0,0,0,.08-.3c0-.2,0-.4,0-.6l0-1.32.09-2.64-.73.1.07.47c.08.47.8.27.73-.2Z" transform="translate(-92.77 -6.67)"/><path d="M154.87,352.41a1,1,0,0,0-1.17,0,.38.38,0,0,0-.13.51q1.23,1.86,2.52,3.69a10.89,10.89,0,0,0,2.55,2.9c.4.28.78-.37.38-.64a10.57,10.57,0,0,1-2.43-2.85c-.81-1.15-1.6-2.31-2.38-3.47l-.13.51a.32.32,0,0,1,.42,0c.4.26.78-.39.37-.65Z" transform="translate(-92.77 -6.67)"/><path d="M154.28,357.08a30.72,30.72,0,0,0,6.35.4c.48,0,.49-.77,0-.75a30.14,30.14,0,0,1-6.15-.38c-.47-.08-.67.65-.2.73Z" transform="translate(-92.77 -6.67)"/><path d="M148.39,378.16c3.44-.92,6.63,1,9.86,1.84a17.92,17.92,0,0,0,9.14,0,.37.37,0,0,0-.2-.72,17.63,17.63,0,0,1-10.07-.43c-2.9-1-5.82-2.27-8.93-1.44a.38.38,0,0,0,.2.73Z" transform="translate(-92.77 -6.67)"/><path d="M148.1,383.63a16,16,0,0,1,6.66,1.17c1.07.4,2.11.86,3.15,1.34.82.38,2.76,1,2.53,2.17-.09.47.63.67.72.2a2.2,2.2,0,0,0-1.44-2.34c-1.19-.62-2.43-1.16-3.67-1.67a17.88,17.88,0,0,0-8-1.62c-.48,0-.48.78,0,.75Z" transform="translate(-92.77 -6.67)"/><path d="M244.7,114.16a7.51,7.51,0,0,1-3.71-4c-.13-.31-.64-.39-.73,0-1,4.38-.33,8.9-1.11,13.3s-2.7,8.33-3.79,12.57c-.9,3.51-1.24,7.43.1,10.88s4.86,5.31,6.36,8.65c1.39,3.11.62,7.16,3.59,9.44.38.3.76-.35.38-.65-2.61-2-2-6-3.16-8.78-1.26-3.15-4.44-4.91-6-7.87-3.94-7.48,1.48-15.84,3.06-23.15,1-4.68.22-9.52,1.29-14.19h-.73a8.28,8.28,0,0,0,4.06,4.49c.44.22.82-.43.38-.64Z" transform="translate(-92.77 -6.67)"/><path d="M247.87,131.6a29.79,29.79,0,0,0-7.79,16.31,7.65,7.65,0,0,0,.33,4.08c.6,1.35,2,2,2.7,3.26.91,1.55.95,3.65,1.21,5.38l.87,5.66c.07.48.8.28.72-.2l-.79-5.18a31.42,31.42,0,0,0-.85-4.84,6.47,6.47,0,0,0-2-2.82,5.21,5.21,0,0,1-1.57-4.57,28.37,28.37,0,0,1,7.66-16.55c.33-.36-.2-.89-.53-.53Z" transform="translate(-92.77 -6.67)"/><path d="M234.78,106.51c3.91.19,6.15,4.18,7.49,7.39a59,59,0,0,1,3.7,13c.08.47.8.27.73-.2a55.37,55.37,0,0,0-4.25-14.2c-1.47-3.16-3.88-6.52-7.67-6.7-.49,0-.48.72,0,.75Z" transform="translate(-92.77 -6.67)"/><path d="M201.54,159.2a41.08,41.08,0,0,1,16.71-.16c3.9.83,8.34,2.81,9.31,7.07a.38.38,0,0,0,.63.16l.77-.8c.34-.35-.19-.88-.53-.53l-.77.8.63.17c-1-4.28-5.23-6.47-9.17-7.44a40.86,40.86,0,0,0-17.78,0c-.47.09-.27.82.2.72Z" transform="translate(-92.77 -6.67)"/><path d="M224.44,161c-1.6,8.8,3.32,16.95,8.35,23.73.29.39.94,0,.65-.37-4.89-6.6-9.83-14.58-8.28-23.16.08-.47-.64-.67-.72-.2Z" transform="translate(-92.77 -6.67)"/><path d="M216.22,152.37a11,11,0,0,1,7.55,5.18c1.9,3.18,1.63,6.91,1.26,10.44-.36,3.33-.75,6.71.3,10a14.78,14.78,0,0,0,5,7.1c.38.29.91-.24.53-.53a14,14,0,0,1-5.26-8.66c-.66-3.8.37-7.63.46-11.43a12.86,12.86,0,0,0-2.5-8.53,11.69,11.69,0,0,0-7.13-4.25c-.47-.09-.68.63-.2.72Z" transform="translate(-92.77 -6.67)"/><path d="M222.69,151.65c2.38,2.11,1.92,5.64,1.72,8.49a21.76,21.76,0,0,0,1.51,10.16c.18.44.91.24.72-.2a20.28,20.28,0,0,1-1.49-5.77,32.23,32.23,0,0,1,.08-5.29c.18-2.77.24-5.92-2-7.92-.36-.32-.89.21-.53.53Z" transform="translate(-92.77 -6.67)"/><path d="M238.7,420.43a25.27,25.27,0,0,1-5.84,2.73c-1.25.41-2.82.72-3.6,1.9-.63.95-.9,2.6.24,3.28,1.41.85,3.18-.55,4.4-1.14a62.07,62.07,0,0,1,26.23-6.07.38.38,0,0,0,0-.75A45.65,45.65,0,0,0,242,423.31a30.74,30.74,0,0,0-8.62,4.7c-1.72,1.36-5.33,3.91-4.49,6.61.44,1.41,1.85.54,2.61,0,2-1.47,3.89-3.12,6-4.43a19.55,19.55,0,0,1,4.6-2.23c1.22-.34,2.47-.59,3.7-.89q4.38-1.05,8.75-2.13l3.88-1a8.73,8.73,0,0,0,1.9-.51.38.38,0,0,0-.19-.7,22,22,0,0,0-4,.94c-2.74.69-5.49,1.39-8.22,2.15-3.28.92-7.08,1.81-9.79,4a6.48,6.48,0,0,0-2,2.62c-.4,1-.75,3.08.93,2.93a5.2,5.2,0,0,0,2.18-1.08,29.45,29.45,0,0,1,3.11-1.95,31.85,31.85,0,0,1,6.36-1.88,122.17,122.17,0,0,0,13.84-4.64.37.37,0,0,0-.2-.72,35.34,35.34,0,0,0-8.28,2.93,23.68,23.68,0,0,1-5.57,2.38c-1.49.34-3.64.25-4.82,1.37-1,.93-1.36,3.28.28,3.73a4.52,4.52,0,0,0,2.32-.32q1.76-.52,3.48-1.11c2.83-1,5.56-2.22,8.46-2.94a24,24,0,0,1,7.35-.74c2.25.13,4.43.69,6.65,1s4.67.65,6.53-.58a20,20,0,0,0,2.85-2.75.38.38,0,0,0-.53-.53c-.78.78-1.52,1.64-2.36,2.36-1.37,1.19-3.44,1.09-5.14.92-3.86-.38-7.49-1.48-11.41-1.13-4.88.44-9.24,2.58-13.85,4.07-.82.27-1.65.53-2.48.77a3.77,3.77,0,0,1-1.48.27c-1.12-.19-.81-1.72-.27-2.35,1-1.19,3.61-1.08,5-1.42a21.6,21.6,0,0,0,5.07-2.21,33.84,33.84,0,0,1,8.4-3l-.2-.72c-3.79,1.48-7.63,2.87-11.55,4-3.09.89-6.45,1.27-9.3,2.83-.92.5-1.77,1.12-2.64,1.7a6.28,6.28,0,0,1-1.23.76c-1.07.36-1.22-.31-1-1.21a5.66,5.66,0,0,1,1.91-2.78c2.51-2.07,6.08-2.9,9.13-3.76,2.67-.75,5.35-1.44,8-2.11a25.62,25.62,0,0,1,4.36-1.07l-.19-.7a26.07,26.07,0,0,1-4.41,1.11l-6.72,1.65a72.6,72.6,0,0,0-7.43,1.84,26,26,0,0,0-6.06,3.31c-1.62,1.14-3.07,2.58-4.75,3.61-.93.58-1.19.25-.94-1,.29-1.46,1.64-2.54,2.7-3.5a28.38,28.38,0,0,1,8.85-5.45,45.23,45.23,0,0,1,18.95-3.27v-.75a62.65,62.65,0,0,0-21.95,4.16q-2.37.91-4.65,2a10.56,10.56,0,0,1-2.59,1.23c-1.68.19-1.78-1.47-.9-2.51s3.11-1.37,4.48-1.89a26,26,0,0,0,4.56-2.31c.41-.26,0-.9-.38-.65Z" transform="translate(-92.77 -6.67)"/><path class="cls-1" d="M269.57,442" transform="translate(-92.77 -6.67)"/><path d="M119.28,57a1.32,1.32,0,0,0-1-1.86c-1-.15-1.85.8-2.22,1.67-.92,2.15,0,4.88,1.39,6.62A3.94,3.94,0,0,0,120.2,65a2.46,2.46,0,0,0,2.42-1.34,2.06,2.06,0,0,0-.39-2.41,1.77,1.77,0,0,0-2.18,0c-1,.76-.54,1.83,0,2.72L123,68.37c.26.41.91,0,.65-.38l-1.9-2.9-.94-1.46c-.25-.38-.78-1-.63-1.44a1,1,0,0,1,1.84,0,1.56,1.56,0,0,1-1.33,2c-2.11.32-3.45-2-4-3.73a5.27,5.27,0,0,1-.14-3,2.56,2.56,0,0,1,.8-1.3,1,1,0,0,1,.71-.3c.33,0,.74.38.57.75s.44.82.64.38Z" transform="translate(-92.77 -6.67)"/><path d="M124.43,53.25c-1.75.71-1.34,3.13-.87,4.55.54,1.63,1.8,3.3,3.71,3.13a4,4,0,0,0,3.41-3.48,5.33,5.33,0,0,0-2.59-4.74c-.94-.62-2.27-1.2-3.38-.69a1.63,1.63,0,0,0-.76,2.33c.29.39.94,0,.65-.37-.52-.69.31-1.37,1-1.4a4.06,4.06,0,0,1,2.29.88A4.62,4.62,0,0,1,130,57.17a3.26,3.26,0,0,1-2.47,3c-1.46.3-2.54-.89-3-2.12a7.1,7.1,0,0,1-.53-2.26c0-.62,0-1.52.72-1.8.44-.18.24-.91-.2-.72Z" transform="translate(-92.77 -6.67)"/><path d="M120.58,76.61l2,5.45c.17.44.33.88.49,1.32a1.7,1.7,0,0,0,.57.89.69.69,0,0,0,1-.85c-.21-.44-.86-.06-.65.37a.21.21,0,0,0,0-.27.68.68,0,0,1-.1-.21c-.06-.13-.1-.27-.16-.41l-.36-1-.67-1.79-1.4-3.73c-.17-.45-.9-.25-.73.2Z" transform="translate(-92.77 -6.67)"/><path d="M117.29,78.65a24.89,24.89,0,0,0,8-3.72c.39-.28,0-.93-.38-.65a23.79,23.79,0,0,1-7.78,3.64.38.38,0,0,0,.2.73Z" transform="translate(-92.77 -6.67)"/><path d="M127.57,73.58a2.77,2.77,0,0,0,.18,3.53,2.62,2.62,0,0,0,3.56.11c1.29-1,1.11-2.73.55-4.11-.5-1.21-1.6-2.6-3.08-2.36-1.32.21-2.49,1.85-1.5,3,.32.37.84-.16.53-.53-.58-.69.41-1.62,1.07-1.75,1-.2,1.85.92,2.22,1.75s.78,2.32,0,3.19a2,2,0,0,1-2.56.36,2,2,0,0,1-.41-2.68c.29-.38-.24-.91-.53-.53Z" transform="translate(-92.77 -6.67)"/><path d="M119.77,96.82l3.6,7.89c.2.44.84.06.64-.38l-3.59-7.89c-.2-.44-.85-.06-.65.38Z" transform="translate(-92.77 -6.67)"/><path d="M117.68,100.58a5.68,5.68,0,0,1,5.22-2.88l-.33-.56a24.89,24.89,0,0,0-2.56,5c-.12.32.29.56.55.42l3.6-1.88a12,12,0,0,1,1.56-.78c.33-.12.94-.32,1.27-.1.64.44-1.18,2.49-1.51,2.87a16.53,16.53,0,0,1-2.69,2.53c-.38.28,0,.93.38.65a17.54,17.54,0,0,0,3.27-3.17,11.48,11.48,0,0,0,1.19-1.75,1.34,1.34,0,0,0,0-1.53c-.65-.8-2-.34-2.74,0-1.59.8-3.16,1.66-4.74,2.48l.56.43a23.19,23.19,0,0,1,2.48-4.86.38.38,0,0,0-.32-.57A6.4,6.4,0,0,0,117,100.2c-.23.43.42.81.64.38Z" transform="translate(-92.77 -6.67)"/><path d="M127.82,92.67a13.6,13.6,0,0,0,2,3.35c.45.6.92,1.17,1.39,1.74.14.16.34.49.57.55a.41.41,0,0,0,.42-.17c.18-.25-.11-.55-.25-.73a.4.4,0,0,0-.51-.14.39.39,0,0,0-.13.52l.18.25c0,.07,0,.11,0,0l0-.29h0l.43-.17c.2,0,.18.13.09,0l-.12-.14-.35-.42c-.3-.36-.6-.73-.89-1.1-.13-.17-.17-.2-.29-.37l-.54-.78a10.48,10.48,0,0,1-1.31-2.33c-.16-.44-.89-.25-.72.2Z" transform="translate(-92.77 -6.67)"/><path d="M128.4,92.79l2.41-2.06a.39.39,0,0,0,0-.53.37.37,0,0,0-.53,0l-2.41,2.06a.37.37,0,0,0,0,.53.39.39,0,0,0,.53,0Z" transform="translate(-92.77 -6.67)"/><path d="M130.34,96.35l1.73-1.44a.38.38,0,0,0,0-.53.4.4,0,0,0-.53,0l-1.73,1.44a.38.38,0,0,0,0,.53.39.39,0,0,0,.53,0Z" transform="translate(-92.77 -6.67)"/><path d="M133.31,99.23A17.5,17.5,0,0,0,137,97.12a.39.39,0,0,0,.14-.52.37.37,0,0,0-.51-.13,16.47,16.47,0,0,1-3.55,2,.39.39,0,0,0-.26.46.38.38,0,0,0,.46.27Z" transform="translate(-92.77 -6.67)"/><path d="M134.48,87.45,138,96c.08.2.34.39.55.23A12.8,12.8,0,0,0,142,92.86a4.27,4.27,0,0,0,.31-4.24,5,5,0,0,0-3.2-2.19,6.77,6.77,0,0,0-4.29.1c-1.26.55-2.19,2.24-1.06,3.39.34.34.87-.19.53-.54a1.26,1.26,0,0,1,.22-1.79,3.34,3.34,0,0,1,2.16-.69A6.73,6.73,0,0,1,140.74,88a3.13,3.13,0,0,1,.91,4,10.48,10.48,0,0,1-3.48,3.68l.55.22-3.52-8.59c-.18-.44-.9-.25-.72.2Z" transform="translate(-92.77 -6.67)"/><path d="M284.62,391a22.66,22.66,0,0,1-2.95,9.31c-1,1.66-2.33,3.21-2.47,5.22-.41,5.89,3.18,11.3,8,14.34a.39.39,0,0,0,.52-.14l10.58-16.54c.26-.41-.38-.79-.64-.38l-10.59,16.55.51-.14a16.76,16.76,0,0,1-6.2-6.71c-1.12-2.25-2.06-5.52-1.27-8,.64-2,2.26-3.71,3.16-5.62a24.72,24.72,0,0,0,2.09-7.88c.05-.48-.7-.48-.76,0Z" transform="translate(-92.77 -6.67)"/></svg>